<svg xmlns="http://www.w3.org/2000/svg" xmlns:xlink="http://www.w3.org/1999/xlink" width="583.077" height="350.725" viewBox="0 0 583.077 350.725">
  <defs>
    <linearGradient id="linear-gradient" x1="0.5" x2="0.5" y2="1" gradientUnits="objectBoundingBox">
      <stop offset="0" stop-color="#54c7f4"/>
      <stop offset="1" stop-color="#a9f0c5"/>
    </linearGradient>
  </defs>
  <g id="Group_194" data-name="Group 194" transform="translate(32.418 -240.036) rotate(8)">
    <g id="Group_194-2" data-name="Group 194" transform="translate(0 -27.599)">
      <path id="Path_2" data-name="Path 2" d="M45.266,329.917s-39.829,8.514-7.815,27.346,91.794,46.914,91.794,46.914,37.381,11.777,61.316-15.462,41.375,0,41.375,0,13.387,21.4,23.838,11.7,0-21.221,0-21.221-16.905-22.372,4.645-43.659,11.552-29.322,2.561-28.5S45.266,329.917,45.266,329.917Z" transform="translate(0 -39.087)" fill="url(#linear-gradient)"/>
      <path id="Path_3" data-name="Path 3" d="M700.223,616.321s-1.854-32.321-18.8-67.909c-8.884-18.662-21.906-38.22-40.992-54.494,0,0-5.985,1.5-12.96,2.8-7.289,1.366-15.662,2.521-19.424,1.524,0,0,4.8,11.585-5.843,13.25-12.316,1.917-11.743-16.164-11.743-16.164s-3.2-.817-8.137-2.388h-.008c-2.238-.785-4.839-1.979-7.666-3.314-1.17,3.55-2.223,7.108-3.134,10.769-.228.926-.456,1.83-.667,2.764-.676,2.922-4.147,5.9-7.258,5.506-14.46-1.807-10.477-17.9-6.095-29.454.023-.063.046-.141.071-.2l-.118-.094a76.962,76.962,0,0,1-14.916-15.544l-11.012,17.641c-4.682,6.04-22.417,3.943-16.172-10.148,15.049-33.978,42.516-54.164,53.8-53.622,0,0-23.477-3.094-54.738,5.483,0,0-14.538-5.334-8.97-14.641,8.051-13.454,64.658-20.877,98.008-13.957S719.277,445.22,761.3,506.391C761.3,506.391,773.064,587.323,700.223,616.321Z" transform="translate(-194.419 -73.379)" fill="#ff9880"/>
      <path id="Path_4" data-name="Path 4" d="M649.536,569c.37,4.64,2.105,13.72,10.03,13.72h.062c.071,0,.141-.078.213-.086a12.633,12.633,0,0,0,1.343-.212c4.948-.77,6.558-3.692,6.857-6.6a.028.028,0,0,0,.008-.023,15.212,15.212,0,0,0-.786-5.993c-.031-.079-.063-.165-.094-.244-.039-.118-.071-.212-.095-.275l-.047-.118a10.65,10.65,0,0,0,1.642.279c-.02-.124-.042-.248-.062-.371-.547-.023-1.094-.04-1.643-.073a88.954,88.954,0,0,1-16.99-2.708C649.853,567.186,649.7,568.087,649.536,569Z" transform="translate(-253.396 -144.303)" fill="#f4806f"/>
      <path id="Path_5" data-name="Path 5" d="M666.02,539.126a50.142,50.142,0,0,0,1.9,11.116q.769,2.706,1.789,5.334c.337.875.688,1.745,1.067,2.6l.143.34.162.432a8.377,8.377,0,0,1,.3.877,10.727,10.727,0,0,1,.332,1.833,10.191,10.191,0,0,1-1.989,7.005,10.453,10.453,0,0,1-5.951,3.967,10,10,0,0,1-6.892-.717,9.493,9.493,0,0,1-4.531-4.85,1.082,1.082,0,0,1,1.892-1.024l.012.018a7.555,7.555,0,0,0,3.862,2.94,6.96,6.96,0,0,0,4.543-.13,7.522,7.522,0,0,0,1.909-1.125,7.428,7.428,0,0,0,1.4-1.654,7.264,7.264,0,0,0,.975-4.056,6.013,6.013,0,0,0-.132-1.045,5.2,5.2,0,0,0-.135-.516l-.07-.26c-.024-.09-.078-.231-.116-.343-.339-.951-.65-1.912-.943-2.879a51.127,51.127,0,0,1-1.383-5.9,38.7,38.7,0,0,1-.28-12.071,1.078,1.078,0,0,1,2.144.1Z" transform="translate(-254.502 -132.86)" fill="#233940"/>
      <path id="Path_6" data-name="Path 6" d="M656.11,450.954a52.173,52.173,0,0,0-16.894-9.275,79.9,79.9,0,0,0-9.1-2.521c-4.808-1.045-22.3-8.6-20.5,1.235.067.366.12.764.159,1.189a17.456,17.456,0,0,1-6.6,15.116,126.952,126.952,0,0,0-9.9,8.835,10.51,10.51,0,0,1,1.477,1.249c.817.834,1.662,1.615,2.526,2.354a7.756,7.756,0,0,0,.446,1.132,8.4,8.4,0,0,1,1.056,1.016,14.431,14.431,0,0,0,3.452,2.861,8.666,8.666,0,0,0,1.542.369c.075.2.166.4.257.59,3.718,1.751,8.085,2.516,11.9,3.139a7.96,7.96,0,0,1,2.239.7c.041-.008.08-.014.121-.024s.086-.03.131-.041c17.237,3.042,35.258-2.942,42.365-10.6C666.314,462.318,661.071,455.166,656.11,450.954Z" transform="translate(-230.567 -91.194)" fill="#f4806f"/>
      <path id="Path_7" data-name="Path 7" d="M578.644,434.631c-.247,0-.553.023-.848.043a8.525,8.525,0,0,0-.895.091,17.92,17.92,0,0,0-1.8.288c-.6.131-1.2.208-1.792.382l-1.773.491c-1.178.338-2.319.823-3.476,1.222l-3.361,1.533a63.542,63.542,0,0,0-12.24,8.286c-7.519,6.47-13.708,14.412-19.057,22.835-.7,1.029-1.279,2.149-1.928,3.217l-1.934,3.217c-.629,1.083-1.325,2.123-1.9,3.239l-1.77,3.323-1.773,3.325-.887,1.663a9.171,9.171,0,0,0-.691,1.48,7.651,7.651,0,0,0,4.756,9.817,8.088,8.088,0,0,0,6.114-.392,8,8,0,0,0,2.527-1.941l2.474-2.891,4.98-5.785a1.078,1.078,0,0,1,1.682,1.346l-4.55,6.128-2.3,3.06a11.076,11.076,0,0,1-3.321,2.876,11.281,11.281,0,0,1-8.67,1.017,11.452,11.452,0,0,1-6.9-5.6,11.621,11.621,0,0,1-.841-8.965,12.69,12.69,0,0,1,.828-2.013l.843-1.736,1.688-3.473,1.69-3.476a16.955,16.955,0,0,1,.917-1.7l.975-1.674c1.309-2.226,2.565-4.484,3.984-6.646q2.213-3.195,4.47-6.354c.359-.538.789-1.027,1.2-1.53l1.24-1.5,2.481-3c.79-1.027,1.76-1.913,2.645-2.864l2.71-2.806a17.856,17.856,0,0,1,1.427-1.334l1.467-1.294c.987-.851,1.93-1.751,2.97-2.542a67,67,0,0,1,13.369-8.154c1.223-.481,2.443-.965,3.673-1.417,1.269-.357,2.508-.79,3.794-1.076l1.933-.408c.641-.145,1.309-.193,1.961-.292a19.226,19.226,0,0,1,1.985-.166,10.078,10.078,0,0,1,1.008-.026c.34,0,.669,0,1.058.033a1.073,1.073,0,0,1-.09,2.142Z" transform="translate(-200.004 -89.998)" fill="#233940"/>
      <path id="Path_8" data-name="Path 8" d="M618.634,551.934c-2.238-.825-4.839-1.885-7.666-3.22-1.17,3.55-2.223,7.155-3.134,10.815a9.3,9.3,0,0,1-3.252-2.851c-3.99-5.53-9.653-11.342-10.768-18.293a1.686,1.686,0,0,1-.048-.291c-.039-.244-.071-.5-.086-.746a91.026,91.026,0,0,0,24.937,14.437C618.627,551.831,618.627,551.887,618.634,551.934Z" transform="translate(-230.733 -132.558)" fill="#f4806f"/>
      <path id="Path_9" data-name="Path 9" d="M256.541,368.029,50.364,345.775a5.263,5.263,0,0,0-2.541.394l-5.355,2.27a5.257,5.257,0,0,0-2.492,7.484h0a5.256,5.256,0,0,0,3.691,2.543l171.45,33.4s13.706-1.591,32.335,24.166c0,0,20.471,9.152,16.632-15.484C264.085,400.545,251.17,386,256.541,368.029Z" transform="translate(-5.786 -54.82)" fill="#abe1fa"/>
      <path id="Path_10" data-name="Path 10" d="M771.628,520.486a5.46,5.46,0,0,1-.753.573c-12.919,8.007-24.289,19.719-38.38,25.337.371-.09.575-.141.575-.141,19.086,16.274,42.04,49.49,54.845,93.445,2.663-1.555-9.486-43.46-10.735-47.089a92.692,92.692,0,0,1,.77-62.639C779.559,525.62,775.816,521.22,771.628,520.486Z" transform="translate(-287.055 -125.716)" fill="#f4806f"/>
      <path id="Path_11" data-name="Path 11" d="M675.881,475.52a93.612,93.612,0,0,1-21,16.09,88.927,88.927,0,0,1-77.262,4.826,92.8,92.8,0,0,1-22.945-13.614,103.889,103.889,0,0,1-9.855-9.026q-2.312-2.414-4.472-4.973l-.537-.643-.267-.323-.292-.385a12.732,12.732,0,0,1-1.073-1.649,12.472,12.472,0,0,1-1.323-3.7,12.858,12.858,0,0,1,.932-7.726,14.335,14.335,0,0,1,.957-1.733l.582-.8c.19-.253.331-.427.569-.7a12.344,12.344,0,0,1,2.974-2.594,12.837,12.837,0,0,1,7.571-1.952,13.043,13.043,0,0,1,7.311,2.8q.392.31.757.651l.646.619,1.124,1.063c.737.722,1.572,1.331,2.35,2a40.85,40.85,0,0,0,5.166,3.375,42.242,42.242,0,0,0,11.591,4.309,51.858,51.858,0,0,0,12.436,1.115,60.4,60.4,0,0,0,6.261-.505,59.27,59.27,0,0,0,6.166-1.2,47.6,47.6,0,0,0,11.573-4.512,26.076,26.076,0,0,0,4.894-3.476c.329-.338.717-.679,1-1.01l.42-.49.353-.513a6.106,6.106,0,0,0,.876-2.176,7.556,7.556,0,0,0-1.035-4.846,19.016,19.016,0,0,0-3.626-4.573,45.067,45.067,0,0,0-10.239-7.079,94.058,94.058,0,0,0-24.153-8.327,128.275,128.275,0,0,0-25.646-2.643,137.762,137.762,0,0,0-25.75,2.312q-3.186.587-6.343,1.322c-2.11.479-4.165,1.053-6.347,1.585a24.3,24.3,0,0,1-6.887.827,12.676,12.676,0,0,1-3.587-.674,12.921,12.921,0,0,1-3.25-1.7,14.007,14.007,0,0,1-4.5-5.583,14.629,14.629,0,0,1-1.095-7c.026-.587.153-1.156.228-1.733a10.67,10.67,0,0,1,.367-1.694c.161-.551.269-1.124.476-1.656l.6-1.6a13.638,13.638,0,0,1,.694-1.55l.743-1.522c.554-.978,1.14-1.933,1.709-2.9a1.078,1.078,0,0,1,1.856,1.095l-.008.013-.027.043a26.3,26.3,0,0,0-4.22,11.659,12.125,12.125,0,0,0,1.015,5.8,11.371,11.371,0,0,0,3.722,4.425,9.755,9.755,0,0,0,5.4,1.746,21.529,21.529,0,0,0,6.06-.842c2.053-.531,4.2-1.162,6.339-1.682s4.3-1.014,6.46-1.446a141.115,141.115,0,0,1,26.33-2.754,132.016,132.016,0,0,1,26.428,2.334,96.481,96.481,0,0,1,25.341,8.369,49.229,49.229,0,0,1,11.311,7.671,23.336,23.336,0,0,1,4.518,5.618,13.506,13.506,0,0,1,1.42,3.613,10.442,10.442,0,0,1,.171,4.121,10.672,10.672,0,0,1-1.491,3.879c-.187.281-.373.567-.569.84l-.633.764c-.427.5-.857.884-1.288,1.329a30.653,30.653,0,0,1-5.71,4.166,50.7,50.7,0,0,1-12.73,5.062,58.637,58.637,0,0,1-27.06.631,46.952,46.952,0,0,1-12.858-4.839,44.419,44.419,0,0,1-5.757-3.832c-.869-.758-1.793-1.457-2.613-2.268l-1.245-1.2-.531-.518q-.233-.221-.481-.421a8.448,8.448,0,0,0-4.714-1.858,8.326,8.326,0,0,0-4.921,1.219,7.9,7.9,0,0,0-1.954,1.675c-.128.134-.333.382-.471.566l-.385.518a9.964,9.964,0,0,0-.634,1.127,8.467,8.467,0,0,0-.658,5.065,8.1,8.1,0,0,0,.85,2.45,8.441,8.441,0,0,0,.7,1.1l.2.27.253.31.506.619q2.039,2.471,4.242,4.805a99.7,99.7,0,0,0,9.374,8.745A90.528,90.528,0,0,0,579.1,492.88a86.1,86.1,0,0,0,50.34,5.083,87.486,87.486,0,0,0,24.171-8.673A91.167,91.167,0,0,0,674.362,474l0,0a1.074,1.074,0,0,1,1.516,1.521Z" transform="translate(-193.07 -76.466)" fill="#233940"/>
      <path id="Path_12" data-name="Path 12" d="M660.433,535.825c18.106,16.168,33.277,35.408,45.921,56.107,3.181,5.17,6.107,10.5,8.88,15.9.678,1.371,1.4,2.673,2.042,4.1s1.322,2.839,1.824,4.328c.266.737.557,1.467.8,2.212l.66,2.261.324,1.132.252,1.152.5,2.3A52.059,52.059,0,0,1,685.4,684.257a53.557,53.557,0,0,1-18.661,1.991c-3.154-.254-6.154-.706-9.168-1.245s-6-1.181-8.97-1.908a139.706,139.706,0,0,1-33.967-13.4,150.874,150.874,0,0,1-15.38-9.812,178.943,178.943,0,0,1-14.1-11.516,1.077,1.077,0,0,1,1.405-1.632l.022.018a176.631,176.631,0,0,0,14.233,10.921,159.927,159.927,0,0,0,15.3,9.27A136.183,136.183,0,0,0,649.5,679.3c2.9.645,5.814,1.213,8.746,1.666s5.9.843,8.759,1.032a49.169,49.169,0,0,0,17.072-2.086,48.418,48.418,0,0,0,15.144-8.012c1.158-.851,2.2-1.839,3.278-2.788.532-.481,1.015-1.015,1.526-1.519s1.014-1.016,1.47-1.571l1.42-1.619,1.317-1.7c.216-.286.444-.565.653-.856l.6-.893c.394-.6.817-1.182,1.191-1.793a51.579,51.579,0,0,0,3.875-7.684,47.581,47.581,0,0,0,2.463-8.244l.225-1.054c.063-.354.1-.711.158-1.065l.308-2.133.162-2.149.079-1.075.007-1.078.011-2.157-.134-2.154c-.024-.359-.037-.719-.071-1.077l-.143-1.07-.284-2.141-.432-2.118-.215-1.06-.286-1.044-.578-2.086c-.213-.689-.476-1.364-.71-2.047-.44-1.378-1.061-2.688-1.631-4.02s-1.294-2.677-1.934-4.015l-.988-2.011-1.036-1.988c-.7-1.322-1.373-2.655-2.087-3.968-1.45-2.615-2.876-5.244-4.4-7.82-1.474-2.6-3.072-5.135-4.626-7.693-1.62-2.516-3.209-5.055-4.906-7.522-1.647-2.5-3.405-4.925-5.126-7.377-1.786-2.4-3.539-4.833-5.4-7.182a224.912,224.912,0,0,0-24-26.711l-.008-.007a1.073,1.073,0,0,1,1.451-1.582Z" transform="translate(-227.128 -131.829)" fill="#233940"/>
      <path id="Path_13" data-name="Path 13" d="M590.637,508.157c-10.109-21.94-24.193-41.9-40.279-59.9a329.982,329.982,0,0,0-54.113-48.019c-1.219-.891-2.461-1.749-3.715-2.59l-3.743-2.549c-2.505-1.684-5.064-3.287-7.593-4.934-2.583-1.56-5.139-3.169-7.746-4.686-2.628-1.482-5.208-3.051-7.883-4.445l-3.984-2.144c-1.332-.707-2.69-1.36-4.034-2.044-2.679-1.386-5.418-2.643-8.152-3.911-1.358-.653-2.745-1.241-4.13-1.83l-4.153-1.776-4.206-1.64-2.1-.82-2.127-.749-4.257-1.491-4.3-1.334-2.152-.663-2.176-.576c-1.452-.376-2.9-.789-4.354-1.136a130.424,130.424,0,0,0-17.692-2.933,123.078,123.078,0,0,0-17.917-.192l-4.471.354-4.451.557c-1.487.156-2.955.456-4.428.7s-2.949.5-4.4.85a122.392,122.392,0,0,0-17.227,4.966l-2.1.778c-.7.25-1.4.522-2.086.824l-4.134,1.742c-2.7,1.281-5.432,2.51-8.048,3.962A127.887,127.887,0,0,0,299.505,393.5a124.285,124.285,0,0,0-11.989,13.3c-3.721,4.66-6.819,9.8-10.478,14.807a62.324,62.324,0,0,1-6.044,7.21,28.514,28.514,0,0,1-7.882,5.707,23.733,23.733,0,0,1-9.634,2.269l-2.462-.1-.616-.027-.6-.092-1.2-.187a39.292,39.292,0,0,1-4.672-1.009,67.519,67.519,0,0,1-17.07-7.69A143.767,143.767,0,0,1,211.876,416.9l-7.05-5.757q-3.511-2.836-7.126-5.54-7.219-5.422-14.792-10.356a305.63,305.63,0,0,0-64.664-31.9c-5.676-2.017-11.414-3.854-17.184-5.584-5.771-1.71-11.614-3.242-17.453-4.641-11.6-2.71-23.807-3.74-35.8-7.1-1.507-.414-2.965-.871-4.487-1.383a27.585,27.585,0,0,1-4.547-2,15.526,15.526,0,0,1-2.212-1.494,9.476,9.476,0,0,1-2.028-2.188,6.335,6.335,0,0,1-1.089-3.394,6.087,6.087,0,0,1,1.075-3.465,11.131,11.131,0,0,1,4.475-3.6,23.311,23.311,0,0,1,4.8-1.625,36.061,36.061,0,0,1,4.8-.742l4.532-.413,36.26-3.3q18.107-1.682,36.2-3.542,18.085-1.9,36.154-4.03c24.093-2.817,48.2-5.755,72.372-8.221l18.129-1.8,9.071-.837,4.535-.414a12.5,12.5,0,0,1,5.36.657,12.643,12.643,0,0,1,7.478,7.423,12.234,12.234,0,0,1,.77,5.362,11.372,11.372,0,0,1-1.781,5.191,12.409,12.409,0,0,1-1.747,2.094l-1.674,1.578c-1.105,1.014-2.167,2.066-3.23,3.116-2.109,2.114-4.165,4.278-6.059,6.553-3.791,4.518-7.2,9.441-8.908,14.862a23.6,23.6,0,0,0-1.138,8.307,31,31,0,0,0,1.645,8.393c.91,2.773,2.087,5.515,3.307,8.268l1.864,4.146.929,2.091.462,1.05.45,1.148a16.514,16.514,0,0,1,.8,10.029,12.221,12.221,0,0,1-6.583,7.957,13.554,13.554,0,0,1-10.213.49,15.976,15.976,0,0,1-7.9-6.2c-.5-.721-.865-1.284-1.275-1.9-.416-.6-.839-1.2-1.279-1.777-.887-1.161-1.817-2.294-2.809-3.372a48.283,48.283,0,0,0-6.473-5.925,39.783,39.783,0,0,0-7.447-4.505,30.779,30.779,0,0,0-4.026-1.487,23.041,23.041,0,0,0-4.141-.749,16.577,16.577,0,0,0-4.091.223,12.831,12.831,0,0,0-6.943,3.871c-.228.257-.481.487-.691.763l-.636.821-1.365,1.823a58.409,58.409,0,0,1-29.93,21.353,56.851,56.851,0,0,1-36.7-1.1l-.005,0a1.348,1.348,0,0,1-.137-.06L33.322,354.291a1.077,1.077,0,0,1,.966-1.926l98.741,49.121-.142-.062a53.866,53.866,0,0,0,34.78.878,55.249,55.249,0,0,0,28.22-20.338c.453-.6.862-1.149,1.354-1.826l.753-.981c.25-.328.554-.619.83-.929a16.137,16.137,0,0,1,8.671-4.873,19.921,19.921,0,0,1,4.967-.3,26.33,26.33,0,0,1,4.8.842,34.056,34.056,0,0,1,4.513,1.639,43.165,43.165,0,0,1,8.12,4.853,51.693,51.693,0,0,1,6.965,6.314c1.068,1.149,2.072,2.358,3.031,3.6.477.625.935,1.265,1.388,1.91.433.644.9,1.355,1.269,1.872a12.446,12.446,0,0,0,6.173,4.845,9.983,9.983,0,0,0,7.51-.373,8.624,8.624,0,0,0,4.619-5.644,12.906,12.906,0,0,0-.729-7.807l-.384-.969-.459-1.031-.929-2.062-1.888-4.146c-1.25-2.787-2.488-5.622-3.487-8.61a34.8,34.8,0,0,1-1.875-9.4,27.455,27.455,0,0,1,1.268-9.635,38.146,38.146,0,0,1,4.036-8.663,65.862,65.862,0,0,1,5.525-7.573c1.978-2.4,4.1-4.648,6.26-6.838,1.09-1.086,2.179-2.175,3.3-3.218l.837-.791.419-.4c.147-.137.277-.263.374-.365a8.359,8.359,0,0,0,1.159-1.4,7.6,7.6,0,0,0,.588-6.9,8.549,8.549,0,0,0-5.052-5,8.337,8.337,0,0,0-3.6-.414l-4.526.435-9.051.872-18.09,1.861c-24.114,2.547-48.178,5.567-72.285,8.473s-48.258,5.6-72.453,7.777l-36.25,3.3-4.531.412a31.5,31.5,0,0,0-4.184.642,18.707,18.707,0,0,0-3.809,1.278,6.719,6.719,0,0,0-2.6,1.962,1.379,1.379,0,0,0-.283.8,1.648,1.648,0,0,0,.318.86,7.808,7.808,0,0,0,2.624,2.166,23.018,23.018,0,0,0,3.772,1.653c1.352.455,2.789.909,4.209,1.3,11.413,3.22,23.55,4.258,35.591,7.052,5.962,1.428,11.86,2.975,17.725,4.713s11.667,3.645,17.419,5.71a310.122,310.122,0,0,1,65.505,32.614q7.662,5.039,14.987,10.574,3.659,2.766,7.223,5.657l7.028,5.782a139.6,139.6,0,0,0,14.494,10.533,63.407,63.407,0,0,0,15.98,7.286,35.251,35.251,0,0,0,4.212.925l1.045.169.522.086.521.021,2.084.092a19.612,19.612,0,0,0,7.943-1.841,24.47,24.47,0,0,0,6.794-4.9,58.631,58.631,0,0,0,5.655-6.708c1.769-2.388,3.44-4.9,5.167-7.41.848-1.256,1.754-2.515,2.643-3.771.922-1.234,1.832-2.479,2.794-3.683a128.162,128.162,0,0,1,12.412-13.671,131.669,131.669,0,0,1,29.9-21.477c2.7-1.483,5.509-2.738,8.294-4.045l4.259-1.777c.705-.307,1.423-.584,2.149-.84l2.166-.793a126.058,126.058,0,0,1,17.738-5.044c1.5-.356,3.016-.6,4.533-.858s3.028-.551,4.56-.708l4.582-.556,4.6-.347a126.634,126.634,0,0,1,18.45.264,133.858,133.858,0,0,1,18.179,3.08c1.492.361,2.965.787,4.448,1.177l2.221.6,2.194.683,4.384,1.376,4.327,1.534,2.162.771,2.134.84,4.267,1.683,4.209,1.817c1.4.6,2.808,1.205,4.182,1.872,2.766,1.295,5.538,2.58,8.244,3.992,1.358.7,2.731,1.364,4.077,2.085l4.023,2.183a296.849,296.849,0,0,1,30.917,19.529,332.835,332.835,0,0,1,54.28,48.777A276.5,276.5,0,0,1,574.7,475.4a219.3,219.3,0,0,1,17.892,31.874,1.073,1.073,0,0,1-1.953.892Z" transform="translate(-3.137 -37.686)" fill="#233940"/>
    </g>
  </g>
</svg>
