<svg xmlns="http://www.w3.org/2000/svg" width="199" height="40.679" viewBox="0 0 199 40.679">
  <g id="Aeroflot" transform="translate(-0.5 -0.118)">
    <g id="text3539">
      <path id="path3544" d="M30,17.1V1.1l15,.063v2.11H35.7V8.1h8.712v2.027H35.7V15.3h9.668v1.858Z" fill="#00529c"/>
    </g>
    <g id="g4341">
      <g id="g3230">
        <path id="path3236" d="M161.056,2.105a5.958,5.958,0,0,1,4.971,2.13,6.8,6.8,0,0,1,1.362,4.516,6.842,6.842,0,0,1-1.362,4.515,6.864,6.864,0,0,1-9.941,0,6.838,6.838,0,0,1-1.363-4.515,6.8,6.8,0,0,1,1.363-4.516,5.953,5.953,0,0,1,4.97-2.13h0Zm0,15.28c3.068,0,7.355-.682,10.225-2.756a7.473,7.473,0,0,0,3.352-5.878,7.474,7.474,0,0,0-3.352-5.879C168.412.8,164.125.118,161.056.118,158.018.118,153.7.8,150.8,2.872a7.439,7.439,0,0,0-3.323,5.879,7.434,7.434,0,0,0,3.323,5.878c2.9,2.074,7.214,2.756,10.252,2.756Z" fill="#00529c" fill-rule="evenodd"/>
        <path id="path3240" d="M88.954,2.105a5.985,5.985,0,0,1,4.97,2.13,6.8,6.8,0,0,1,1.363,4.516,6.843,6.843,0,0,1-1.363,4.515,6.9,6.9,0,0,1-9.968,0,6.8,6.8,0,0,1-1.334-4.515,6.771,6.771,0,0,1,1.334-4.516,6,6,0,0,1,5-2.13h0Zm0,15.28c3.039,0,7.356-.682,10.224-2.756a7.471,7.471,0,0,0,3.294-5.878,7.478,7.478,0,0,0-3.294-5.879C96.31.8,91.992.118,88.954.118,85.887.118,81.57.8,78.7,2.872a7.436,7.436,0,0,0-3.323,5.879A7.431,7.431,0,0,0,78.7,14.629c2.868,2.074,7.185,2.756,10.252,2.756Z" fill="#00529c" fill-rule="evenodd"/>
        <path id="path3242" d="M64.866,10.462c2.94.01,6.008-1.684,6.015-4.6a4.331,4.331,0,0,0-2.414-3.919C66.9,1.06,64.8.776,61.282.776H50.063v16.33h6.561l.012-8.47L62.9,17.107l7.806,0ZM60.344,3.275A5.492,5.492,0,0,1,62.9,3.9a2.288,2.288,0,0,1,1.165,1.988,2.328,2.328,0,0,1-1.221,2.073,5.159,5.159,0,0,1-2.5.682H56.623V3.248h3.039a6.26,6.26,0,0,1,.682.027Z" fill="#00529c" fill-rule="evenodd"/>
        <path id="path3244" d="M10.81,4.606l3.266,5.565H7.543l3.1-5.679h.085l.086.114Zm4.6,7.781L18.223,17.1H25.55L15.61.771H9.531L.5,17.1H3.766L6.35,12.387h9.061Z" fill="#00529c" fill-rule="evenodd"/>
        <path id="polygon3246" d="M178.825,3.243h7.043V17.1h6.561V3.243H199.5V.771H178.825Z" fill="#00529c" fill-rule="evenodd"/>
        <path id="path3288" d="M11.377,36.639,9.02,35.617l9.77-1.191a7.868,7.868,0,0,0,.54.795l-7.953,1.418Zm26.213,0,2.357-1.078L30.234,34.4a3.083,3.083,0,0,1-.511.824l7.867,1.418Zm-1.419.172-2.954.994-4.2-1.277-.37-.113a2.436,2.436,0,0,0,.37-.369c.17-.143.312-.342.483-.484l6.674,1.249Zm7.81-2.754-2.7,1.25-10.792-1.25c.085-.254.171-.51.256-.768l13.234.768Zm.965-.369,3.521-2.244H29.383a5.2,5.2,0,0,1-.369,2.074A4.516,4.516,0,0,1,24.583,36.3,5.079,5.079,0,0,1,20.1,33.572a5,5,0,0,1-.454-2.129H.5l3.494,2.244,14.626-.766A5.862,5.862,0,0,0,20.1,35.56a6.273,6.273,0,0,0,4.487,1.9,5.737,5.737,0,0,0,4.431-1.875,6.242,6.242,0,0,0,1.391-2.613l14.541.712ZM29.014,39.479l.369.684-.369.172-.994.453-1.136-2.244a7.648,7.648,0,0,1-2.3.426,7.27,7.27,0,0,1-2.5-.342l-.966,2.16a1.643,1.643,0,0,1-1.022-.2.748.748,0,0,1-.34-.428l.34-.568.824-1.479a3.845,3.845,0,0,1-.71-.51l.682-.822a7.145,7.145,0,0,0,3.691,1.107A6.073,6.073,0,0,0,28.247,36.7l.768.227.312.115c-.113.084-.2.17-.312.256a3.224,3.224,0,0,1-.8.652l.794,1.531Zm0-11.614a7.577,7.577,0,0,1,1.562,3.209H29.355A6.7,6.7,0,0,0,29.015,30a10.747,10.747,0,0,0-4.431-4.973c-.255-.141-.482-.311-.738-.453.256.086.483.172.738.258a10.735,10.735,0,0,1,4.43,3.037Zm-3.3,8.008a2.941,2.941,0,0,0,1.165-.51l-1.932-3.834,2.017-.967-1.7-1.477-.682.315-2.925,1.332.852,1.932,1.392-.623,1.817,3.832Zm-5.282.541c-.114-.086-.228-.2-.341-.285a3.555,3.555,0,0,1-.568-.6l-6.669,1.26,2.839.953,4.739-1.332ZM18.62,34.057a8.1,8.1,0,0,1-.285-.768l-13.348.768,2.7,1.307L18.62,34.057Z" fill="#00529c" fill-rule="evenodd"/>
      </g>
      <g id="text4324">
        <path id="path4329" d="M107.254,17.1,107.164.815l15.788.127V2.8h-9.679V7.678l8.949-.06V9.866l-8.949.06V17.11Z" fill="#00529c"/>
        <path id="path4331" d="M127.815,17.17,127.785.943h6.025v13.89l9.192.044,0,2.354Z" fill="#00529c"/>
      </g>
    </g>
    <text id="Russian_" data-name="Russian " transform="translate(109.538 33.713)" fill="#00529c" font-size="8" font-family="Helvetica-Oblique, Helvetica" font-style="oblique" letter-spacing="0.253em"><tspan x="0" y="0">Russian </tspan></text>
    <text id="Airlines" transform="translate(158.32 33.551)" fill="#00529c" font-size="8" font-family="Helvetica-Oblique, Helvetica" font-style="oblique" letter-spacing="0.25em"><tspan x="0" y="0">Airlines</tspan></text>
  </g>
</svg>
