<svg id="AFTI" xmlns="http://www.w3.org/2000/svg" xmlns:xlink="http://www.w3.org/1999/xlink" width="108.282" height="49.265" viewBox="0 0 108.282 49.265">
  <defs>
    <clipPath id="clip-path">
      <path id="Path_311" data-name="Path 311" d="M45.29,8.66l12.675,7.3L64.3,12.295Z" transform="translate(-45.29 -8.66)" fill="none"/>
    </clipPath>
    <linearGradient id="linear-gradient" x1="-7.467" y1="19.945" x2="-7.445" y2="19.945" gradientUnits="objectBoundingBox">
      <stop offset="0" stop-color="#b3e2f0"/>
      <stop offset="0.24" stop-color="#b0e1ef"/>
      <stop offset="0.39" stop-color="#a8dded"/>
      <stop offset="0.51" stop-color="#9ad5e9"/>
      <stop offset="0.62" stop-color="#85cbe4"/>
      <stop offset="0.71" stop-color="#6bbedc"/>
      <stop offset="0.8" stop-color="#4baed4"/>
      <stop offset="0.89" stop-color="#259cc9"/>
      <stop offset="0.96" stop-color="#0089bf"/>
      <stop offset="1" stop-color="#0089bf"/>
    </linearGradient>
    <clipPath id="clip-path-2">
      <path id="Path_312" data-name="Path 312" d="M0,0,12.679,7.3l6.329-3.668Z" fill="none"/>
    </clipPath>
    <linearGradient id="linear-gradient-2" x1="-6.467" y1="20.443" x2="-6.445" y2="20.443" gradientUnits="objectBoundingBox">
      <stop offset="0" stop-color="#f9b7b5"/>
      <stop offset="1" stop-color="#ed1c24"/>
    </linearGradient>
    <clipPath id="clip-path-3">
      <path id="Path_313" data-name="Path 313" d="M30.22,34.85l12.679,7.3,6.333-3.664Z" transform="translate(-30.22 -34.85)" fill="none"/>
    </clipPath>
    <linearGradient id="linear-gradient-3" x1="-7.152" y1="18.426" x2="-7.13" y2="18.426" gradientUnits="objectBoundingBox">
      <stop offset="0" stop-color="#e4e5e4"/>
      <stop offset="1" stop-color="#d8d9d8"/>
    </linearGradient>
  </defs>
  <g id="Layer_1" data-name="Layer 1">
    <path id="Path_282" data-name="Path 282" d="M86.343,55.139l-.449-1.469h-.05l-.449,1.419-.68,2.136h2.317Zm1.679,4.512c-.122,0-.189,0-.239-.147l-.5-1.469H84.455l-.5,1.477a.189.189,0,0,1-.21.147h-.68c-.13,0-.159-.088-.13-.189l2.258-6.421c.109-.319.2-.39.508-.4H86c.357,0,.42.1.537.4l2.25,6.421a.126.126,0,0,1-.122.189Z" transform="translate(-48.122 -30.553)" fill="#00447c"/>
    <path id="Path_283" data-name="Path 283" d="M102.1,58.571V56.325a1.678,1.678,0,0,0-.42-.034,3.542,3.542,0,0,0-1.461.323c-.139.05-.189.08-.248-.034l-.189-.449c-.05-.088-.029-.147.067-.218a3.3,3.3,0,0,1,1.708-.449,4,4,0,0,1,.768.05c.508.088.659.29.659.8v2.518a.285.285,0,0,1-.159.3,4.692,4.692,0,0,1-2.229.512c-1.855,0-2.976-1.112-2.976-3.525,0-2.25,1.179-3.677,3.068-3.677a4.247,4.247,0,0,1,1.926.42c.071.038.109.1.038.227l-.218.5c-.05.092-.08.122-.189.08a3.777,3.777,0,0,0-1.536-.319c-1.578,0-2.149,1.347-2.149,2.8,0,1.511.457,2.678,2.136,2.678a4.075,4.075,0,0,0,1.4-.239" transform="translate(-56.65 -30.43)" fill="#00447c"/>
    <path id="Path_284" data-name="Path 284" d="M118.1,59.651h-2.778a1.507,1.507,0,0,1-1.679-1.7V54.371a1.558,1.558,0,0,1,1.679-1.721h2.728c.151,0,.18.071.18.21v.42c0,.151-.029.2-.18.2h-2.715c-.55,0-.789.239-.789.76v1.3h3.173c.151,0,.18.059.18.21v.378c0,.13-.029.2-.18.2h-3.173v1.738c0,.449.218.747.789.747H118.1c.159,0,.189.063.189.21v.42c0,.143-.029.21-.189.21" transform="translate(-65.946 -30.553)" fill="#00447c"/>
    <path id="Path_285" data-name="Path 285" d="M131.9,52.822c0-.138.059-.172.189-.172h.52c.13,0,.189.034.189.172v6.333c0,.327-.109.5-.487.5h-.26c-.3,0-.382-.109-.558-.42l-2.38-3.916-.789-1.36H128.3v5.527c0,.138-.05.168-.189.168h-.52c-.118,0-.189-.029-.189-.168V53.149c0-.327.122-.5.491-.5h.256c.29,0,.369.113.55.42l2.313,3.828.839,1.448h.029Z" transform="translate(-73.931 -30.553)" fill="#00447c"/>
    <path id="Path_286" data-name="Path 286" d="M148.115,58.419c.151-.059.2,0,.231.08l.189.42c.08.159.038.2-.05.26a4.323,4.323,0,0,1-2.1.457c-1.868,0-2.976-1.087-2.976-3.5,0-2.245,1.225-3.693,3.043-3.693a3.937,3.937,0,0,1,1.859.42c.08.038.117.1.05.227l-.231.462c-.042.08-.071.118-.18.067a3.639,3.639,0,0,0-1.456-.306c-1.519,0-2.149,1.385-2.149,2.833s.52,2.648,2.2,2.648a3.9,3.9,0,0,0,1.586-.361" transform="translate(-83.222 -30.43)" fill="#00447c"/>
    <path id="Path_287" data-name="Path 287" d="M159.719,56.854V59.51c0,.13-.038.147-.147.147h-.579c-.113,0-.159,0-.159-.147V56.854l-2.279-4.092c-.029-.042,0-.113.08-.113h.739a.185.185,0,0,1,.2.147l.907,1.721.772,1.519h.038l.839-1.6L161,52.8c.05-.1.088-.13.2-.13h.692c.08,0,.08.071.067.113Z" transform="translate(-90.843 -30.551)" fill="#00447c"/>
    <path id="Path_288" data-name="Path 288" d="M84.672,83.655H83.627c-.159,0-.227-.05-.227-.21V78.556a1.658,1.658,0,0,1,1.817-1.826H88.1c.168,0,.2.05.2.235V77.8c0,.168-.05.218-.2.218H85.54c-.512,0-.642.256-.642.613v.911h2.808c.155,0,.185.038.185.235v.772c0,.155-.038.227-.185.227h-2.8v2.665c0,.176-.029.21-.227.21" transform="translate(-48.398 -44.527)" fill="#00447c"/>
    <path id="Path_289" data-name="Path 289" d="M99.424,77.833c-1.007,0-1.494.99-1.494,2.174,0,1.385.357,2.262,1.5,2.262s1.482-1.045,1.482-2.2-.285-2.233-1.49-2.233m-.042,5.788c-2.044,0-3.022-1.293-3.022-3.555s1.167-3.576,3.051-3.576c2.056,0,3.072,1.364,3.072,3.546,0,2.254-.965,3.584-3.1,3.584" transform="translate(-55.918 -44.387)" fill="#00447c"/>
    <path id="Path_290" data-name="Path 290" d="M116.447,78.052H115.1v1.582h1.314a.785.785,0,0,0,.89-.8.747.747,0,0,0-.839-.781m1.49,2.363a1.318,1.318,0,0,1,.684,1.045l.5,1.973c0,.08,0,.231-.147.231h-1.024c-.147,0-.332,0-.395-.2l-.42-1.75a.97.97,0,0,0-1.079-.839h-.957v2.6c0,.176-.029.21-.227.21h-1.058c-.155,0-.227-.05-.227-.21V77.33c0-.395.118-.6.592-.6h2.422a1.976,1.976,0,0,1,2.25,2.006,1.813,1.813,0,0,1-.915,1.628Z" transform="translate(-65.929 -44.527)" fill="#00447c"/>
    <path id="Path_291" data-name="Path 291" d="M137.7,76.47a5.431,5.431,0,0,1,2.212.453c.16.08.168.122.1.319l-.256.739c-.071.189-.109.189-.269.147a6.554,6.554,0,0,0-1.788-.315c-.571,0-.789.248-.789.541s.277.546,1.154.9c1.343.52,2.3,1.007,2.3,2.287,0,1.385-1.037,2.065-2.577,2.065a5.271,5.271,0,0,1-2.615-.621c-.109-.059-.13-.126-.059-.294l.336-.793c.067-.155.126-.168.273-.109a5.767,5.767,0,0,0,1.956.466c.839,0,1.079-.336,1.079-.693s-.256-.621-1.1-.936c-1.393-.533-2.313-1.058-2.313-2.153s.739-2.006,2.35-2.006" transform="translate(-78.383 -44.376)" fill="#00447c"/>
    <path id="Path_292" data-name="Path 292" d="M153.916,78.034h-1.788v5.422c0,.168-.042.21-.239.21h-1.053c-.159,0-.231-.05-.231-.21V78.034h-1.746c-.139,0-.189-.059-.189-.2V76.96c0-.168.042-.21.189-.21H153.9c.155,0,.2.042.2.21v.877c0,.138-.059.2-.2.2" transform="translate(-86.274 -44.538)" fill="#00447c"/>
    <path id="Path_293" data-name="Path 293" d="M166.527,78.052h-1.343v1.582H166.5a.785.785,0,0,0,.886-.8.747.747,0,0,0-.839-.781M168,80.415a1.318,1.318,0,0,1,.718,1.045l.5,1.973c.021.08,0,.231-.147.231h-1.037c-.151,0-.336,0-.395-.2l-.42-1.75a.969.969,0,0,0-1.079-.839h-.957v2.6c0,.176-.029.21-.227.21h-1.074c-.155,0-.227-.05-.227-.21V77.33c0-.395.118-.6.592-.6h2.422a1.979,1.979,0,0,1,2.254,2.006A1.817,1.817,0,0,1,168,80.365Z" transform="translate(-94.973 -44.527)" fill="#00447c"/>
    <path id="Path_294" data-name="Path 294" d="M180.264,80.962h1.553l-.374-1.259-.369-1.41h-.059l-.374,1.41Zm1.9,1.226H179.9l-.386,1.259c-.038.126-.088.189-.277.189h-1.146c-.139,0-.168-.1-.139-.2l2.052-6.2a.621.621,0,0,1,.722-.541h.6c.445,0,.613.059.772.541l2.052,6.195a.134.134,0,0,1-.126.2h-1.175c-.151,0-.248,0-.29-.159Z" transform="translate(-103.263 -44.503)" fill="#00447c"/>
    <path id="Path_295" data-name="Path 295" d="M197.166,78.034h-1.788v5.422c0,.168-.042.21-.239.21h-1.053c-.159,0-.227-.05-.227-.21V78.034h-1.75c-.138,0-.189-.059-.189-.2V76.96c0-.168.042-.21.189-.21h5.036c.155,0,.2.042.2.21v.877c0,.138-.059.2-.2.2" transform="translate(-111.373 -44.538)" fill="#00447c"/>
    <path id="Path_296" data-name="Path 296" d="M211.638,83.655H208.7a1.63,1.63,0,0,1-1.83-1.817V78.556a1.675,1.675,0,0,1,1.817-1.826h2.854c.155,0,.185.05.185.235V77.8c0,.168-.038.218-.185.218h-2.518c-.512,0-.642.269-.642.613v.76h2.833c.159,0,.189.05.189.239V80.4c0,.159-.029.227-.189.227h-2.833v1.129c0,.453.227.592.642.592h2.606c.168,0,.2.038.2.235v.839c0,.159-.038.231-.2.231" transform="translate(-120.048 -44.527)" fill="#00447c"/>
    <path id="Path_297" data-name="Path 297" d="M225.135,82.134V80.67a3.278,3.278,0,0,0-1.364.239c-.176.067-.235.088-.3-.059l-.256-.8c-.038-.109-.038-.176.1-.248a4.445,4.445,0,0,1,1.759-.395,4.116,4.116,0,0,1,.86.071c.571.126.651.512.651,1.1v2.073a.474.474,0,0,1-.239.466,5.149,5.149,0,0,1-2.388.512c-2.153,0-3.11-1.33-3.11-3.534s1.133-3.584,3.2-3.584a4.075,4.075,0,0,1,1.985.42c.147.08.168.13.071.344l-.3.7c-.071.189-.109.218-.3.151a3.949,3.949,0,0,0-1.393-.248c-1.167,0-1.679.936-1.679,2.22s.386,2.174,1.679,2.174a3.286,3.286,0,0,0,1.028-.147" transform="translate(-128.161 -44.4)" fill="#00447c"/>
    <path id="Path_298" data-name="Path 298" d="M239.242,83.667H238.2c-.159,0-.227-.05-.227-.21v-6.5c0-.159.067-.21.227-.21h1.045c.2,0,.239.042.239.21v6.5c0,.168-.042.21-.239.21" transform="translate(-138.096 -44.538)" fill="#00447c"/>
    <path id="Path_299" data-name="Path 299" d="M249.7,81.925c.189-.076.248-.029.306.122l.336.709c.088.189.059.256-.059.327a4.327,4.327,0,0,1-2.283.55c-2.153,0-3.11-1.33-3.11-3.525s1.284-3.593,3.181-3.593a3.9,3.9,0,0,1,1.935.42c.147.08.168.13.08.344l-.306.7c-.071.176-.109.214-.3.147a3.706,3.706,0,0,0-1.343-.256c-1.087,0-1.679.965-1.679,2.25s.42,2.166,1.708,2.166a4.075,4.075,0,0,0,1.519-.348" transform="translate(-142.111 -44.4)" fill="#00447c"/>
    <path id="Path_300" data-name="Path 300" d="M84.506,107.557H83.457c-.155,0-.227-.05-.227-.21v-6.5c0-.159.071-.21.227-.21h1.049c.2,0,.235.042.235.21v6.5c0,.168-.038.21-.235.21" transform="translate(-48.299 -58.402)" fill="#00447c"/>
    <path id="Path_301" data-name="Path 301" d="M92.16,103.247v4.088c0,.168-.038.21-.227.21H90.9c-.159,0-.227-.05-.227-.21v-6.023c0-.516.155-.692.642-.692h.42c.395,0,.512.067.739.445l1.679,2.556.839,1.335h.046v-4.13c0-.155.042-.206.227-.206H96.3c.168,0,.227.059.227.206v6.035c0,.42-.13.684-.642.684h-.42a.7.7,0,0,1-.743-.42l-1.578-2.388-.949-1.473Z" transform="translate(-52.616 -58.39)" fill="#00447c"/>
    <path id="Path_302" data-name="Path 302" d="M109.744,107.557h-1.058c-.155,0-.227-.05-.227-.21v-6.5c0-.159.071-.21.227-.21h1.049c.2,0,.235.042.235.21v6.5c0,.168-.038.21-.235.21" transform="translate(-62.94 -58.402)" fill="#00447c"/>
    <path id="Path_303" data-name="Path 303" d="M119.676,101.924h-1.788v5.422c0,.168-.038.21-.235.21H116.6c-.159,0-.227-.05-.227-.21v-5.422h-1.75c-.139,0-.189-.059-.189-.2v-.877c0-.168.042-.21.189-.21h5.057c.159,0,.2.042.2.21v.877c0,.138-.059.2-.2.2" transform="translate(-66.405 -58.402)" fill="#00447c"/>
    <path id="Path_304" data-name="Path 304" d="M131.006,107.557h-1.049c-.159,0-.227-.05-.227-.21v-6.5c0-.159.067-.21.227-.21h1.049c.2,0,.235.042.235.21v6.5c0,.168-.038.21-.235.21" transform="translate(-75.283 -58.402)" fill="#00447c"/>
    <path id="Path_305" data-name="Path 305" d="M137.088,104.858h1.553l-.374-1.259-.369-1.41h-.059l-.374,1.41Zm1.905,1.226h-2.262l-.386,1.259c-.038.13-.088.189-.277.189h-1.154c-.139,0-.168-.1-.139-.2l2.052-6.195a.621.621,0,0,1,.722-.541h.592c.445,0,.613.059.772.541l2.052,6.195a.137.137,0,0,1-.126.2h-1.175c-.151,0-.248-.021-.29-.159Z" transform="translate(-78.205 -58.372)" fill="#00447c"/>
    <path id="Path_306" data-name="Path 306" d="M154.926,101.924h-1.788v5.422c0,.168-.038.21-.235.21h-1.058c-.16,0-.227-.05-.227-.21v-5.422h-1.75c-.138,0-.189-.059-.189-.2v-.877c0-.168.042-.21.189-.21h5.057c.159,0,.2.042.2.21v.877c0,.138-.059.2-.2.2" transform="translate(-86.86 -58.402)" fill="#00447c"/>
    <path id="Path_307" data-name="Path 307" d="M166.236,107.557h-1.049c-.159,0-.227-.05-.227-.21v-6.5c0-.159.067-.21.227-.21h1.049c.2,0,.235.042.235.21v6.5c0,.168-.038.21-.235.21" transform="translate(-95.727 -58.402)" fill="#00447c"/>
    <path id="Path_308" data-name="Path 308" d="M174.087,105.884h.071l.462-1.729,1.058-3.4c.042-.126.118-.147.269-.147h1.2c.126,0,.126.1.109.168l-2.124,6.232c-.147.466-.336.512-.714.525h-.613c-.382,0-.571-.08-.73-.533l-2.094-6.232c-.029-.088,0-.168.118-.168h1.188c.176,0,.227.059.264.176l1.037,3.358Z" transform="translate(-99.218 -58.379)" fill="#00447c"/>
    <path id="Path_309" data-name="Path 309" d="M192.774,107.562h-2.938a1.628,1.628,0,0,1-1.826-1.817v-3.269a1.672,1.672,0,0,1,1.817-1.826h2.833c.159,0,.189.05.189.239v.839c0,.168-.038.214-.189.214h-2.518c-.516,0-.642.269-.642.613v.76h2.833c.159,0,.189.046.189.235v.768c0,.159-.029.231-.189.231H189.5v1.125c0,.453.227.592.642.592h2.606c.168,0,.2.042.2.239v.839c0,.155-.038.227-.2.227" transform="translate(-109.104 -58.408)" fill="#00447c"/>
    <path id="Path_310" data-name="Path 310" d="M204.126,100.36a5.431,5.431,0,0,1,2.212.453c.159.08.168.122.1.319l-.256.739c-.071.189-.109.189-.269.151a6.413,6.413,0,0,0-1.788-.319c-.575,0-.789.248-.789.546s.277.541,1.154.9c1.343.525,2.3,1.007,2.3,2.292,0,1.381-1.037,2.065-2.577,2.065a5.259,5.259,0,0,1-2.619-.625c-.1-.059-.126-.126-.059-.294l.336-.789c.071-.159.13-.168.277-.109a5.842,5.842,0,0,0,1.956.462c.839,0,1.079-.336,1.079-.688s-.256-.625-1.1-.94c-1.393-.533-2.312-1.058-2.312-2.153s.739-2.006,2.35-2.006" transform="translate(-116.931 -58.239)" fill="#00447c"/>
    <g id="Group_212" data-name="Group 212" transform="translate(19.008 3.635)" clip-path="url(#clip-path)">
      <rect id="Rectangle_60" data-name="Rectangle 60" width="19.008" height="7.303" fill="url(#linear-gradient)"/>
    </g>
    <g id="Group_213" data-name="Group 213" clip-path="url(#clip-path-2)">
      <rect id="Rectangle_61" data-name="Rectangle 61" width="19.008" height="7.303" fill="url(#linear-gradient-2)"/>
    </g>
    <g id="Group_214" data-name="Group 214" transform="translate(12.683 14.626)" clip-path="url(#clip-path-3)">
      <rect id="Rectangle_62" data-name="Rectangle 62" width="19.008" height="7.303" fill="url(#linear-gradient-3)"/>
    </g>
    <path id="Path_314" data-name="Path 314" d="M81.833,17.32,75.5,28.312l0-7.324Z" transform="translate(-43.813 -10.051)" fill="#0079c1"/>
    <path id="Path_315" data-name="Path 315" d="M66.763,43.51,60.438,54.5l-.008-7.324Z" transform="translate(-35.068 -25.249)" fill="#95a0a9"/>
    <path id="Path_316" data-name="Path 316" d="M36.539,8.66,30.214,19.652l0-7.324Z" transform="translate(-17.531 -5.025)" fill="#a30046"/>
  </g>
</svg>
