<svg xmlns="http://www.w3.org/2000/svg" width="101.536" height="56.107" viewBox="0 0 101.536 56.107">
  <g id="Baker-Hughes-Logo" transform="translate(-6.781 -5.697)">
    <g id="Group_208" data-name="Group 208" transform="translate(6.781 5.697)">
      <path id="Path_236" data-name="Path 236" d="M57.988,62.323H63.23V58.537a11.886,11.886,0,0,0-.1-2.135h.1c.1.388.1.292.388.777a4.741,4.741,0,0,1,.29.679l.388.583,2.427,3.883h6.213l-5.047-7.67,4.562-7.183H66.628l-2.038,3.4-.68,1.261a3.89,3.89,0,0,0-.679,1.456h-.1v-.195a14.437,14.437,0,0,0,.1-2.233V47.471H57.988V62.323Z" transform="translate(-28.478 -23.398)" fill-rule="evenodd"/>
      <path id="Path_237" data-name="Path 237" d="M85.108,62.324H95.3V58.246H90.35V56.791h4.271V52.907H90.35V51.549h4.757V47.472h-10Z" transform="translate(-39.97 -23.398)" fill-rule="evenodd"/>
      <path id="Path_238" data-name="Path 238" d="M35.585,91.465h5.242v-4.95h3.3v4.95H49.37V76.613H44.128V81.66h-3.3V76.613H35.585Z" transform="translate(-18.986 -35.746)" fill-rule="evenodd"/>
      <path id="Path_239" data-name="Path 239" d="M61.526,76.613v9.415A5.7,5.7,0,0,0,63.273,90.2a8.609,8.609,0,0,0,5.242,1.455c4.271,0,6.795-2.232,6.795-6.018V76.613H69.971v8.542c0,1.359-.485,1.845-1.553,1.845-.971,0-1.553-.583-1.553-1.845V76.613Z" transform="translate(-29.978 -35.746)" fill-rule="evenodd"/>
      <path id="Path_240" data-name="Path 240" d="M94.946,82.514v3.495h2.33a2.1,2.1,0,0,1-2.136,1.358c-1.65,0-2.816-1.358-2.816-3.3a3.128,3.128,0,0,1,3.01-3.4,2.247,2.247,0,0,1,2.135,1.165l5.048-1.941a6.231,6.231,0,0,0-1.844-2.135,9.55,9.55,0,0,0-5.533-1.65c-4.951,0-8.349,3.107-8.349,7.765,0,4.563,3.4,7.67,8.251,7.67a8.632,8.632,0,0,0,6.5-2.815c1.359-1.456,1.747-3.01,1.747-6.213Z" transform="translate(-40.683 -35.531)" fill-rule="evenodd"/>
      <path id="Path_241" data-name="Path 241" d="M116.944,91.465h5.145v-4.95h3.3v4.95h5.241V76.613H125.39V81.66h-3.3V76.613h-5.145Z" transform="translate(-53.459 -35.746)" fill-rule="evenodd"/>
      <path id="Path_242" data-name="Path 242" d="M142.717,91.465h10.289V87.388h-4.854V85.931h4.078V82.048h-4.078V80.69h4.659V76.613H142.717Z" transform="translate(-64.38 -35.746)" fill-rule="evenodd"/>
      <path id="Path_243" data-name="Path 243" d="M161.414,90.11a12.911,12.911,0,0,0,5.824,1.456c3.883,0,6.6-2.233,6.6-5.437,0-2.232-1.359-3.688-3.786-4.27l-1.747-.388c-.583-.1-.874-.292-.874-.68,0-.485.486-.777,1.165-.777a5.223,5.223,0,0,1,3.2,1.165l1.456-3.883a8.361,8.361,0,0,0-4.659-1.358c-3.786,0-6.6,2.33-6.6,5.533a3.992,3.992,0,0,0,3.689,3.98l1.552.29c.68.195.971.388.971.875s-.485.874-1.261.874a5.625,5.625,0,0,1-3.2-1.165l-.583-.388-1.747,4.173Z" transform="translate(-72.302 -35.46)" fill-rule="evenodd"/>
      <path id="Path_244" data-name="Path 244" d="M103.971,22.036c-6.989,3.786-11.746,8.154-13.978,11.94h14.464a62.763,62.763,0,0,1-.486-11.94Z" transform="translate(-42.04 -12.62)" fill="#0067a6" fill-rule="evenodd"/>
      <path id="Path_245" data-name="Path 245" d="M133.19,10.75a72.624,72.624,0,0,0-14.561,5.242,64.491,64.491,0,0,0,1.456,13.2h15.823A87.388,87.388,0,0,1,133.19,10.75Z" transform="translate(-54.173 -7.838)" fill="#0067a6" fill-rule="evenodd"/>
      <path id="Path_246" data-name="Path 246" d="M167.884,27.053H152.158a72.077,72.077,0,0,1-3.882-19.026A92.631,92.631,0,0,1,167.787,5.7l.1,21.356Z" transform="translate(-66.735 -5.697)" fill="#0067a6" fill-rule="evenodd"/>
      <path id="Path_247" data-name="Path 247" d="M133.19,5.795a65.279,65.279,0,0,0-14.561,4.951c.1-1.554.1-3.107.291-5.048h14.27v.1Z" transform="translate(-54.173 -5.697)" fill="#0067a6" fill-rule="evenodd"/>
      <path id="Path_248" data-name="Path 248" d="M86.119,27.053A53.435,53.435,0,0,1,93.593,5.7h9.513c-.194,2.427-.485,4.465-.583,6.406-10.1,5.533-14.463,12.231-16.017,14.949h-.388Z" transform="translate(-40.398 -5.697)" fill="#0067a6" fill-rule="evenodd"/>
      <path id="Path_249" data-name="Path 249" d="M83.9,5.7H66.916V27.053h9.61A53.316,53.316,0,0,1,83.9,5.7Z" transform="translate(-32.261 -5.697)" fill="#0067a6" fill-rule="evenodd"/>
      <path id="Path_250" data-name="Path 250" d="M34.457,60.479h4.077l.485,1.845h5.727L39.408,47.472H33.487L28.342,62.324h5.727l.388-1.845Zm.971-3.495S36.4,53.1,36.5,52.423h.1c0,.68.971,4.562.971,4.562Z" transform="translate(-15.917 -23.398)" fill-rule="evenodd"/>
      <path id="Path_251" data-name="Path 251" d="M110.058,54.073V51.452h.971a1.285,1.285,0,0,1,1.262,1.262,1.353,1.353,0,0,1-1.456,1.358h-.777Zm-5.242,8.251h5.242V57.567l.1-.1c.1.195.1.292.194.486l2.135,4.368H118.7L115.009,56.6a3.356,3.356,0,0,0,1.65-1.261,4.155,4.155,0,0,0,.874-2.718,4.808,4.808,0,0,0-2.427-4.368,6.372,6.372,0,0,0-3.591-.777h-6.7V62.324Z" transform="translate(-48.32 -23.398)" fill-rule="evenodd"/>
      <path id="Path_252" data-name="Path 252" d="M11.732,53.2V50.966h.874c.971,0,1.359.388,1.359,1.068S13.479,53.2,12.605,53.2h-.874Zm0,5.63V56.305h1.261c.971,0,1.553.485,1.553,1.261s-.582,1.261-1.65,1.261H11.732ZM6.781,47.472V62.323h7.572a5.682,5.682,0,0,0,4.174-1.456,4.172,4.172,0,0,0,1.068-2.718,3.39,3.39,0,0,0-.776-2.135,4.135,4.135,0,0,0-1.845-1.359h0a3.993,3.993,0,0,0,1.165-.874,3.581,3.581,0,0,0,.679-2.233,3.8,3.8,0,0,0-.874-2.524c-.777-1.068-2.427-1.553-4.659-1.553h-6.5Z" transform="translate(-6.781 -23.398)" fill-rule="evenodd"/>
    </g>
  </g>
</svg>
