<svg xmlns="http://www.w3.org/2000/svg" width="234.409" height="42.601" viewBox="0 0 234.409 42.601">
  <g id="Deutsche_Bank" transform="translate(217.318 -280.729)">
    <g id="g2901" transform="translate(-217.318 280.729)">
      <path id="path2677" d="M-216.941,376.319h-5.692V359.027h5.692c6.022,0,9.25,2.942,9.25,8.634C-207.691,373.3-210.372,376.319-216.941,376.319Zm-.412-14.661h-1.866v12.03h1.825c4.7.1,6.218-2.2,6.218-6,0-4.186-2.176-6.027-6.177-6.027" transform="translate(222.633 -334.124)" fill="#1c62b7"/>
      <path id="path2679" d="M-162.9,380.639c.093-1.579.866-3.038,2.65-3.038,1.732,0,2.588,1.291,2.516,3.038Zm2.753-5.07c-4.548,0-6.125,3.229-6.125,6.265,0,3.612,1.815,6.314,5.692,6.434,3.083.025,5.816-.908,6-4.28h-3.155a2.266,2.266,0,0,1-2.392,2.248c-2.176,0-2.867-1.6-2.9-3.564l8.714-.024c.258-3.588-1.3-7.079-5.837-7.079" transform="translate(183.06 -345.738)" fill="#1c62b7"/>
      <path id="path2681" d="M-106.262,388.947h-3.259l-.021-1.961c-.547,1.554-2.062,2.344-3.918,2.344-2.207,0-4.29-1.34-4.31-4.544v-7.773h3.3v7.318c-.021,1.722.65,2.679,2.269,2.7,1.464,0,2.66-.837,2.66-3.156v-6.865h3.279v11.935" transform="translate(149.005 -346.752)" fill="#1c62b7"/>
      <path id="path2683" d="M-70.969,368.774v-1.89l3.186-1.674v3.564h3.042v2.319h-3.042v5.764c0,1.171.4,1.842,1.6,1.889a4.649,4.649,0,0,0,1.464-.12v2.057c-1.557.215-3.351.622-4.836-.168-1.124-.6-1.413-1.65-1.413-3.323v-6.1h-2.557v-2.319h2.557" transform="translate(117.94 -338.465)" fill="#1c62b7"/>
      <path id="path2685" d="M-27.329,382.847a3.49,3.49,0,0,1-.144,3.4c-1.124,1.721-3.568,2.152-5.455,2.1-2.681-.168-5.063-.861-4.95-4.066h3.259c-.031,1.387.835,1.889,2.073,1.937,1.2,0,2.392-.406,2.392-1.507,0-.885-.835-1.267-1.908-1.507a17.964,17.964,0,0,1-3.475-.933,3.337,3.337,0,0,1-2.176-3.084,3.47,3.47,0,0,1,2.5-3.014,8.274,8.274,0,0,1,3.135-.526c2.269,0,4.733.789,4.589,3.659h-3.063a1.476,1.476,0,0,0-.454-1.2c-.67-.6-2.733-.67-3.372.31-.722,1.675,1.506,1.794,3.97,2.464a4.248,4.248,0,0,1,3.083,1.961" transform="translate(92.912 -345.794)" fill="#1c62b7"/>
      <path id="path2687" d="M10.663,375.485c2.609,0,5.311,1.2,5.311,4.473l-3.207-.025a2.132,2.132,0,0,0-2.413-2.391,2.942,2.942,0,0,0-1.2.359c-.99.574-1.3,2.177-1.3,3.779,0,1.7.412,3.348,1.155,3.945a2.537,2.537,0,0,0,2.145.478c1.268-.215,1.65-1.459,1.681-2.535l3.135-.024c.041,3.419-2.753,4.711-5.672,4.663-3.9-.143-5.692-2.678-5.692-6.434,0-3.8,2.176-6.29,6.053-6.29" transform="translate(63.077 -345.68)" fill="#1c62b7"/>
      <path id="path2689" d="M51.242,359.107h3.3v7.222a4.117,4.117,0,0,1,3.9-2.2,4.164,4.164,0,0,1,4.29,4.017v8.228H59.471v-7.319c0-1.626-.691-2.7-2.248-2.7-1.454,0-2.7.956-2.7,3.156v6.865H51.242V359.107" transform="translate(30.335 -334.18)" fill="#1c62b7"/>
      <path id="path2691" d="M101.766,380.639c.093-1.579.856-3.038,2.65-3.038,1.722,0,2.588,1.291,2.516,3.038Zm2.753-5.07c-4.548,0-6.125,3.229-6.125,6.265,0,3.612,1.815,6.314,5.692,6.434,3.083.025,5.816-.908,6-4.28h-3.155a2.267,2.267,0,0,1-2.392,2.248c-2.176,0-2.867-1.6-2.9-3.564l8.714-.024c.258-3.588-1.3-7.079-5.837-7.079" transform="translate(-2.772 -345.738)" fill="#1c62b7"/>
      <path id="path2693" d="M182.452,375.929a13.985,13.985,0,0,1-4.1.5H172.1V359.186h6.651c2.97,0,6.074.933,6.2,4.258a4.1,4.1,0,0,1-3.155,4.041,4.652,4.652,0,0,1,3.269,2.057,4.489,4.489,0,0,1,.175,3.946A4.559,4.559,0,0,1,182.452,375.929Zm-3.7-14.159h-3.372v4.472H178.8c1.794,0,2.722-.741,2.722-2.2C181.524,362.678,180.451,361.77,178.75,361.77Zm.34,7.055-3.712-.024v5.07h3.589c2.392,0,3.155-1.172,3.155-2.631,0-1.124-.815-2.44-3.032-2.416" transform="translate(-54.523 -334.236)" fill="#1c62b7"/>
      <path id="path2695" d="M229.665,386.378c-1.217-.1-1.939-.694-1.939-1.842.021-2.511,3.207-2.248,4.857-2.248C232.655,384.273,232.49,386.33,229.665,386.378Zm6.053-6.936c0-2.44-2.63-3.66-5.672-3.636-2.9.048-5,.981-5.042,3.779h3.176a1.814,1.814,0,0,1,1.99-1.985c1.763,0,2.557.813,2.392,2.822-1.753.095-4.094-.025-5.837.789a3.7,3.7,0,0,0-2.248,3.515c0,2.3,1.6,3.683,3.939,3.756a4.33,4.33,0,0,0,4.331-2.128l.124,1.746h2.846v-8.658" transform="translate(-91.3 -345.905)" fill="#1c62b7"/>
      <path id="path2697" d="M272.876,376.28h3.3v1.914a4.55,4.55,0,0,1,4.218-2.224,3.762,3.762,0,0,1,4.011,4.018v8.228h-3.3V380.9c.021-1.554-.742-2.7-2.248-2.7-1.485,0-2.7.956-2.7,3.156v6.865h-3.279V376.28" transform="translate(-125.282 -346.02)" fill="#1c62b7"/>
      <path id="path2699" d="M330.641,376.375l-5.022-6.841,4.548-5.094h3.877l-4.712,4.974,5.548,6.961Zm-8.363-17.268h3.248v17.268h-3.248Z" transform="translate(-159.969 -334.18)" fill="#1c62b7"/>
      <path id="path2701" d="M423.332,275.421h42v42.17h-42Zm25.522,9.988-16.406,22.019h7.414l16.468-22.019Zm-19.675,26.342h30.307V281.263H429.179Z" transform="translate(-230.923 -275.421)" fill="#1c62b7"/>
    </g>
  </g>
</svg>
