<svg xmlns="http://www.w3.org/2000/svg" width="127.617" height="61.353" viewBox="0 0 127.617 61.353">
  <g id="Gazprom" transform="translate(-15.56 -411.714)">
    <g id="g2058" transform="translate(15.56 411.714)">
      <path id="path26" d="M218.566,618.424h8.1v2.646h-3.853v18.594h-4.246v-21.24" transform="translate(-179.15 -578.311)" fill="#0079c2"/>
      <path id="path28" d="M266.966,631.691l.728-10.62h.244l.728,10.62Zm-4.7,7.974h4.158l.393-5.641h2l.4,5.641h4.156l-2.215-21.24h-6.675l-2.215,21.24" transform="translate(-214.648 -578.311)" fill="#0079c2"/>
      <path id="path30" d="M335.467,632.231v4a.652.652,0,0,0,.662.7.683.683,0,0,0,.679-.7v-4.944c0-.662-.122-1.393-1.706-1.393h-1.724v-2.333h1.793c1.2,0,1.637-.279,1.637-1.584v-4.213a.683.683,0,0,0-.679-.7.641.641,0,0,0-.662.7v3.465h-4.248V622.22c0-1.48.174-3.8,3.151-3.8h3.517c2.977,0,3.169,2.316,3.169,3.8v3.395a2.619,2.619,0,0,1-2.89,2.89v.209a2.528,2.528,0,0,1,2.89,2.873v4.283c0,1.5-.192,3.8-3.169,3.8H334.37c-2.977,0-3.151-2.3-3.151-3.8v-3.639h4.248" transform="translate(-270.666 -578.311)" fill="#0079c2"/>
      <path id="path32" d="M398.495,618.424h9.837v21.24h-4.248V621.071h-1.341v18.594h-4.248v-21.24" transform="translate(-325.32 -578.311)" fill="#0079c2"/>
      <path id="path34" d="M470.019,630.107v-9.036h.557c.453,0,.783.383.783,1.062v6.912c0,.679-.331,1.062-.783,1.062Zm-4.248,9.558h4.248V632.44h2.437c2.96,0,3.151-2.3,3.151-3.8V622.22c0-1.48-.192-3.8-3.151-3.8h-6.686v21.24" transform="translate(-379.974 -578.311)" fill="#0079c2"/>
      <path id="path36" d="M538.636,636.235a.683.683,0,0,1-.679.7.652.652,0,0,1-.662-.7V621.767a.641.641,0,0,1,.662-.7.683.683,0,0,1,.679.7Zm-5.589-.366c0,1.5.191,3.8,3.151,3.8h3.534c2.96,0,3.151-2.3,3.151-3.8V622.22c0-1.48-.192-3.8-3.151-3.8H536.2c-2.96,0-3.151,2.316-3.151,3.8v13.65" transform="translate(-434.627 -578.311)" fill="#0079c2"/>
      <path id="path38" d="M611.361,618.424H616.9v21.24H612.65V626.346h-.157L610.3,639.665H606.9l-2.176-13.319h-.157v13.319h-4.248v-21.24h5.519l2.768,14.938,2.751-14.938" transform="translate(-489.281 -578.311)" fill="#0079c2"/>
      <path id="path40" d="M141.42,415.7a35.787,35.787,0,0,0-5.009-11.073,38.578,38.578,0,0,0-4.631,9.68,35.094,35.094,0,0,0-1.158,13.963,38.737,38.737,0,0,0,2.363,8.966,31.765,31.765,0,0,0,3.447,6.181,33.565,33.565,0,0,0,5.7-14.52A32.868,32.868,0,0,0,141.42,415.7Zm-5.009,26.289a15.479,15.479,0,0,1-1.725-7.034,14.774,14.774,0,0,1,1.746-6.964,15.884,15.884,0,0,1,1.678,6.668A14.984,14.984,0,0,1,136.411,441.988Zm4.631-16.627a31.194,31.194,0,0,1-.639,5.85,36.362,36.362,0,0,0-.709-8.3,35.959,35.959,0,0,0-3.308-8.949,35.856,35.856,0,0,0-3.261,8.931,41.9,41.9,0,0,0-.756,8.392,41.6,41.6,0,0,1-.545-8.131,36.2,36.2,0,0,1,1.182-7.382,39.634,39.634,0,0,1,3.379-8.1,36.5,36.5,0,0,1,3.426,7.991,35.486,35.486,0,0,1,1.229,9.7" transform="translate(-107.508 -404.626)" fill="#0079c2"/>
      <path id="path42" d="M39.588,526.606H29.7v6.633c.009,0,.016-.017.024-.017a5.963,5.963,0,1,1,8.439,8.427c-.01.017-.021.017-.031.035h0c-.012,0-.024.017-.035.035a11.918,11.918,0,0,1-18.284-15.112,12.062,12.062,0,0,1,1.461-1.776,11.843,11.843,0,0,1,8.427-3.482V505.4a21.214,21.214,0,1,0,15.488,35.708v-14.5h-5.6" transform="translate(-8.479 -486.493)" fill="#0079c2"/>
    </g>
  </g>
</svg>
