<svg xmlns="http://www.w3.org/2000/svg" width="120.4" height="28.767" viewBox="0 0 120.4 28.767">
  <g id="hotpoint" transform="translate(0.285 0.285)">
    <g id="Layer_1" data-name="Layer 1" transform="translate(0 0)">
      <path id="Path_317" data-name="Path 317" d="M.28.28H120.111v28.2H.28V.28Z" transform="translate(-0.28 -0.28)" fill="#231f20" stroke="#231f20" stroke-miterlimit="22.93" stroke-width="0.57" fill-rule="evenodd"/>
      <path id="Path_318" data-name="Path 318" d="M24.986,23.484v-.148a2.643,2.643,0,0,1,2.564-2.463,2.6,2.6,0,0,1,2.611,2.564v.293A2.618,2.618,0,0,1,27.8,26.048h-.445a2.579,2.579,0,0,1-2.365-2.564Zm-5.566-3.1v13.7A1.381,1.381,0,0,0,20.7,35.4H34.447a1.406,1.406,0,0,0,1.28-1.429v-13.5A1.429,1.429,0,0,0,34.151,19.1h-13.4A1.416,1.416,0,0,0,19.42,20.38Zm25.961,7.982H51.54l.047,5.469c0,.546.571.836,1.135.836h.246a1.092,1.092,0,0,0,1.132-.984V20.961c0-.779-.47-1.135-1.23-1.135-1.454,0-1.331.987-1.331,2.416v3.766l-6.159.05V20.775c0-.609-.6-.946-1.23-.946-.546,0-1.28.347-1.28.839V33.683a.968.968,0,0,0,1.082.984H44.2c1.448,0,1.183-1.183,1.183-2.561V28.362Zm35.173-2.069c0-.243,1.088-.3,1.381-.3h1.328c1.892,0,2.564,1.375,2.564,3.3v.2c0,2.047-.766,3.3-2.81,3.3H81.936c-.315,0-1.381-.028-1.381-.293Zm1.971,8.471c3.617,0,5.863-1.694,5.863-5.27V29.16a4.846,4.846,0,0,0-5.125-5.223h-.631c-2.022,0-4.579.132-4.579,2.119V38.306c0,.546.631.836,1.23.836h.05c.631,0,1.23-.315,1.23-.946V34.522l1.917.287.054-.041Zm10.092-4.973V28.706c0-1.687.88-3.005,2.561-3.005h.691c2.078,0,2.662,1.5,2.662,3.6v.1a4.379,4.379,0,0,1-.606,2.548,2.107,2.107,0,0,1-.858.719,4.009,4.009,0,0,1-1.337.24,2.927,2.927,0,0,1-2.362-.71A3.57,3.57,0,0,1,92.617,29.791ZM90.094,29.1v.59c0,3.387,2.05,5.223,5.465,5.223,3.658,0,5.468-1.962,5.468-5.617V28.9a5.88,5.88,0,0,0-1.441-3.879,5.554,5.554,0,0,0-4.027-1.34C92.008,23.682,90.094,25.559,90.094,29.1Zm-31.221.631V28.9c0-1.873.817-3.2,2.709-3.2h.691c1.646,0,2.523,1.3,2.523,2.955v1.381a2.684,2.684,0,0,1-2.958,2.9c-2.053,0-2.955-1.167-2.955-3.2Zm-2.523-.839v.5c0,3.557,1.892,5.516,5.465,5.516h.148c3.441,0,5.32-1.965,5.32-5.418V28.8c0-3.188-2.04-5.122-5.27-5.122h-.148a5.464,5.464,0,0,0-4.027,1.34A5.434,5.434,0,0,0,56.35,28.9Zm53.515,5.774c1.132,0,1.233-.58,1.233-1.675V30.084c0-2.119-.448-4.037,1.725-4.037H114.3c2.261,0,1.823,1.892,1.823,4.1V33.1c0,1.173.148,1.577,1.331,1.577h.1c.457,0,1.085-.341,1.085-.788V27.375a3.614,3.614,0,0,0-1.17-2.63,4.93,4.93,0,0,0-2.92-.823h-2.069c-2.677.006-3.939,1.435-3.939,4.144v5.566c0,.7.527,1.034,1.23,1.034ZM72.181,31.513l-.05-5.506H75.48c.4-.035.593-.448.593-.886v-.148a.8.8,0,0,0-.788-.839H72.131V21.118c0-.631-.533-.946-1.183-.946h-.1c-.672,0-1.233.341-1.233,1.034v10.7c0,1.977,1.656,2.81,3.7,2.81H75.48a.795.795,0,0,0,.788-.839V33.73c0-2.167-4.1.4-4.1-2.208Zm51.626-.047c-.139-.218-.05-3.784-.05-4.387,0-1.337-.224-1.082,1.135-1.082H127.1c.391-.032.593-.407.593-.839V25.01a.766.766,0,0,0-.549-.836l-3.337-.06-.05-3.1c0-.571-.577-.836-1.183-.836h-.145a1.07,1.07,0,0,0-1.183,1.082V31.513c0,2.3,1.394,3.2,3.693,3.2h2.119a.754.754,0,0,0,.836-.788v-.353c0-1.034-1.334-.722-2.365-.735s-1.722-.344-1.722-1.381Zm-20.5,2.018a1.056,1.056,0,0,0,1.034,1.183h.492c.454,0,1.034-.407,1.034-.836V24.865a1,1,0,0,0-1.034-.946h-.344a1.063,1.063,0,0,0-1.183,1.132Zm-.3-12.709a1.637,1.637,0,0,0,1.577,1.627,1.6,1.6,0,0,0,1.577-1.429v-.347a1.584,1.584,0,0,0-1.627-1.429,1.643,1.643,0,0,0-1.526,1.577ZM123.8,31.466V26.048l3.305-.041H124.9c-1.359,0-1.135-.255-1.135,1.082,0,.6-.088,4.169.05,4.387ZM51.54,26.007H45.432l-.05-5.223v5.264Zm20.641,5.516V26.048l3.3-.041H72.131Zm51.626-7.408,3.349.05-3.349-.05-.05-3.1ZM51.54,28.362l.047,5.469-.047-5.469Z" transform="translate(-13.384 -13.165)" fill="#fff" fill-rule="evenodd"/>
    </g>
  </g>
</svg>
