<svg id="indesit" xmlns="http://www.w3.org/2000/svg" width="130.054" height="30.107" viewBox="0 0 130.054 30.107">
  <g id="Layer_1" data-name="Layer 1" transform="translate(0 0)">
    <path id="Path_277" data-name="Path 277" d="M60.231,11.418h8.555c3.475,0,6.311,2.2,6.311,5.664V28.369H71.441V17.249a2.648,2.648,0,0,0-2.474-2.321H63.928V28.369h-3.7Zm-6.811,0h3.656V28.369H53.42V11.418Zm25.138,0h7.367c3.746,0,7.374,3.065,7.374,8.472s-3.628,8.479-7.374,8.479H78.558Zm3.656,3.69h3.843c2.662.2,3.551,2.78,3.475,5.122-.132,2.085-1.063,4.128-3.343,4.42-1.314.1-2.683,0-4,0V15.108Zm26.882,13.2a16.979,16.979,0,0,1-5.032.6c-4.031,0-8.792-1.571-8.792-9.084,0-4.74,2.843-8.6,7.645-8.6,5.15,0,7.186,2.377,7.186,8.284v1.995H99.255c0,2.3,1.8,4.17,5.775,4.17a7.714,7.714,0,0,0,4.066-.959Zm-2.578-9.841h0c0-2.2-.876-4-3.677-4s-3.67,1.8-3.67,4h7.346Zm25.207-7.054h-3.663V28.369h3.663Zm14.595,0H133.81v3.433h4.434V28.369h3.663V14.851h4.441V11.418ZM118.715,14.33a11.961,11.961,0,0,1,5.5.827V11.939a20.718,20.718,0,0,0-5.06-.695c-4.3-.139-6.693,1.724-6.762,5.518-.049,2.634,1.39,4.733,5.511,4.983,2.509.153,3.739.883,3.663,2.12s-1.5,1.7-3.093,1.821a12.42,12.42,0,0,1-6.039-1.105v3.732a24.693,24.693,0,0,0,6.123.695c4.17,0,6.651-1.592,6.741-5.261.07-2.933-2.238-5.025-5.345-5.143-2.822-.1-3.885-.7-3.878-1.9a2.708,2.708,0,0,1,2.641-2.377Z" transform="translate(-16.293 -3.418)" fill="#231f20" fill-rule="evenodd"/>
    <path id="Path_278" data-name="Path 278" d="M20.232,4.049A2.022,2.022,0,1,0,18.8,3.454a2.029,2.029,0,0,0,1.433.595Zm1.307,4.907V23.245a1.286,1.286,0,1,1-2.571,0V8.955a1.286,1.286,0,1,1,2.571,0Z" transform="translate(-5.554 0.01)" fill="#f58220" fill-rule="evenodd"/>
    <path id="Path_279" data-name="Path 279" d="M8.625,6A12.058,12.058,0,1,0,20.732,6a1.293,1.293,0,1,1,1.286-2.231,14.678,14.678,0,1,1-14.678,0A1.293,1.293,0,1,1,8.625,6Z" transform="translate(0 -1.07)" fill="#231f20" fill-rule="evenodd"/>
  </g>
</svg>
