<svg xmlns="http://www.w3.org/2000/svg" width="175.741" height="58.569" viewBox="0 0 175.741 58.569">
  <g id="ingosstrax" transform="translate(0 -0.003)">
    <g id="Слой_1" data-name="Слой 1">
      <path id="Path_206" data-name="Path 206" d="M17.71,9.21h6.84V11.8H23.24v5.79h4.83V11.8H26.79V9.21H33.6V11.8H32.32V26.09H33.6v2.59H26.79V26.09h1.28V19.7H23.24v6.39h1.31v2.59H17.71V26.09H19V11.8H17.71ZM119,9.21h-8.3V11.8H112V26.09h-1.3v2.59h6.81V26.09h-1.28V21.52H119c3.58,0,5.5-3.2,5.5-6.33s-2-6-5.59-6Zm-2.72,2.62h1a3.21,3.21,0,0,1,3.2,3.2v.83a3.18,3.18,0,0,1-3.14,3.23h-1V11.83Zm-7-2.62H95.52v5.41h2a4.09,4.09,0,0,1,2.68-3.17V26.09H98.87v2.59h6.78V26.09h-1.28V11.39a4.09,4.09,0,0,1,2.88,3.23h2V9.21ZM88,8.61a9.2,9.2,0,0,1,6,2.2v3.81H92c-.68-2.08-1.32-3.46-3.62-3.46-2.11,0-4.09,3.52-4.09,7.8s2,7.8,4.16,7.8c1.6,0,3.64-2,4.22-4.89H94v5.24a9.15,9.15,0,0,1-6,2.21c-4.38,0-8-4.63-8-10.32S83.62,8.61,88,8.61Zm-15,0a9.34,9.34,0,0,1,6,2.2v3.81H77c-.7-2.08-1.34-3.46-3.64-3.46-2.11,0-4.09,3.52-4.09,7.8s2,7.8,4.15,7.8c1.63,0,3.65-2,4.22-4.89H79v5.24a9.3,9.3,0,0,1-6,2.21c-4.4,0-8-4.63-8-10.32S68.6,8.61,73,8.61Zm-17.35,0c4.44,0,8.05,4.63,8.05,10.35s-3.61,10.36-8.05,10.36S47.63,24.69,47.63,19,51.24,8.61,55.69,8.61Zm0,2.55c-2.11,0-3.84,3.52-3.84,7.8s1.73,7.8,3.84,7.8,3.83-3.51,3.83-7.8-1.72-7.8-3.83-7.8Zm96.44.64H151l-3.2,5.63,4.38,8.66h1.44v2.59h-6.81V26.09h1l-2.33-4.57-2.59,4.57h.7v2.59h-3.83V26.09h.8l3.83-6.74-3.83-7.55H139V9.21h6.81V11.8h-.86l1.75,3.45,1.95-3.45h-.35V9.21h3.84V11.8Zm-23.78,8.83h3.1L129.88,15l-1.53,5.6ZM132,22.74h-4.28l-.93,3.35h.7v2.59h-4.18V26.09h1l4-14.29h-.42V9.21h4.9V10h.15l4.48,16.11h.77V28.7h-5.92V26.09H133ZM40.89,11.8V26.09h1.85v2.59H35.35V26.09h1.32V11.8H35.35V9.21H47v5.44H45.1c0-2-1.11-2.85-2.39-2.85ZM5.53,22.8,10.29,9.21H16V11.8H14.64V26.09H16v2.59H9.11V26.09h1.31V15.25L5.72,28.68H0V26.09H1.31V11.8H0V9.21H6.84V11.8H5.53v11Z" fill="#2e3192" fill-rule="evenodd"/>
      <path id="Path_207" data-name="Path 207" d="M51.82,42.49s3.93-.8,4.25-.19c.22.38-.7,1.63-1.85,3.2s-2.66,3.61-3,4.18h2.56a74.558,74.558,0,0,1,6.14-6.55c1.24-1.22,2.14-1.18.92.38S58,46.71,58.5,49s4.38-.83,6-1.79,2.71-1.6,2.71-1.6-1.24,3.36.93,4.06,3.87-1.34,3.77-1.15l-.7,1.21s-5.56,2.5-7.51,5.82,1.88,3.87,4.06,1.82a39.121,39.121,0,0,0,4.89-6.49,52.889,52.889,0,0,1,4.25-3.26l3.8-2.3s-1.08,2.85.77,4.06,4.8-.8,5.63-1.76,8.72-5.49,8.72-5.49A7.3,7.3,0,0,1,95.87,45s-4.41,1.54-4.54,3.3,1.5,1.85,3.36,1.31c3.19-1,2.42-4,2.68-4.16L104.59,42s.07.9.07,1.7a11.782,11.782,0,0,1-.07,1.37s-4.79,1.34-4.44,3.39,3.07,1.28,4.22.67a3.28,3.28,0,0,0,1.7-2.3,6.58,6.58,0,0,0,.15-1.28L113.61,42a38.85,38.85,0,0,0-3.26,4.95c-.74,1.63.25,3.93,3,2.3s6-4,7.67-5.24c.67-.48,1.31-1,1.88-1.34.93-.48,1.54-.51.74.57-1.38,1.76-5,6.68-5,6.68l2.85-.06s1.88-2.49,2.49-3.2a9.8,9.8,0,0,1,1.37-1.21s-.48,1.76,1.22,1.85,5.21-2.39,5.21-2.39a3.6,3.6,0,0,0,0,3.8c1.21,2.11,3.8.29,4.35-.19a4.53,4.53,0,0,0,.73-.77s-.73,3.87,3.52,1.15,6.78-4.6,6.78-4.6l-3.71,5.43h2.24l2.3-3.19a2.64,2.64,0,0,0,1.34,2.78c1.69.83,4.63-1,7.38-2.66a33.788,33.788,0,0,1,4.35-2.3l-3.87,5.31h2.47a50.11,50.11,0,0,1,3.58-4.28c1.88-2,4.82-4.19,3.67-2.18s-2.68,2-2.62,4.67,2.27,2.27,4.16.42,3-3.11,3-3.11l-1.44.13a36.138,36.138,0,0,1-2.59,2.53c-.71.53-2.42,1.15-1.23-.53s1.92-2,2.43-2.94.64-3.68-1.66-3.07A8.65,8.65,0,0,0,164.31,43l.73-1.15s5.92-3.29,8.54-6.39,3.2-5.27-.19-4.73-7.87,6.17-9.5,8.76-1.88,3-1.88,3L152.35,48c-2,1.15-2.33-.64-2.3-1.76,1.22-.22,2.72-.06,4.35-1.82a2.32,2.32,0,0,0-.26-3.52,2.07,2.07,0,0,0-.76-.32s4.89-3.19,7-5.69,2.84-5.08-1-4.15-8.21,6.94-9.49,9.17a14.849,14.849,0,0,1-1.63,2.56s-7.51,5-8.19,5.43-2.17,1.22-1-.76,3.74-5.88,3.74-5.88h-2.33l-.67,1s-.87-2.24-3.81-.9a13.46,13.46,0,0,0-3.29,1.83s-2.84,1.56-4,2.23S126,47,126.4,45.21c.25-1.06,2.2-1.79,3-2.59a.79.79,0,0,0-.57-1.38c-1.67-.16-2.63,1.47-3,2.82l-1,.51c-.35.16,1.92-3.23-.51-3.33-1.35-.06-2.91,1.22-4.67,2.47-2.21,1.5-4.38,3.06-5.88,4.09,0,0-1.35,1.15-1.76.73s1.34-2.91,2.65-4.82,2.56-3.42,2.56-3.42l7.86-3.75-.19-.41L120,36l3.8-5.3h-2.71l-3.46,5.08L90.66,36v1.92l25.73-.13L114.63,40,106,44.47,105.81,42s1.44,0,1.18-1.12-.86-1-2-.48-7.83,4-7.83,4L97,42s1.53-.06,1.21-1.15-1-1-2.39-.1-7.42,4.51-7.42,4.51,1.34-2.56-.61-3.8-4.6.61-5.62,1.44-8,5.4-8,5.4l4.19-7H76l-.74,1.09s-.29-1.83-3-1.09a9.38,9.38,0,0,0-4.13,2.24L61.6,47.92c-1,.68-2.49,1.06-1.15-.73.77-1,1.85-2.53,2.27-3.13s.67-2.66-1-2.62S59,43,57.57,44.25c-.22.19,1.25-2.65-.57-3s-4.32.23-4.38.1,1.5-1.63,3.61-5a44.57,44.57,0,0,0,3.39-6.71,9.86,9.86,0,0,1-1.57.83,4.28,4.28,0,0,1-1.34.39,25.93,25.93,0,0,1-3.2,5.43,32.78,32.78,0,0,1-3.87,5s-4.66.19-7.12-2.91a11.48,11.48,0,0,1-2.63-6.52,12.27,12.27,0,0,1-.16-1.7l-1.21-.06s.16,5.56,2.91,8.6,7.32,3.55,7.32,3.55-5.15,6.61-12.31,6.61S28,43,28,43a8.32,8.32,0,0,0,4.48,1.09c2.56-.13,5-1.28,4.67-1.57s-2.85.22-5.63-.13A35.38,35.38,0,0,1,25.73,41s.93,5.85,5.47,8.21,10,1,13-.67a27.19,27.19,0,0,0,5.37-3.8c.86-.86,2.3-2.24,2.3-2.24Zm11.67-31.9c.67-4.25.35-7.64-2.18-8.09-4.35-.8-9,2.05-12.59,5.37H47C49.61,5.06,53.32,1.93,57.6.65c7.68-2.27,8.79,1.69,8.4,7.86l-2.46,2.08ZM165.75,40.25a49.611,49.611,0,0,1,3.64-4.31c1.22-1.31,2.53-2.59,3.29-2.62s-.06,1.53-2.71,3.77a38.342,38.342,0,0,1-4.22,3.16Zm-13.88,0a50.447,50.447,0,0,1,3.65-4.31c1.21-1.31,2.52-2.59,3.29-2.62s-.06,1.53-2.72,3.77A37.19,37.19,0,0,1,151.87,40.25Zm1,2c.44.22.51.8-.32,1.63s-2.75,1.34-3,1.05.1-.86.86-1.6,2-1.31,2.47-1.08Zm-48.43,3.9a3.74,3.74,0,0,1-1.35,2c-.76.58-1.85.45-1.43-.25s2.78-1.79,2.78-1.79Zm-8.76,0a3.69,3.69,0,0,1-1.38,2c-.76.58-1.88.45-1.44-.25s2.82-1.79,2.82-1.79ZM70.52,51.09s-2.24,4.19-3.93,5.66c-1.31,1.12-2.69.76-1.73-.8a11.82,11.82,0,0,1,3.42-3.42c.83-.55,2.24-1.44,2.24-1.44Zm47.34-12.18,1-1.34,2.43-.16-3.48,1.5Zm15.79,9.85c-1,0-.7-1.51.48-3.39s2.81-3.42,3.81-3.46.67,1.8-.58,3.65-2.75,3.16-3.71,3.2Zm-51,0c-1,0-.71-1.51.47-3.39S86,42,87,41.91s.67,1.8-.58,3.65-2.71,3.16-3.7,3.2Zm-13.43-.07c-1,0-.67-1.5.57-3.32S72.72,42,73.75,42s.6,1.79-.71,3.65-2.84,3-3.8,3Z" fill="#2e3192" fill-rule="evenodd"/>
    </g>
  </g>
</svg>
