<svg id="Kaspersky" xmlns="http://www.w3.org/2000/svg" width="150.535" height="32.769" viewBox="0 0 150.535 32.769">
  <path id="path2524" d="M177.576,38.208l-2.7-5.4-2.7,5.4ZM117.026,25.28l-5.4,2.7,5.4,2.7Zm-48.8,6.092,2.7,5.4,2.7-5.4ZM191.779,19.865a1.743,1.743,0,1,0,0,3.485,1.717,1.717,0,0,0,1.819-1.716,1.764,1.764,0,0,0-1.807-1.769Zm-7.443,5.523V23.277h4.491a2.743,2.743,0,0,1-.8-2.051,3.488,3.488,0,0,1,3.729-3.472,3.536,3.536,0,0,1,3.817,3.561,2.368,2.368,0,0,1-.992,2.05h.748v2.023Zm7.494,7.085a1.758,1.758,0,0,0,1.767-1.756,1.637,1.637,0,0,0-.788-1.477,1.947,1.947,0,0,0-.9-.292,1.825,1.825,0,0,0-.928.178,1.676,1.676,0,0,0-.979,1.6,1.742,1.742,0,0,0,1.817,1.743Zm3.5-5.637v2.113h-.763a2.345,2.345,0,0,1,1.007,2.086,3.78,3.78,0,0,1-7.546,0,2.383,2.383,0,0,1,.992-2.086h-.75V26.835ZM184.336,38.208V36.1h10.991v2.113H184.336" transform="translate(-45.036 -11.72)" fill="#d52b1e"/>
  <path id="path2526" d="M93.615,29.344l1.577,3.425c7.483-5.724,8.86-12.116,3.99-18.967-3.858-5.428.388-10.256,1.666-11.511L97.983,0C96.111,2.055,91.2,8.475,95.493,14.933,99.655,21.187,99.224,24.578,93.615,29.344Zm-58.135,0,1.577,3.425c7.483-5.724,8.86-12.116,3.988-18.967-3.857-5.428.388-10.256,1.666-11.511L39.847,0c-1.874,2.055-6.786,8.475-2.488,14.933C41.52,21.187,41.089,24.578,35.479,29.344Zm99.1-23.31-4.738,8.208L125.1,6.034h-3.857l8.6,14.893,8.6-14.893ZM57.3,7.194a9.988,9.988,0,0,0-5.208-1.16H47.26V26.488h3.86V9.893h.969c2.672,0,4.5.659,4.5,3.06,0,2.242-2.207,3.224-4.765,3.3-.078,0-.365,0-.556,0h0l2.564,3.663A9.623,9.623,0,0,0,57.194,18.7c.07-.045.139-.093.209-.139a6.623,6.623,0,0,0,3.05-5.613A6.39,6.39,0,0,0,57.3,7.194ZM87.853,18.565A6.625,6.625,0,0,0,90.9,12.953a6.388,6.388,0,0,0-3.158-5.759,9.974,9.974,0,0,0-5.206-1.16H77.708V26.488h3.86V9.893h.969c2.672,0,4.506.659,4.506,3.06,0,2.242-2.207,3.224-4.765,3.3-.081,0-.365,0-.556,0h0l7.161,10.228H93.4Zm26.073-2.305,7.161-10.226h-4.517L109.41,16.26l7.159,10.228h4.517Zm-4.67-10.226H105.4V26.488h3.858ZM8.53,16.26,15.691,6.034H11.175L4.014,16.26l7.161,10.228h4.516ZM3.86,6.034H0V26.488H3.86ZM74.732,9.893V6.034H62.578V26.488H74.732V22.629h-8.3V9.893Zm-38.939,16.6h-3.86L25.889,13.527,19.846,26.488H15.985l9.9-21.237,9.9,21.237" fill="#006d55"/>
</svg>
