<svg xmlns="http://www.w3.org/2000/svg" xmlns:xlink="http://www.w3.org/1999/xlink" width="239.078" height="38.507" viewBox="0 0 239.078 38.507">
  <defs>
    <clipPath id="clip-path">
      <path id="path216" d="M104.124-1195.753H322.33v-38.507H104.124v38.507Z" transform="translate(-104.124 1234.26)"/>
    </clipPath>
    <clipPath id="clip-path-2">
      <path id="path550" d="M104.124-1195.753H343.2v-38.507H104.124Z" transform="translate(-104.124 1234.26)"/>
    </clipPath>
  </defs>
  <g id="Metalloinvest" transform="translate(-171.14 -424.035)">
    <g id="g6138" transform="translate(171.14 424.035)">
      <g id="g46" transform="translate(6.157 14.442)">
        <path id="path52" d="M123.6-1213.7c-11.161.28-12.111,7.4-9.5,10.568h0a51.466,51.466,0,0,0,10.023,8.352h0a3.664,3.664,0,0,1-1.663-2.72h0c-.57-3.854,2.855-7.229,10.562-6.877h0c9.775.444,20.171,5.5,28.673,7.933h0c4.4,1.262,12.3,4.147,20.918-.505h0a28.986,28.986,0,0,0,5.775-4.857h0c-4.455,4.772-12.044,4.649-21.93,1.321h0c-5.029-1.69-15.134-6.126-20.484-8.118h0c-6.71-2.494-14.964-5.1-21.735-5.1h0c-.215,0-.426,0-.636.008" transform="translate(-112.888 1213.705)" fill="rgba(240,81,51,0.84)"/>
      </g>
      <g id="g72" transform="translate(6.113 12.791)">
        <path id="path78" d="M112.9-1206.731c-.338-3.36,2.273-7.453,10.683-7.665h0c6.883-.172,15.449,2.521,22.371,5.1h0c5.35,1.992,15.456,6.428,20.484,8.118h0c9.779,3.293,17.309,3.445,21.786-1.167h0c.23-.234.615-.681.838-.941h0c-4.306,4.4-10.8,4.9-21.407,1.294h0c-5.117-1.74-13.075-5.676-21.1-8.722h0c-7.163-2.72-15.066-5.336-21.825-5.336h0c-9.135,0-12.455,4.782-11.832,9.323" transform="translate(-112.825 1216.054)" fill="#f05133"/>
      </g>
      <g id="g210" transform="translate(0 0)">
        <g id="g212" clip-path="url(#clip-path)">
          <g id="g218" transform="translate(24.425 32.076)">
            <path id="path220" d="M0-1.23c-.021,1.2,1.406,2.467,3.974,2.921C7.941,2.395,14.06,1.04,15.8.635L22.175-.838,15.852-2.55C14.131-3.014,8.064-4.58,4.075-4.013,1.495-3.646.021-2.427,0-1.23" transform="translate(0 4.135)" fill="#f05133"/>
          </g>
        </g>
      </g>
      <g id="g222" transform="translate(0 0)">
        <g id="g224" clip-path="url(#clip-path-2)">
          <g id="g230" transform="translate(62.633 14.861)">
            <path id="path232" d="M-6.312,0C-12.344,0-19.6,3.676-21.222,4.394c1.546.716,9.113,4.621,15.018,4.621C-1.816,9.014,1.057,7,1.057,4.5S-2,0-6.312,0" transform="translate(21.222)" fill="#f05133"/>
          </g>
        </g>
      </g>
      <g id="g544" transform="translate(0 0)">
        <g id="g546" clip-path="url(#clip-path-2)">
          <g id="g552" transform="translate(98.407 6.847)">
            <path id="path554" d="M-6.525-.343c-1.424.078-1.582.5-1.5,1.5l.792,9.024c.1,1.146.277,1.524,1.386,1.563v.79h-5.264v-.79c1.366-.039,1.466-.417,1.385-1.425l-.554-6.786c-.039-.575-.061-1.485-.061-1.98V1.14h-.1a19.95,19.95,0,0,1-.473,2.215l-2.691,9.181h-1.544l-2.729-8.7a22.339,22.339,0,0,1-.594-2.712h-.12c0,.4-.059,1.564-.119,2.672l-.374,6.508c-.061,1.03,0,1.425,1.364,1.447v.79h-4.214v-.79c1.128-.039,1.326-.375,1.4-1.563l.655-9.024c.078-.989-.041-1.443-1.5-1.5v-.811h4.511L-14.4,6.68a13.2,13.2,0,0,1,.494,2.514h.1A22.9,22.9,0,0,1-13.313,6.7l2.254-7.856h4.533Z" transform="translate(21.939 1.155)" fill="#95a0a9"/>
          </g>
          <g id="g556" transform="translate(115.331 10.349)">
            <path id="path558" d="M-1.1-1.834h3.68c0-2.394-.494-3.224-1.742-3.224-1.166,0-1.8.752-1.937,3.224M4.422,2.024l.436.753A5.539,5.539,0,0,1,1.019,4.259C-1.949,4.259-3.69,2.34-3.69-.983c0-3.285,1.88-5.184,4.53-5.184,2.831,0,4.2,1.783,4.2,4.809v.691H-1.119c.061,2.532.931,3.443,2.909,3.443a5.638,5.638,0,0,0,2.632-.753" transform="translate(3.69 6.167)" fill="#95a0a9"/>
          </g>
          <g id="g560" transform="translate(125.105 7.699)">
            <path id="path562" d="M-2.4-1.8H-4.48V3.82c0,1.482.2,1.959,1.188,1.959A3.63,3.63,0,0,0-2.166,5.56l.24.871a4.53,4.53,0,0,1-2.356.631c-1.662,0-2.612-.69-2.612-2.769V-1.8H-8.082v-.852l1.327-.494a7.246,7.246,0,0,1,.911-2.672L-4.3-6.054A24.773,24.773,0,0,0-4.48-3.126h2.374Z" transform="translate(8.082 6.054)" fill="#95a0a9"/>
          </g>
          <g id="g564" transform="translate(132.21 10.349)">
            <path id="path566" d="M-2.16-2.279c-1.759,0-2.592.592-2.592,1.937,0,1.267.494,1.644,1.425,1.644A2.25,2.25,0,0,0-1.527.234l.061-2.493c-.16,0-.533-.019-.694-.019m4.433,3.8v.77a3.845,3.845,0,0,1-1.721.356c-1.306,0-1.779-.552-1.919-1.385A2.99,2.99,0,0,1-4.1,2.8c-1.82,0-3.164-.929-3.164-2.867,0-2.353,1.9-3.244,5-3.244.238,0,.575,0,.831.018v-.889c0-1.6-.375-2.317-1.581-2.317-1.387,0-1.764.812-1.923,1.8h-1.74v-1.9a8.849,8.849,0,0,1,4-1.067c2.256,0,3.679,1.01,3.679,3.324,0,.592-.078,2.276-.078,4.076,0,1.482.2,1.722,1.346,1.782" transform="translate(7.263 7.661)" fill="#95a0a9"/>
          </g>
          <g id="g568" transform="translate(142.337 6.056)">
            <path id="path570" d="M-1.625-5.193c0,1.147.2,1.386,1.346,1.425v.791h-5.1v-.791c1.108-.058,1.345-.258,1.345-1.385v-9.32c0-1.445-.316-1.641-1.425-1.681v-.753l3.246-.554h.3a5.49,5.49,0,0,1,.3,1.959Z" transform="translate(5.465 17.46)" fill="#95a0a9"/>
          </g>
          <g id="g572" transform="translate(148.809 6.056)">
            <path id="path574" d="M-1.624-5.193c0,1.147.2,1.386,1.347,1.425v.791H-5.384v-.791c1.109-.058,1.346-.258,1.346-1.385v-9.32c0-1.445-.317-1.641-1.424-1.681v-.753l3.244-.554h.3a5.455,5.455,0,0,1,.3,1.959Z" transform="translate(5.462 17.46)" fill="#95a0a9"/>
          </g>
          <g id="g576" transform="translate(154.764 10.349)">
            <path id="path578" d="M-2.018-.478C-3.6-.478-4.154.747-4.154,3.556c0,2.87.533,4.178,2.214,4.178C-.534,7.734.178,6.385.178,3.577c0-2.948-.753-4.055-2.2-4.055m0,9.3c-2.91,0-4.768-1.9-4.768-5.18,0-3.208,1.94-5.246,4.827-5.246,2.91,0,4.77,1.938,4.77,5.184,0,3.48-2.138,5.242-4.829,5.242" transform="translate(6.786 1.608)" fill="#95a0a9"/>
          </g>
          <g id="g580" transform="translate(165.35 6.232)">
            <path id="path582" d="M-1.014-1.274a1.5,1.5,0,0,1-1.5-1.5,1.508,1.508,0,0,1,1.524-1.5,1.492,1.492,0,0,1,1.5,1.5,1.508,1.508,0,0,1-1.523,1.5m-2.374,11.3V9.233c1.068-.058,1.3-.257,1.3-1.385V3.08c0-1.443-.255-1.641-1.323-1.681V.646L-.044-.087H.33V7.848c0,1.128.159,1.346,1.289,1.385v.791Z" transform="translate(3.408 4.282)" fill="#95a0a9"/>
          </g>
          <g id="g584" transform="translate(171.641 10.368)">
            <path id="path586" d="M-4.172-3.384c0,1.127.217,1.327,1.226,1.385v.792H-7.874V-2c1.127-.039,1.286-.277,1.286-1.305v-4.67c0-1.187-.494-1.621-1.366-1.621a3.322,3.322,0,0,0-2.333.97V-3.3c0,1.029.158,1.266,1.285,1.305v.792h-5.006V-2c1.069-.058,1.306-.258,1.306-1.385V-8.152c0-1.443-.257-1.643-1.327-1.682v-.751l2.909-.792h.3a5.355,5.355,0,0,1,.455,1.76,4.482,4.482,0,0,1,3.423-1.741A2.59,2.59,0,0,1-4.172-8.509Z" transform="translate(14.028 11.377)" fill="#95a0a9"/>
          </g>
          <g id="g588" transform="translate(182.417 10.626)">
            <path id="path590" d="M-1.851-4.238l-3.026-7.914c-.376-.99-.615-1.189-1.346-1.287v-.81H-1.3v.81c-.89.019-1.184.216-1.184.613a1.72,1.72,0,0,0,.117.555L-.9-8.136A9.307,9.307,0,0,1-.486-6.515h.1A14.071,14.071,0,0,1,.048-8.136l1.405-4.136a1.609,1.609,0,0,0,.119-.534c0-.435-.335-.614-1.225-.633v-.81H4.3v.81c-.791.1-1.048.276-1.4,1.287L.011-4.238Z" transform="translate(6.223 14.249)" fill="#95a0a9"/>
          </g>
          <g id="g592" transform="translate(193.159 10.348)">
            <path id="path594" d="M-1.1-1.835h3.68c0-2.4-.5-3.226-1.743-3.226-1.166,0-1.8.753-1.936,3.226M4.423,2.023l.435.751a5.536,5.536,0,0,1-3.84,1.485c-2.967,0-4.709-1.919-4.709-5.243,0-3.285,1.879-5.184,4.53-5.184,2.833,0,4.2,1.782,4.2,4.808v.694H-1.118c.059,2.532.93,3.441,2.909,3.441a5.676,5.676,0,0,0,2.632-.751" transform="translate(3.692 6.169)" fill="#95a0a9"/>
          </g>
          <g id="g596" transform="translate(203.221 10.368)">
            <path id="path598" d="M0-4.053V-6.09H1.663A1.755,1.755,0,0,0,3.7-4.29c1.05,0,1.841-.417,1.841-1.464,0-.93-.514-1.286-1.543-1.524L2.632-7.6A2.831,2.831,0,0,1,.08-10.5c0-2.08,1.681-3.126,3.739-3.126a7.155,7.155,0,0,1,3.207.691v1.96H5.461a1.642,1.642,0,0,0-1.84-1.543C2.594-12.521,2-12.047,2-11.2c0,.733.374,1.126,1.365,1.345l1.305.3C6.588-9.1,7.578-8.148,7.578-6.526c0,2.058-1.523,3.3-4.074,3.3A6.536,6.536,0,0,1,0-4.053" transform="translate(0 13.629)" fill="#95a0a9"/>
          </g>
          <g id="g600" transform="translate(212.052 7.697)">
            <path id="path602" d="M-2.4-1.8H-4.48V3.819c0,1.485.2,1.96,1.187,1.96A3.6,3.6,0,0,0-2.166,5.56l.24.871a4.526,4.526,0,0,1-2.357.633c-1.661,0-2.61-.691-2.61-2.77V-1.8H-8.081v-.852l1.326-.494a7.32,7.32,0,0,1,.909-2.671L-4.3-6.054A24.3,24.3,0,0,0-4.48-3.125h2.374Z" transform="translate(8.081 6.054)" fill="#95a0a9"/>
          </g>
        </g>
      </g>
    </g>
  </g>
</svg>
