<svg id="MIG" xmlns="http://www.w3.org/2000/svg" width="135.445" height="46.055" viewBox="0 0 135.445 46.055">
  <path id="Path_281" data-name="Path 281" d="M23.25,110.627c9.27-.424,13.062-3.52,16.179-8.261a21.583,21.583,0,0,0,2.552-10.682l5.013-.03-.413-1.563-4.761.01c-1.462-5.225-3.429-8.583-5.921-10.591,1.976-1.231,2.784-1.554,2.723-4.025,6.818-2.29,8.009-4.67,6.647-7.151,1.362-.3,3.45-.888,3.813-2.047.786-.374,1.644-.615,1.685-1.714-10.541,3.742-22.806,7.585-33.075,12.76a47.8,47.8,0,0,0-9.885,6.315c-3.208,2.855-4.8,4.872-4.68,7.2a9.019,9.019,0,0,0,3.49,4.519c1.554,1.21,2.219,2.632-.655,3.54a13.244,13.244,0,0,0-3.127.828l.434,1.241c2.613-.586,6.063.484,7.182,2.138,2.663,5.1,7.353,6.837,12.8,7.513ZM40.065,98.634l-16.29.05A9.8,9.8,0,0,1,11.52,102.86c1.694,4.518,8.09,6.768,12.043,6.929,5.749.232,14.061-2.643,16.5-11.156Zm-17.2-.908H40.408a19.434,19.434,0,0,0,.827-6.073l-5.659-.02,1.059,4.388-7.253.01-.665-3.208-1.493,3.2H20.85l-.706-3.369-.938,3.369h-2.3l-1.765-3.3.494,3.3h-2.38l-1.029-7.374h2.633l2.986,5.174,1.241-5.215H21.8l1.4,6.183h1.15L23.372,90.1h2.421l.767,3.278L28.012,90.1h2.43l1.09,4.681,2.219.02-1.058-4.711,8.271.011a10.66,10.66,0,0,0-.424-2.108H23.6c2.128-1.1,3.975-1.583,5.961-3.54a1.975,1.975,0,0,0-.08-2.593c3.036-1.573,7.071-2.844,6.818-6.284,3.369-1.13,7.726-2.491,6.708-6.667C32.44,72.277,19.357,76.4,11.056,82.172c-2.451,1.7-4.852,4.62-4.842,7.605.02,5.921,6,9.784,11.772,9.37A8.584,8.584,0,0,0,22.867,97.726ZM4.882,87.195a.3.3,0,0,0,.06-.151c-.03-.03-.05-.051-.06-.051,0,.02,0,.071.01.08C4.943,87.125,4.782,87.3,4.882,87.195Zm21.465.081H40.126c-.615-2.37-2.593-6.315-5.063-7.333-1.261.544-2.139,1.039-3.318,1.564-.03,0-.051.01-.081.06,2.007,2.663-5.386,5.5-5.366,5.709h.05Zm27.632,6.683h-.667l-.265-.69H51.833l-.25.69h-.65l1.183-3.036h.649l1.216,3.036Zm-1.129-1.2-.418-1.127-.41,1.127h.828Zm1.573-1.835h1.214a3.469,3.469,0,0,1,.538.03.782.782,0,0,1,.317.125.772.772,0,0,1,.232.254.687.687,0,0,1,.093.355.713.713,0,0,1-.426.659.8.8,0,0,1,.426.275.731.731,0,0,1,.149.458.9.9,0,0,1-.1.4.819.819,0,0,1-.263.313.867.867,0,0,1-.411.144q-.153.016-.739.02H54.425V90.923h0Zm.614.505v.7h.4q.358,0,.445-.011a.4.4,0,0,0,.248-.108.32.32,0,0,0,.09-.237.334.334,0,0,0-.077-.229.35.35,0,0,0-.231-.106q-.262-.015-.524-.011h-.353Zm0,1.208v.812H55.6a2.815,2.815,0,0,0,.421-.018.379.379,0,0,0,.223-.121.374.374,0,0,0,.086-.258.4.4,0,0,0-.067-.232.375.375,0,0,0-.192-.139,2.089,2.089,0,0,0-.544-.043h-.494Zm2.574-1.713h.574v2.021l1.23-2.021h.611v3.036h-.573V91.977l-1.229,1.982h-.613Zm5.9,3.036h-.667l-.265-.69H61.363l-.25.69h-.65l1.183-3.036h.649l1.216,3.036Zm-1.129-1.2-.418-1.127-.41,1.127h.828Zm1.582-1.835h.613v2.527h1.189V90.923h.613v2.527h.253v1.172h-.51v-.662H63.962V90.923Zm3.214,0h.574v2.021l1.23-2.021h.611v3.036h-.573V91.977L67.79,93.959h-.613Zm3.035,1.537a1.928,1.928,0,0,1,.138-.779,1.448,1.448,0,0,1,.283-.416,1.192,1.192,0,0,1,.392-.273,1.662,1.662,0,0,1,.654-.12,1.423,1.423,0,0,1,1.074.416,1.859,1.859,0,0,1,0,2.309,1.415,1.415,0,0,1-1.069.415A1.43,1.43,0,0,1,70.61,93.6,1.575,1.575,0,0,1,70.211,92.46Zm.631-.021a1.139,1.139,0,0,0,.238.782.777.777,0,0,0,.605.266.769.769,0,0,0,.6-.264,1.16,1.16,0,0,0,.235-.792,1.147,1.147,0,0,0-.228-.779.85.85,0,0,0-1.22,0A1.154,1.154,0,0,0,70.843,92.439Zm2.913,1.52V90.923h.614v1.195h1.2V90.923h.612v3.036H75.57V92.631h-1.2v1.328Zm3.18,0V90.923h.614v1.195h1.2V90.923h.613v3.036h-.613V92.631h-1.2v1.328Zm3.2-3.036h.613v1.214h.82a1.579,1.579,0,0,1,.557.088.812.812,0,0,1,.388.316.894.894,0,0,1,.156.521.873.873,0,0,1-.162.531.78.78,0,0,1-.359.295,1.76,1.76,0,0,1-.579.073H80.133V90.923Zm.612,2.527h.6a1.968,1.968,0,0,0,.4-.028.4.4,0,0,0,.2-.127.353.353,0,0,0,.088-.243.347.347,0,0,0-.143-.3.95.95,0,0,0-.519-.1h-.623Zm2.275-2.527h.613v3.036H83.02Zm1.375,0h.574v2.021l1.23-2.021h.611v3.036h-.573V91.977l-1.229,1.982h-.613Zm1.575-.756h.284a.652.652,0,0,1-.2.442.706.706,0,0,1-.9,0,.657.657,0,0,1-.2-.442h.285a.32.32,0,0,0,.1.223.481.481,0,0,0,.517,0,.329.329,0,0,0,.1-.223ZM51.243,99.473V96.437h.614v1.195h1.2V96.437h.613v3.036h-.613V98.146h-1.2v1.328Zm5.918,0h-.668l-.265-.69H55.015l-.25.69h-.65L55.3,96.437h.649l1.216,3.036Zm-1.129-1.2-.418-1.127-.41,1.127h.828Zm1.1-1.835h.686l.709,1.577.6-1.577h.64l-1.025,2.308a2.261,2.261,0,0,1-.342.571.574.574,0,0,1-.45.2,2,2,0,0,1-.424-.035V99.02c.087.006.166.009.235.009a.479.479,0,0,0,.306-.077.771.771,0,0,0,.177-.334l-1.116-2.18Zm3.015,0h.613v.725a2.7,2.7,0,0,0,.026.468.329.329,0,0,0,.154.2.688.688,0,0,0,.377.085,1.316,1.316,0,0,0,.35-.043.8.8,0,0,0,.265-.125v-1.31h.613v3.036h-.613V98.251a2.043,2.043,0,0,1-.367.126,1.545,1.545,0,0,1-.354.043,1.291,1.291,0,0,1-.759-.214.846.846,0,0,1-.306-.743V96.437Zm3.15,3.036V96.437h.614v1.195h1.2V96.437h.613v3.036h-.613V98.146h-1.2v1.328Zm3.055-1.5a1.929,1.929,0,0,1,.138-.779,1.448,1.448,0,0,1,.283-.416,1.191,1.191,0,0,1,.392-.273,1.662,1.662,0,0,1,.654-.12A1.423,1.423,0,0,1,68.9,96.8a1.859,1.859,0,0,1,0,2.309,1.415,1.415,0,0,1-1.069.415,1.43,1.43,0,0,1-1.077-.413A1.575,1.575,0,0,1,66.353,97.974Zm.631-.02a1.139,1.139,0,0,0,.238.782.777.777,0,0,0,.605.266.769.769,0,0,0,.6-.264,1.16,1.16,0,0,0,.235-.792,1.147,1.147,0,0,0-.228-.779.85.85,0,0,0-1.22,0A1.151,1.151,0,0,0,66.985,97.954Zm2.84.71v-.582h1.143v.582Zm1.609-2.226h2.415v3.036h-.613V96.947H72.047v2.527h-.613Zm3.159,3.036V96.437h.983a3.56,3.56,0,0,1,.729.046.792.792,0,0,1,.437.3.943.943,0,0,1,.176.591.972.972,0,0,1-.1.47.84.84,0,0,1-.258.3.878.878,0,0,1-.317.143,3.493,3.493,0,0,1-.636.044h-.4v1.145h-.612Zm.613-2.522v.861h.335a1.588,1.588,0,0,0,.485-.047.406.406,0,0,0,.193-.149.419.419,0,0,0,.069-.236.394.394,0,0,0-.1-.274.424.424,0,0,0-.246-.135,2.88,2.88,0,0,0-.44-.02h-.3Zm2.154,1.023A1.929,1.929,0,0,1,77.5,97.2a1.448,1.448,0,0,1,.283-.416,1.192,1.192,0,0,1,.392-.273,1.662,1.662,0,0,1,.654-.12A1.423,1.423,0,0,1,79.9,96.8a1.859,1.859,0,0,1,0,2.309,1.415,1.415,0,0,1-1.069.415,1.43,1.43,0,0,1-1.077-.413A1.575,1.575,0,0,1,77.36,97.974Zm.631-.02a1.139,1.139,0,0,0,.238.782.777.777,0,0,0,.605.266.769.769,0,0,0,.6-.264,1.16,1.16,0,0,0,.235-.792,1.147,1.147,0,0,0-.228-.779.85.85,0,0,0-1.22,0A1.151,1.151,0,0,0,77.991,97.954Zm2.9,1.52V96.437h.918l.551,2.071.544-2.071h.919v3.036h-.569v-2.39l-.6,2.39h-.591l-.6-2.39v2.39h-.569Zm3.676-3.036h.613v1.214H86a1.575,1.575,0,0,1,.556.088.813.813,0,0,1,.389.316.9.9,0,0,1,.156.521.869.869,0,0,1-.163.531.776.776,0,0,1-.359.295,1.756,1.756,0,0,1-.578.073H84.571V96.437Zm.613,2.527h.6a1.958,1.958,0,0,0,.4-.028.392.392,0,0,0,.2-.127.389.389,0,0,0-.055-.547.95.95,0,0,0-.519-.1h-.623Zm2.275-2.527h.613v3.036h-.613Zm1.376,0h.613v2.527h.879V96.437h.61v2.527h.907V96.437h.611l0,3.039-3.625,0Zm4.588,0h2.127v3.036h-.613V96.951h-.914v1.3a5.445,5.445,0,0,1-.038.778.559.559,0,0,1-.181.344.687.687,0,0,1-.451.123q-.2,0-.391-.02V99l.136,0a.445.445,0,0,0,.258-.051c.045-.035.067-.119.067-.256l0-.522V96.437h0ZM96.3,99.473V96.437h2.252v.514H96.912v.673h1.525v.511H96.912v.826h1.7v.512Zm2.949,0V96.437h.613v1.195h1.2V96.437h.612v3.036h-.612V98.146h-1.2v1.328Zm3.181,0V96.437h.614v1.195h1.2V96.437h.613v3.036h-.613V98.146h-1.2v1.328Zm3.2-3.036h.613v1.214h.82a1.58,1.58,0,0,1,.557.088.812.812,0,0,1,.388.316.894.894,0,0,1,.156.521.873.873,0,0,1-.162.531.78.78,0,0,1-.359.295,1.76,1.76,0,0,1-.579.073h-1.433V96.437h0Zm.613,2.527h.6a1.968,1.968,0,0,0,.4-.028.4.4,0,0,0,.2-.127.353.353,0,0,0,.088-.243.347.347,0,0,0-.143-.3.95.95,0,0,0-.519-.1h-.623Zm2.275-2.527h.613v3.036h-.613Zm1.374,0h.574v2.021l1.23-2.021h.611v3.036h-.573V97.491L110.5,99.473h-.613V96.437Zm1.575-.756h.284a.652.652,0,0,1-.2.442.706.706,0,0,1-.9,0,.657.657,0,0,1-.2-.442h.285a.32.32,0,0,0,.1.223.481.481,0,0,0,.517,0,.329.329,0,0,0,.1-.223Zm2.656.756h.613v1.292a.412.412,0,0,0,.278-.106,2.154,2.154,0,0,0,.224-.472,1.288,1.288,0,0,1,.383-.613,1.2,1.2,0,0,1,.615-.12l.089,0v.453l-.087,0a.611.611,0,0,0-.275.046.345.345,0,0,0-.14.142,3.042,3.042,0,0,0-.16.392,1.4,1.4,0,0,1-.121.263.632.632,0,0,1-.231.2.637.637,0,0,1,.339.234,3.184,3.184,0,0,1,.292.5l.414.833h-.72l-.363-.785q-.058-.1-.112-.207a.9.9,0,0,0-.194-.28.4.4,0,0,0-.231-.058v1.33h-.613V96.437h0Zm2.573,1.537a1.928,1.928,0,0,1,.138-.779,1.448,1.448,0,0,1,.283-.416,1.191,1.191,0,0,1,.392-.273,1.662,1.662,0,0,1,.654-.12,1.423,1.423,0,0,1,1.074.416,1.859,1.859,0,0,1,0,2.309,1.415,1.415,0,0,1-1.069.415,1.43,1.43,0,0,1-1.077-.413,1.572,1.572,0,0,1-.4-1.139Zm.631-.02a1.139,1.139,0,0,0,.238.782.777.777,0,0,0,.605.266.769.769,0,0,0,.6-.264,1.16,1.16,0,0,0,.235-.792,1.147,1.147,0,0,0-.228-.779.85.85,0,0,0-1.22,0,1.147,1.147,0,0,0-.232.784Zm2.9,1.52V96.437h.918l.551,2.071.544-2.071h.919v3.036h-.569v-2.39l-.6,2.39h-.59l-.6-2.39v2.39h-.57Zm3.668-3.036h2.415v3.036h-.614V96.947H124.5v2.527h-.612Zm3.376,0h2.127v3.036h-.613V96.951h-.914v1.3a5.442,5.442,0,0,1-.038.778.559.559,0,0,1-.181.344.687.687,0,0,1-.451.123q-.2,0-.391-.02V99l.136,0a.445.445,0,0,0,.258-.051c.045-.035.067-.119.067-.256l0-.522V96.437Zm2.878,3.036V96.437H132.4v.514h-1.638v.673h1.525v.511h-1.525v.826h1.7v.512Zm2.957-3.036h.613v1.292a.412.412,0,0,0,.278-.106,2.154,2.154,0,0,0,.224-.472,1.288,1.288,0,0,1,.383-.613,1.194,1.194,0,0,1,.615-.12l.089,0v.453l-.087,0a.611.611,0,0,0-.275.046.345.345,0,0,0-.14.142,3.041,3.041,0,0,0-.16.392,1.405,1.405,0,0,1-.121.263.632.632,0,0,1-.231.2.637.637,0,0,1,.339.234,3.182,3.182,0,0,1,.292.5l.414.833h-.72l-.363-.785q-.058-.1-.111-.207a.9.9,0,0,0-.194-.28.4.4,0,0,0-.231-.058v1.33H133.1V96.437Zm4.583,1.92.594.188a1.337,1.337,0,0,1-.455.739,1.43,1.43,0,0,1-1.8-.172,1.581,1.581,0,0,1-.39-1.13,1.664,1.664,0,0,1,.392-1.178,1.342,1.342,0,0,1,1.029-.419,1.26,1.26,0,0,1,.9.329,1.2,1.2,0,0,1,.311.559l-.607.145a.627.627,0,0,0-.64-.51.691.691,0,0,0-.548.243,1.189,1.189,0,0,0-.21.785,1.272,1.272,0,0,0,.208.82.667.667,0,0,0,.537.245.609.609,0,0,0,.421-.156.9.9,0,0,0,.253-.489Zm-86.437,3.595h.574v2.021l1.23-2.021h.611v3.036h-.573v-1.982l-1.229,1.982h-.613Zm3.151,3.036v-3.036h.918l.55,2.071.544-2.071h.92v3.036h-.569V102.6l-.6,2.39H55.57l-.6-2.39v2.39H54.4Zm3.66,0v-3.036h2.252v.514H58.673v.673H60.2v.511H58.673v.826h1.7v.512Zm2.949,0v-3.036h.614v1.2h1.2v-1.2h.613v3.036h-.613V103.66h-1.2v1.328Zm3.188-3.036h.574v2.021L66,101.952h.611v3.036h-.574v-1.982l-1.229,1.982H64.2Zm6.959,3.036h-.667l-.265-.69H69.008l-.25.69h-.65l1.183-3.036h.649Zm-1.129-1.2-.418-1.127-.41,1.127h.828Zm1.567,1.2v-.581h.581v.581Zm1.308-3.036h.574v2.021l1.23-2.021h.611v3.036h-.573v-1.982l-1.229,1.982H72.9Zm3.156,3.036v-.581h.581v.581Zm1.292,0v-3.036h.917l.55,2.071.545-2.071h.92v3.036h-.57V102.6l-.6,2.39h-.591l-.6-2.39v2.39Zm3.667-3.036h.574v2.021l1.23-2.021h.611v3.036h-.573v-1.982l-1.229,1.982h-.613Zm3.17,0H84.8v1.292a.412.412,0,0,0,.278-.106,2.153,2.153,0,0,0,.224-.472,1.288,1.288,0,0,1,.383-.613,1.194,1.194,0,0,1,.615-.12l.089,0v.453l-.087,0a.611.611,0,0,0-.275.046.345.345,0,0,0-.14.142,3.043,3.043,0,0,0-.16.392,1.4,1.4,0,0,1-.121.263.633.633,0,0,1-.231.2.637.637,0,0,1,.339.234,3.181,3.181,0,0,1,.292.5l.414.833H85.7l-.363-.785q-.058-.1-.111-.207a.9.9,0,0,0-.194-.28.4.4,0,0,0-.231-.058v1.33h-.613v-3.035Zm2.573,1.537a1.928,1.928,0,0,1,.138-.779,1.448,1.448,0,0,1,.283-.416,1.192,1.192,0,0,1,.392-.273,1.662,1.662,0,0,1,.654-.12,1.423,1.423,0,0,1,1.074.416,1.859,1.859,0,0,1,0,2.309,1.415,1.415,0,0,1-1.069.415,1.43,1.43,0,0,1-1.077-.413A1.571,1.571,0,0,1,86.759,103.489Zm.631-.02a1.139,1.139,0,0,0,.238.782.777.777,0,0,0,.605.266.769.769,0,0,0,.6-.264,1.161,1.161,0,0,0,.235-.792,1.147,1.147,0,0,0-.228-.779.85.85,0,0,0-1.22,0A1.147,1.147,0,0,0,87.391,103.468Zm4.67,1.52V103.72h-.125a.717.717,0,0,0-.408.087,2.509,2.509,0,0,0-.407.52l-.442.661h-.734l.371-.592a3.662,3.662,0,0,1,.35-.494,1.365,1.365,0,0,1,.327-.254.95.95,0,0,1-.612-.295.834.834,0,0,1-.19-.548.88.88,0,0,1,.14-.492.676.676,0,0,1,.369-.287,2.4,2.4,0,0,1,.684-.074h1.291v3.036h-.613Zm0-2.522h-.478a4.38,4.38,0,0,0-.48.016.312.312,0,0,0-.2.111.367.367,0,0,0-.083.249.381.381,0,0,0,.08.254.329.329,0,0,0,.2.117,3.462,3.462,0,0,0,.5.022h.454Zm1.352,2.522v-3.036h.614v1.2h1.2v-1.2h.613v3.036h-.613V103.66h-1.2v1.328h-.614Zm5.918,0h-.667l-.265-.69H97.185l-.25.69h-.65l1.183-3.036h.649l1.216,3.036Zm-1.129-1.2-.418-1.127-.41,1.127Z" transform="translate(-2.835 -64.572)" fill="#33348e" fill-rule="evenodd"/>
</svg>
