<svg xmlns="http://www.w3.org/2000/svg" width="180.577" height="33.111" viewBox="0 0 180.577 33.111">
  <g id="Philips_logo_new" transform="translate(-758.252 15.318)">
    <g id="g2851" transform="translate(758.252 -15.318)">
      <g id="Group_209" data-name="Group 209">
        <path id="path2859" d="M342.871-465.124h-9.7v12.633h-10.1v-12.633h-9.7v31.783h9.7v-12.5h10.1v12.5h9.7Zm33.748,25.4v-25.4h-9.7v31.783h17.542l1.459-6.386h-9.3Zm-16.874-25.4h-9.7v31.783h9.7Zm39.33,0h-9.7v31.783h9.7Zm47.831,8.112c0-1.73,1.73-2.529,4.517-2.529a24.3,24.3,0,0,1,8.64,1.6l-.795-6.919a37.943,37.943,0,0,0-8.9-.93c-7.841,0-13.157,3.094-13.157,9.575,0,11.169,15.153,8.911,15.153,14.1,0,1.992-1.468,3.053-5.054,3.053a29.016,29.016,0,0,1-11.029-2.525l1.066,7.317a32.021,32.021,0,0,0,10.1,1.594c8.1,0,14.747-2.66,14.747-10.641,0-10.632-15.284-8.64-15.284-13.694M419.54-440.919c9.029,0,14.747-4.657,14.747-12.768,0-8.907-6.111-12.1-16.079-12.1a109.529,109.529,0,0,0-11.824.664v31.783h9.7v-7.579h3.455Zm5.181-12.633c0,4.119-1.992,6.915-7.046,6.915h-1.59v-13.134c.565-.032,1.093-.032,1.59-.032,4.783,0,7.046,2.258,7.046,6.251M294.769-440.919c9.033,0,14.747-4.657,14.747-12.768,0-8.907-6.111-12.1-16.074-12.1a109.617,109.617,0,0,0-11.829.664v31.783h9.7v-7.579Zm5.185-12.633c0,4.119-2,6.915-7.046,6.915h-1.594v-13.134c.565-.032,1.1-.032,1.594-.032,4.783,0,7.046,2.258,7.046,6.251" transform="translate(-281.612 465.788)" fill="#0b5ed7"/>
      </g>
    </g>
  </g>
</svg>
