<svg xmlns="http://www.w3.org/2000/svg" xmlns:xlink="http://www.w3.org/1999/xlink" width="48.047" height="61.507" viewBox="0 0 48.047 61.507">
  <defs>
    <radialGradient id="radial-gradient" cx="0.33" cy="0.199" r="0.703" gradientTransform="translate(0 0)" gradientUnits="objectBoundingBox">
      <stop offset="0" stop-color="#4495d1"/>
      <stop offset="1" stop-color="#15256d"/>
    </radialGradient>
    <linearGradient id="linear-gradient" x1="10.497" y1="-14.423" x2="11.136" y2="-15.104" gradientTransform="matrix(1, 0, 0, 1, 0, 0)" xlink:href="#radial-gradient"/>
    <linearGradient id="linear-gradient-2" x1="49.121" y1="31.479" x2="50.561" y2="31.185" gradientTransform="matrix(1, 0, 0, 1, 0, 0)" xlink:href="#radial-gradient"/>
    <linearGradient id="linear-gradient-3" x1="-28.19" y1="23.904" x2="-27.169" y2="23.567" gradientTransform="matrix(1, 0, 0, 1, 0, 0)" xlink:href="#radial-gradient"/>
    <linearGradient id="linear-gradient-4" x1="0.295" y1="0.697" x2="0.697" y2="0.017" gradientTransform="matrix(1, 0, 0, 1, 0, 0)" xlink:href="#radial-gradient"/>
    <linearGradient id="linear-gradient-5" x1="0.851" y1="0.44" x2="0.09" y2="0.544" gradientTransform="matrix(1, 0, 0, 1, 0, 0)" xlink:href="#radial-gradient"/>
    <linearGradient id="linear-gradient-6" x1="0.459" y1="0.186" x2="0.647" y2="0.905" gradientTransform="matrix(1, 0, 0, 1, 0, 0)" xlink:href="#radial-gradient"/>
  </defs>
  <g id="rosatom" transform="translate(0.026 -0.029)">
    <g id="Layer_1" data-name="Layer 1" transform="translate(-0.026 0.029)">
      <path id="Path_221" data-name="Path 221" d="M34.962,34.4a5.017,5.017,0,1,1,1.308-3.633A5.032,5.032,0,0,1,34.962,34.4Z" transform="translate(-6.992 -6.971)" fill="url(#radial-gradient)"/>
      <path id="Path_222" data-name="Path 222" d="M29.116,6.812c.425.418.813.842,1.165,1.26a19.931,19.931,0,0,1,2.93,4.812,15.338,15.338,0,0,0,3.662.249h.41a13.829,13.829,0,0,0,8.687-4.146l.3-.315a19.782,19.782,0,0,0-1.465-1.6A24.106,24.106,0,0,0,13.39,4.791C20.8,1.2,25.93,3.67,29.116,6.812Z" transform="translate(-3.563 -0.029)" fill="url(#linear-gradient)"/>
      <path id="Path_223" data-name="Path 223" d="M8.468,36.938c.146-.571.322-1.121.513-1.641a19.777,19.777,0,0,1,2.674-4.981,15.338,15.338,0,0,0-1.589-3.26c-.044-.059-.073-.117-.117-.183s-.081-.1-.117-.161A13.778,13.778,0,0,0,1.9,21.27l-.447-.11c-.249.674-.476,1.348-.667,2.051A24.1,24.1,0,0,0,14.555,51.558C7.772,46.943,7.318,41.259,8.468,36.938Z" transform="translate(0.026 -5.682)" fill="url(#linear-gradient-2)"/>
      <path id="Path_224" data-name="Path 224" d="M48.275,41.6c-.571.161-1.128.278-1.67.381a20.114,20.114,0,0,1-5.655.168,15.865,15.865,0,0,0-2.029,3.01c0,.066-.066.125-.1.19l-.081.176a13.785,13.785,0,0,0-.732,9.6,1.51,1.51,0,0,0,.125.418c.7-.125,1.4-.264,2.1-.447A24.091,24.091,0,0,0,57.885,29C57.292,37.2,52.582,40.4,48.275,41.6Z" transform="translate(-10.007 -7.779)" fill="url(#linear-gradient-3)"/>
      <path id="Path_225" data-name="Path 225" d="M10.485,5.82A22.8,22.8,0,0,0,2.53,15.687a14.408,14.408,0,0,1,10.723,9.676c.667-.425,2.7-2.029,4.073-6.475,1.663-5.362,4.805-9.324,8.885-11.046C26.211,7.842,21.04.481,10.485,5.82Z" transform="translate(-0.658 -1.058)" fill="url(#linear-gradient-4)"/>
      <path id="Path_226" data-name="Path 226" d="M29.2,54.839a14.364,14.364,0,0,1,3.78-9.727l.037-.051c-.491-.527-2.2-1.824-6.658-.813-5.479,1.245-11.522,1.1-15.052-1.567,0,0-3.794,8.152,6.109,14.65a22.816,22.816,0,0,0,12.518,1.963,13.917,13.917,0,0,1-.732-4.453Z" transform="translate(-2.816 -11.439)" fill="url(#linear-gradient-5)"/>
      <path id="Path_227" data-name="Path 227" d="M54.037,12.86A14.239,14.239,0,0,1,43.38,17.694a15.323,15.323,0,0,1-3.164-.337h-.051c-.205.732-.374,2.864,2.637,6.116,3.809,4.138,6.739,9.412,6.167,13.807,0,0,8.965-.791,9.61-12.606A22.8,22.8,0,0,0,54.037,12.86Z" transform="translate(-10.7 -3.461)" fill="url(#linear-gradient-6)"/>
      <path id="Path_228" data-name="Path 228" d="M4.21,75.441a11.53,11.53,0,0,1,1.89-.125,2.989,2.989,0,0,1,1.89.5,1.817,1.817,0,0,1,.659,1.465,1.978,1.978,0,0,1-.571,1.465A2.835,2.835,0,0,1,6.07,79.4a2.931,2.931,0,0,1-.476,0v2.2H4.21Zm1.384,2.813a2.52,2.52,0,0,0,.469,0c.732,0,1.2-.381,1.2-1.011s-.4-.908-1.091-.908a2.805,2.805,0,0,0-.579.051Z" transform="translate(-1.107 -20.168)" fill="#1a1a1a"/>
      <path id="Path_229" data-name="Path 229" d="M17.616,78.368a2.951,2.951,0,0,1-3.04,3.26,2.915,2.915,0,0,1-2.93-3.15,3,3,0,0,1,3.01-3.238A2.888,2.888,0,0,1,17.616,78.368Zm-4.468.088c0,1.209.571,2.058,1.5,2.058s1.465-.894,1.465-2.095-.527-2.066-1.465-2.066S13.148,77.262,13.148,78.456Z" transform="translate(-3.094 -20.15)" fill="#1a1a1a"/>
      <path id="Path_230" data-name="Path 230" d="M26.116,81.346a3.875,3.875,0,0,1-1.589.278,2.946,2.946,0,0,1-3.238-3.1,3.157,3.157,0,0,1,3.377-3.289,3.589,3.589,0,0,1,1.524.278L25.9,76.621a3.077,3.077,0,0,0-1.172-.227,2.036,2.036,0,0,0,0,4.065,3.531,3.531,0,0,0,1.165-.205Z" transform="translate(-5.676 -20.147)" fill="#1a1a1a"/>
      <path id="Path_231" data-name="Path 231" d="M30.712,79.621l-.645,1.941H29.24l2.1-6.182h.96l2.11,6.182h-.85L32.9,79.621ZM32.727,79l-.6-1.787a9.709,9.709,0,0,1-.322-1.128h0q-.132.557-.308,1.121L30.888,79Z" transform="translate(-7.804 -20.187)" fill="#1a1a1a"/>
      <path id="Path_232" data-name="Path 232" d="M38.122,76.061H36.24V75.38h4.578v.681h-1.89v5.5h-.806Z" transform="translate(-9.676 -20.187)" fill="#1a1a1a"/>
      <path id="Path_233" data-name="Path 233" d="M48.865,78.378c0,2.132-1.289,3.289-2.879,3.289a2.856,2.856,0,0,1-2.776-3.135,2.992,2.992,0,0,1,2.871-3.252A2.808,2.808,0,0,1,48.865,78.378Zm-4.8.1c0,1.318.732,2.505,1.978,2.505s1.978-1.165,1.978-2.571c0-1.231-.645-2.512-1.97-2.512S44.067,77.126,44.067,78.481Z" transform="translate(-11.541 -20.16)" fill="#1a1a1a"/>
      <path id="Path_234" data-name="Path 234" d="M58.158,78.845c-.066-.857-.066-1.9-.066-2.666h0c-.205.732-.461,1.465-.776,2.351l-1.091,3h-.608l-1-2.93c-.293-.872-.542-1.67-.732-2.4h0c0,.732-.066,1.809-.125,2.732L53.6,81.577H52.87l.432-6.182H54.32l1.055,2.989c.256.732.469,1.465.623,2.088h0a21.76,21.76,0,0,1,.63-2.1l1.1-2.989h1.018l.381,6.182h-.813Z" transform="translate(-14.125 -20.187)" fill="#1a1a1a"/>
    </g>
  </g>
</svg>
