<svg xmlns="http://www.w3.org/2000/svg" width="137.647" height="34.394" viewBox="0 0 137.647 34.394">
  <g id="Rostelecom" transform="translate(-96.4 -184.298)">
    <g id="g14386" transform="translate(96.4 184.298)">
      <path id="path14388" d="M5.937,15.2A13.193,13.193,0,0,1,3.505,8.278c-.01-.172-.01-.338-.01-.515V7.749A9.008,9.008,0,0,1,5.04,2.586,6.644,6.644,0,0,1,8.3.14a11.006,11.006,0,0,0-2,1C-4.791,7.906,1.22,25.3,5.751,30.68c.064.078.554.618.706.765,2.844,2.795,6.918,3.26,9.095,1.039,2.123-2.162,1.652-6.089-1.02-8.874-2.809-3.02-6-4.569-8.595-8.408" transform="translate(0 0.506)" fill="#00a8ff"/>
      <path id="path14390" d="M2.888.009Q2.63.016,2.373.038A4.13,4.13,0,0,1,4.628.45c.093.054.191.113.279.177A3.486,3.486,0,0,1,5.972,1.8a4.863,4.863,0,0,1,.642,2.53V4.4A9.686,9.686,0,0,1,4.04,10.511l-.132.147v0c-.142.167-.279.338-.407.52-1.667,2.4-1.3,5.535.809,7.006s5.182.716,6.854-1.687c.083-.118.162-.24.235-.363C16.179,8.628,10.615-.319,2.888.009" transform="translate(8.619 0)" fill="#00a8ff"/>
      <path id="path14392" d="M4.7,13.427c.235-3.986,2.809-7.08,5.751-6.9a4.234,4.234,0,0,1,1.569.436A8.074,8.074,0,0,0,12.5,4.377V4.308a4.817,4.817,0,0,0-.642-2.53A3.58,3.58,0,0,0,10.79.606C10.7.543,10.6.484,10.505.43c-.99-.588-2.834-.579-4.731.118A6.784,6.784,0,0,0,2.3,3.073,9.031,9.031,0,0,0,.754,8.235q0,.257.015.515A13.212,13.212,0,0,0,3.2,15.683a20.843,20.843,0,0,0,3.814,4.172A7.962,7.962,0,0,1,4.7,13.427" transform="translate(2.737 0.02)" fill="#f57b20"/>
      <path id="path14394" d="M29.752,13.232a.217.217,0,0,0,.216-.211l-.01-1.559a.214.214,0,0,0-.216-.216H27.688a2.954,2.954,0,0,1-3.148-3.1,2.985,2.985,0,0,1,3.187-3.182l1.853,0a.209.209,0,0,0,.206-.2l0-1.564a.213.213,0,0,0-.211-.216H27.271c-3.648,0-5.545,2.295-5.545,5.03a5.093,5.093,0,0,0,5.5,5.226h2.53Z" transform="translate(78.915 10.825)"/>
      <path id="path14396" d="M16.758,7.118c-.829-.279-1.8-.431-1.8-1.324,0-.26.088-.838,1.593-.838H18.92a.218.218,0,0,0,.216-.216V3.2a.214.214,0,0,0-.216-.216h-2.9c-3.025,0-3.741,1.7-3.741,2.868,0,1.741,1.133,2.4,2.755,2.991.971.353,1.785.593,1.785,1.441,0,.417-.319.966-1.7.966H12.438a.216.216,0,0,0-.216.206v1.564a.213.213,0,0,0,.216.206h3.069c2.751,0,4-1.383,4-3.005,0-2.01-1.579-2.721-2.746-3.1" transform="translate(44.395 10.825)"/>
      <path id="path14398" d="M14.859,11.571c-1.186,0-2.476-.971-2.476-3.344s1.289-3.344,2.476-3.344,2.476.966,2.476,3.344-1.289,3.344-2.476,3.344m0-8.624A4.926,4.926,0,0,0,9.573,8.232a4.926,4.926,0,0,0,5.285,5.285,4.926,4.926,0,0,0,5.285-5.285,4.926,4.926,0,0,0-5.285-5.285" transform="translate(34.773 10.702)"/>
      <path id="path14400" d="M29.011,11.571c-1.186,0-2.476-.971-2.476-3.344s1.289-3.344,2.476-3.344,2.471.966,2.471,3.344-1.285,3.344-2.471,3.344m0-8.624a4.926,4.926,0,0,0-5.285,5.285,4.926,4.926,0,0,0,5.285,5.285,4.919,4.919,0,0,0,5.28-5.285,4.919,4.919,0,0,0-5.28-5.285" transform="translate(86.181 10.702)"/>
      <path id="path14402" d="M24.2,4.8a2.125,2.125,0,0,1,2.123,2.4H22.1a2.24,2.24,0,0,1,2.1-2.4m3.741,6.315s-1.383.132-2.422.132c-1.834,0-3.339-.9-3.417-2.211h5.712a1.172,1.172,0,0,0,1.167-1.162c-.069-1.515-.593-4.932-4.618-4.932a4.979,4.979,0,0,0-5.07,5.285c0,3.623,3.045,5.128,6.124,5.128,1.2,0,2.52-.132,2.52-.132a.224.224,0,0,0,.221-.206v-1.7a.218.218,0,0,0-.216-.2" transform="translate(70.076 10.698)"/>
      <path id="path14404" d="M20.712,4.8a2.117,2.117,0,0,1,2.118,2.4H18.614a2.243,2.243,0,0,1,2.1-2.4m3.741,6.315s-1.388.132-2.422.132c-1.829,0-3.339-.9-3.417-2.211h5.712a1.164,1.164,0,0,0,1.162-1.162c-.069-1.515-.6-4.932-4.623-4.932A4.975,4.975,0,0,0,15.8,8.231c0,3.623,3.045,5.128,6.124,5.128,1.2,0,2.53-.132,2.53-.132a.223.223,0,0,0,.216-.206v-1.7a.215.215,0,0,0-.216-.2" transform="translate(57.39 10.698)"/>
      <path id="path14406" d="M20.788,2.2H19.469a1.171,1.171,0,0,0-1.162,1.162V15.843a.217.217,0,0,0,.216.211h2.26A.217.217,0,0,0,21,15.843V2.414a.212.212,0,0,0-.211-.211" transform="translate(66.497 8.003)"/>
      <path id="path14408" d="M11.438,8.175H9.932V4.38h1.505c2.216,0,2.358,1.427,2.358,1.878,0,.809-.579,1.917-2.358,1.917M17.605,15.8,15.458,10.69a2.2,2.2,0,0,0-1.446-1.466V9.185a3.177,3.177,0,0,0,2.672-3.226c0-1.858-.951-3.756-4.653-3.756H8.285A1.168,1.168,0,0,0,7.123,3.366V15.843a.213.213,0,0,0,.216.211H9.717a.217.217,0,0,0,.216-.211V10.352H11a1.793,1.793,0,0,1,1.785,1.309l1.691,4.177a.293.293,0,0,0,.294.211h2.687a.164.164,0,0,0,.147-.245" transform="translate(25.873 8.003)"/>
      <path id="path14410" d="M20.887,13.088h-.476c-1.741,0-1.687-.981-1.687-1.991V6.8h2.162a.213.213,0,0,0,.216-.211V5.038a.218.218,0,0,0-.216-.216H18.725V2.689a.217.217,0,0,0-.211-.216H17.2a1.168,1.168,0,0,0-1.162,1.162V4.817h-1.8a.215.215,0,0,0-.216.2V6.6a.214.214,0,0,0,.216.2h1.8v5.275c0,1.652.99,3,3.775,3h1.079a.217.217,0,0,0,.216-.211V13.3a.232.232,0,0,0-.221-.211" transform="translate(50.919 8.984)"/>
      <path id="path14412" d="M38.414,2.947a3.67,3.67,0,0,0-3.363,1.922h-.059a2.621,2.621,0,0,0-2.809-1.922,3.312,3.312,0,0,0-3.148,1.9h-.064V4.27A1.172,1.172,0,0,0,27.8,3.108H26.632a.218.218,0,0,0-.216.216v9.825a.217.217,0,0,0,.216.211H28.9a.212.212,0,0,0,.211-.211V7.693c0-1.843,1.147-2.549,2.118-2.549,1.343,0,1.481,1.226,1.481,2.451V13.14a.221.221,0,0,0,.221.211h2.255a.212.212,0,0,0,.211-.177V7.693c0-1.721,1.049-2.549,2.084-2.549,1.544,0,1.52,1.5,1.52,2.451V13.14a.218.218,0,0,0,.221.211h2.26a.217.217,0,0,0,.216-.211V6.531c0-3.368-2.368-3.584-3.28-3.584" transform="translate(95.953 10.702)"/>
    </g>
  </g>
</svg>
