<svg xmlns="http://www.w3.org/2000/svg" width="116.949" height="38.83" viewBox="0 0 116.949 38.83">
  <g id="Samsung" transform="translate(-0.011 -0.016)">
    <g id="Group_200" data-name="Group 200" transform="translate(0.011 0.016)">
      <g id="Group_197" data-name="Group 197" transform="translate(0)">
        <path id="Path_120" data-name="Path 120" d="M116.888,9.262c1.593,9.13-23.262,21.086-55.521,26.7S1.674,38.733.083,29.6,23.355,8.515,55.609,2.9,115.3.129,116.888,9.262Z" transform="translate(-0.011 -0.016)" fill="#034ea2"/>
      </g>
      <g id="Group_199" data-name="Group 199" transform="translate(16.476 12.923)">
        <g id="Group_198" data-name="Group 198">
          <path id="Path_121" data-name="Path 121" d="M3282.937,559.893l-.165-9.493h2.993v11.966h-4.3l-2.988-9.819h-.065l.167,9.819H3275.6V550.4h4.491l2.78,9.493Z" transform="translate(-3212.895 -550.018)" fill="#fff"/>
          <path id="Path_122" data-name="Path 122" d="M1129.422,551.522l-1.656,10.97H1124.5l2.241-12.091h5.379l2.233,12.091H1131.1l-1.61-10.97Z" transform="translate(-1113.794 -550.018)" fill="#fff"/>
          <path id="Path_123" data-name="Path 123" d="M1638.559,559.644l1.494-9.244h4.931l.261,12.091h-3.022l-.08-10.871h-.063l-2.021,10.871h-3.067l-2.023-10.871h-.065l-.075,10.871H1631.8l.268-12.091H1637l1.492,9.244Z" transform="translate(-1608.831 -550.018)" fill="#fff"/>
          <path id="Path_124" data-name="Path 124" d="M687.216,543.663a1.587,1.587,0,0,1,.027.9,1.049,1.049,0,0,1-1.177.812,1.082,1.082,0,0,1-1.218-1.1V543.1H681.6l0,.935c0,2.7,2.122,3.51,4.4,3.51,2.188,0,3.989-.747,4.274-2.763a6.026,6.026,0,0,0-.012-1.987c-.51-2.531-5.1-3.288-5.441-4.7a1.589,1.589,0,0,1-.012-.638,1,1,0,0,1,1.1-.81,1.033,1.033,0,0,1,1.124,1.1v.747h3.014v-.848c0-2.635-2.364-3.046-4.076-3.046-2.151,0-3.909.711-4.23,2.678a4.242,4.242,0,0,0,.027,1.634C682.3,541.381,686.592,542.1,687.216,543.663Z" transform="translate(-681.6 -534.6)" fill="#fff"/>
          <path id="Path_125" data-name="Path 125" d="M2315.862,546.276a1.566,1.566,0,0,1,.027.885,1.036,1.036,0,0,1-1.167.8,1.073,1.073,0,0,1-1.2-1.083l0-1.16h-3.21l0,.923c0,2.669,2.1,3.474,4.354,3.474,2.164,0,3.948-.737,4.23-2.734a5.778,5.778,0,0,0-.01-1.965c-.508-2.507-5.05-3.256-5.388-4.658a1.526,1.526,0,0,1-.012-.626.985.985,0,0,1,1.095-.8,1.014,1.014,0,0,1,1.11,1.083v.74h2.992v-.841c0-2.606-2.345-3.014-4.042-3.014-2.127,0-3.87.7-4.184,2.657a4.143,4.143,0,0,0,.029,1.615C2310.994,544.015,2315.246,544.726,2315.862,546.276Z" transform="translate(-2270.929 -537.235)" fill="#fff"/>
          <path id="Path_126" data-name="Path 126" d="M2788.824,560.488a1.087,1.087,0,0,0,1.158-.878,2.508,2.508,0,0,0,.029-.462V550.2h3.058v8.673c.007.222-.014.679-.026.793-.215,2.258-2,2.99-4.221,2.99s-4.01-.732-4.223-2.99c-.01-.114-.031-.573-.027-.793V550.2h3.055v8.947a2.777,2.777,0,0,0,.029.462A1.1,1.1,0,0,0,2788.824,560.488Z" transform="translate(-2733.736 -549.823)" fill="#fff"/>
          <path id="Path_127" data-name="Path 127" d="M3831.084,547.284a1.134,1.134,0,0,0,1.238-.875,2.886,2.886,0,0,0,.026-.459v-1.755h-1.24V542.43h4.289v3.246c0,.227-.008.394-.044.8-.2,2.2-2.11,2.985-4.252,2.985s-4.052-.786-4.257-2.985c-.034-.4-.039-.57-.043-.8l0-5.091c0-.215.026-.595.051-.8.268-2.26,2.1-2.988,4.247-2.988s4.022.723,4.245,2.988a7.109,7.109,0,0,1,.027.8v.4h-3.048v-.677a3.049,3.049,0,0,0-.039-.459,1.1,1.1,0,0,0-1.206-.882,1.113,1.113,0,0,0-1.2.882,2.775,2.775,0,0,0-.051.57v5.531a2.593,2.593,0,0,0,.031.459A1.117,1.117,0,0,0,3831.084,547.284Z" transform="translate(-3750.771 -536.747)" fill="#fff"/>
        </g>
      </g>
    </g>
  </g>
</svg>
