<svg xmlns="http://www.w3.org/2000/svg" xmlns:xlink="http://www.w3.org/1999/xlink" width="184.99" height="45.115" viewBox="0 0 184.99 45.115">
  <defs>
    <radialGradient id="radial-gradient" cx="0.523" cy="0.817" r="1.069" gradientTransform="translate(0.224 0) scale(0.592 1)" gradientUnits="objectBoundingBox">
      <stop offset="0" stop-color="#52a347"/>
      <stop offset="0.502" stop-color="#83b03e"/>
      <stop offset="0.706" stop-color="#2ea64c"/>
      <stop offset="0.929" stop-color="#264122"/>
      <stop offset="0.933" stop-color="#264122"/>
    </radialGradient>
    <radialGradient id="radial-gradient-2" cx="0.504" cy="0.116" r="0.788" gradientTransform="translate(0.141 0) scale(0.729 1)" gradientUnits="objectBoundingBox">
      <stop offset="0" stop-color="#52a347"/>
      <stop offset="0.502" stop-color="#83b03e"/>
      <stop offset="0.706" stop-color="#2b9940"/>
      <stop offset="0.929" stop-color="#264122"/>
      <stop offset="0.933" stop-color="#264122"/>
    </radialGradient>
  </defs>
  <g id="Sberbank" transform="translate(-2 -1.5)">
    <path id="Path_159" data-name="Path 159" d="M184,7.18h4.384a18.481,18.481,0,0,0-3.16,2.5l-4.383,4.479,2.4,3.441a63.53,63.53,0,0,0,6.6,8.2h-6.27a35.147,35.147,0,0,0-3.064-5.563L177.681,16l2.452-3.111A33.7,33.7,0,0,0,184,7.18Zm-6.647,2.074V23.68l.189,1.084a1.5,1.5,0,0,0,.848.471V25.8h-6.081v-.566l.849-.471a2.141,2.141,0,0,0,.189-1.084V9.254l-.189-1.037a1.1,1.1,0,0,0-.849-.424V7.18h6.081v.613a1.089,1.089,0,0,0-.848.424Zm-9.051,0V23.68l.189,1.084.849.471V25.8h-6.129v-.566a2.186,2.186,0,0,0,.943-.471l.14-1.084v-7.5h-7.166v7.5l.189,1.084a1.5,1.5,0,0,0,.848.471V25.8h-6.176v-.566a1.612,1.612,0,0,0,.943-.471l.189-1.084V9.254l-.189-1.037c-.126-.22-.439-.361-.943-.424V7.18h6.176v.613a1.089,1.089,0,0,0-.848.424l-.189,1.037v5.7h7.166v-5.7l-.14-1.037a1.477,1.477,0,0,0-.943-.424V7.18h6.129v.613a1.091,1.091,0,0,0-.849.424ZM166.084,38.2h2.97l-1.226,6.223h-.848l.566-2.876h-1.462l-2.027,2.876h-.943l2.074-2.924a1.563,1.563,0,0,1-1.273-1.6,1.427,1.427,0,0,1,.566-1.131A2.168,2.168,0,0,1,166.084,38.2Zm-.189,2.64h1.791l.376-1.934h-1.979a1.517,1.517,0,0,0-1.037.331.96.96,0,0,0-.284.707Q164.764,40.841,165.9,40.84Zm-7.26-1.037-.612,3.111a2.026,2.026,0,0,0,1.6.9,1.9,1.9,0,0,0,1.555-.9,3.92,3.92,0,0,0,.66-2.309,2.143,2.143,0,0,0-.377-1.367,1.306,1.306,0,0,0-1.083-.471A2.065,2.065,0,0,0,158.635,39.8Zm.236-1.6-.141.754.8-.66,1.038-.236a1.938,1.938,0,0,1,1.555.66,2.894,2.894,0,0,1,.567,1.933,4.22,4.22,0,0,1-.9,2.781,2.6,2.6,0,0,1-2.121,1.083l-1.038-.189-.754-.566-.612,3.159h-.849l1.7-8.722h.753Zm14.9,0,.707,5.47h.612l-.376,1.933h-.66l.14-1.179H170l-.331,1.179h-.612l.33-1.933h.566l2.593-5.47Zm-.8.8L170.8,43.669h2.781L173.155,39Zm2.923,2.829a3.952,3.952,0,0,1,.943-2.688,2.551,2.551,0,0,1,2.073-1.083,1.884,1.884,0,0,1,1.6.754,2.924,2.924,0,0,1,.613,1.98,4.137,4.137,0,0,1-.9,2.641,2.639,2.639,0,0,1-2.074,1.083,2.074,2.074,0,0,1-1.65-.707A2.934,2.934,0,0,1,175.89,41.83Zm13.954-9.523H53.411V30.469H189.844Zm-5.28,5.893.707,5.374,2.593-5.374h1.367l-1.226,6.224h-.8l1.037-5.469-2.734,5.469h-.8l-.8-5.469-1.084,5.469h-.8l1.226-6.224ZM179.9,39.285a1.341,1.341,0,0,0-1.084-.519,1.728,1.728,0,0,0-1.414.9,3.92,3.92,0,0,0-.66,2.309,2.088,2.088,0,0,0,.424,1.367,1.208,1.208,0,0,0,.99.471,1.873,1.873,0,0,0,1.51-.9,4.054,4.054,0,0,0,.612-2.262A2.277,2.277,0,0,0,179.9,39.285ZM138.646,7.793V7.18h5.373a9.588,9.588,0,0,0,.66,2.734l3.96,11.126a35.886,35.886,0,0,0,1.933,4.761h-4.714l-2.026-6.694h-5.988l-1.273,4.431-.377,2.263H132.8l6.033-13.954a10.183,10.183,0,0,0,.9-3.017C139.731,8.233,139.369,7.887,138.646,7.793Zm2.216,2.5-2.546,7.5h5.091Zm-9.523.943H130.3l-.236-.8a2.784,2.784,0,0,0-1.131-1.791l-2.593-.33h-2.5a1.636,1.636,0,0,0-1.131.283,1.194,1.194,0,0,0-.236.849v4.431h1.037q4.526,0,6.27.9,2.5,1.226,2.5,4.809,0,3.489-1.981,5A9.53,9.53,0,0,1,124.88,25.8h-7.448v-.566l.895-.471.141-1.084V9.254l-.141-1.037a1.147,1.147,0,0,0-.895-.424V7.18h13.907Zm-8.863,3.819V23.02a1.634,1.634,0,0,0,.33,1.226,1.842,1.842,0,0,0,1.32.377h.566a2.991,2.991,0,0,0,2.641-1.226,6.724,6.724,0,0,0,.754-3.63,5.816,5.816,0,0,0-.8-3.489,3.587,3.587,0,0,0-3.159-1.226h-1.65Zm1.179,21.12a2.1,2.1,0,0,1,.566,1.555,2.013,2.013,0,0,1-.519,1.414,3.1,3.1,0,0,1-1.509.8,2.036,2.036,0,0,1,1.461,1.933,2.248,2.248,0,0,1-.849,1.886,3.715,3.715,0,0,1-2.4.66h-2.97l1.65-8.817h2.781A2.558,2.558,0,0,1,123.655,36.173Zm-3.819.236-.613,3.064h1.745A2.813,2.813,0,0,0,122.713,39a1.6,1.6,0,0,0,.613-1.274,1.164,1.164,0,0,0-.377-.99,2.055,2.055,0,0,0-1.273-.33h-1.84Zm5.8,5.421a1.921,1.921,0,0,0,.471,1.414,1.5,1.5,0,0,0,1.226.519l1.083-.33.613-.849.66.283-.943,1.179a2.4,2.4,0,0,1-1.51.471,2.2,2.2,0,0,1-1.744-.754,2.967,2.967,0,0,1-.66-2.027,4.084,4.084,0,0,1,.849-2.593A2.594,2.594,0,0,1,127.8,38.06a2.026,2.026,0,0,1,1.414.471,3.009,3.009,0,0,1,.848,1.319l-.8.141a1.43,1.43,0,0,0-1.461-1.226,1.9,1.9,0,0,0-1.51.848A3.647,3.647,0,0,0,125.635,41.83Zm-4.95-1.6h-1.6l-.613,3.394h2.074a2.434,2.434,0,0,0,1.6-.471,1.6,1.6,0,0,0,.047-2.4A2.263,2.263,0,0,0,120.685,40.227Zm15.322,1.084h-4.383l-.047.519a2.093,2.093,0,0,0,.471,1.461,1.438,1.438,0,0,0,1.179.519,1.625,1.625,0,0,0,1.13-.424l.8-1.037.707.377L134.687,44a2.515,2.515,0,0,1-1.6.519,2.126,2.126,0,0,1-1.7-.707,3.038,3.038,0,0,1-.613-1.98,4.112,4.112,0,0,1,.849-2.688,2.768,2.768,0,0,1,2.216-1.083,2.051,2.051,0,0,1,1.65.66,2.424,2.424,0,0,1,.613,1.791Zm-1.084-2.074a1.4,1.4,0,0,0-1.084-.471,1.69,1.69,0,0,0-1.319.519,2.923,2.923,0,0,0-.755,1.32h3.441l.047-.377A1.563,1.563,0,0,0,134.922,39.237Zm2.027,5.186,1.226-6.223h3.488l-.14.707h-2.687l-1.084,5.516ZM143.974,39l-2.169,4.667h2.781L144.162,39Zm.8-.8.707,5.47h.612l-.376,1.933h-.613l.094-1.179H141l-.331,1.179h-.612l.33-1.933h.566l2.593-5.47Zm2.263,4.573a1.667,1.667,0,0,1,.849-1.51,4.679,4.679,0,0,1,2.5-.566h.849l.048-.706a1.115,1.115,0,0,0-.33-.9,1.526,1.526,0,0,0-1.038-.33,2.128,2.128,0,0,0-1.366.707l-.52-.519a3.143,3.143,0,0,1,2.027-.9,2.145,2.145,0,0,1,1.509.519,1.714,1.714,0,0,1,.567,1.32l-.1.943-.423,2.074a7.184,7.184,0,0,0-.141,1.51h-.8l-.048-.707-.848.566-.99.236A1.582,1.582,0,0,1,147.556,44,1.682,1.682,0,0,1,147.038,42.773Zm3.441-1.414q-2.592,0-2.593,1.319a1.192,1.192,0,0,0,.283.8,1.092,1.092,0,0,0,.8.33,3.309,3.309,0,0,0,1.791-.8l.33-1.65Zm-34.7-28.852q0,3.253-1.981,4.667a9.086,9.086,0,0,1-5.28,1.226h-1.886v5.28l.189,1.084q.141.283.895.471V25.8H101.59v-.566l.849-.471.189-1.084V9.254l-.189-1.037a1.1,1.1,0,0,0-.849-.424V7.18h7.731a8.75,8.75,0,0,1,4.62.943Q115.783,9.349,115.782,12.507ZM106.919,8.5q-.283.188-.283.849v7.873h1.886a2.546,2.546,0,0,0,2.451-1.32,8.056,8.056,0,0,0,.613-3.583q0-4.007-3.347-4.007h-.471Zm-8.156,2.734h-.99l-.236-.8a3.23,3.23,0,0,0-1.179-1.791l-2.546-.33H91.739l-.754.189-.189.707v5.751h2.451a6.521,6.521,0,0,0,3.347-.566V16.75a6.518,6.518,0,0,0-3.347-.566H90.8v6.977a1.248,1.248,0,0,0,.566,1.179l2.357.283h.519l2.546-.377a3.313,3.313,0,0,0,1.037-2.074l.189-.707h1.179V25.8H85.752v-.566a1.551,1.551,0,0,0,.9-.471l.189-1.084V9.254l-.189-1.037a1.15,1.15,0,0,0-.9-.424V7.18H98.763v4.054Zm-16.076,0H81.7l-.236-.8a2.942,2.942,0,0,0-1.179-1.791l-2.5-.33H75.192a1.751,1.751,0,0,0-1.131.283,1.787,1.787,0,0,0-.141.849v4.431h1.037q4.479,0,6.27.9Q83.677,16,83.677,19.579q0,3.489-1.98,5Q80,25.8,76.276,25.8h-7.5v-.566a1.609,1.609,0,0,0,.943-.471l.189-1.084V9.254l-.189-1.037q-.188-.33-.943-.424V7.18H82.687ZM63.924,8.689a4.546,4.546,0,0,0-2.64-.613,4.228,4.228,0,0,0-4.007,2.074A12.767,12.767,0,0,0,56.287,16a12.686,12.686,0,0,0,1.084,5.987,4.731,4.731,0,0,0,4.526,2.4,10.514,10.514,0,0,0,4.667-1.131l.566,1.179a11.836,11.836,0,0,1-6.317,1.65q-8.863,0-8.863-9.382,0-9.852,9.193-9.853a13.652,13.652,0,0,1,5.421.849v3.866H65.386l-.33-1.131A3.4,3.4,0,0,0,63.924,8.689Zm9.994,6.364V23.02a1.825,1.825,0,0,0,.283,1.226,1.922,1.922,0,0,0,1.367.377h.519q3.394,0,3.394-4.856a5.817,5.817,0,0,0-.8-3.489,3.722,3.722,0,0,0-3.206-1.226H73.919Z" transform="translate(-2.854 -0.306)" fill="#006236" fill-rule="evenodd"/>
    <path id="Path_160" data-name="Path 160" d="M32.9,3.9l1.65,1.509L13.712,17.387,3.623,11.542l.943-1.886,9.146,5.233ZM28.7,1.5l2.216,1.131-17.207,9.9L5.7,7.959l1.367-1.65,6.647,3.819ZM36.01,6.969l1.226,1.65L13.712,22.149,2.35,15.643l.519-2.074,10.843,6.223Z" transform="translate(-0.02)" fill-rule="evenodd" fill="url(#radial-gradient)"/>
    <path id="Path_161" data-name="Path 161" d="M39.385,13.59a18.2,18.2,0,0,1,1.037,6.129,19.017,19.017,0,0,1-1.037,6.223l-.471,1.274a19.6,19.6,0,0,1-4.1,6.129A18.953,18.953,0,0,1,28.683,37.4a18.842,18.842,0,0,1-7.5,1.556,18.639,18.639,0,0,1-7.5-1.556A19.814,19.814,0,0,1,7.61,33.344a18.593,18.593,0,0,1-4.1-6.129A19.357,19.357,0,0,1,2,19.719V18.446l11.692,6.647L38.347,10.95Z" transform="translate(0 -0.54)" fill-rule="evenodd" fill="url(#radial-gradient-2)"/>
  </g>
</svg>
