<svg xmlns="http://www.w3.org/2000/svg" width="65.326" height="49.123" viewBox="0 0 65.326 49.123">
  <g id="Skolkovo" transform="translate(-300.689 547.069)">
    <g id="g4151" transform="translate(289.941 -559.637)">
      <path id="path4088" d="M413.693-512.877a2.227,2.227,0,0,0-2.394-1.915c-1.082,0-2.717.774-2.717,3.819,0,1.934.817,3.726,2.717,3.726a2.344,2.344,0,0,0,2.394-2.077h2.247a4.479,4.479,0,0,1-4.682,3.983c-2.867,0-4.92-1.95-4.92-5.663,0-3.776,2.171-5.69,4.948-5.69a4.293,4.293,0,0,1,4.654,3.817Z" transform="translate(-395.59 567.033)" fill="#bfdf14"/>
      <path id="path4090" d="M437.925-504.817l2.641-3.033h2.573l-2.808,3.089,2.883,4.907H440.7l-1.905-3.434-.871.909v2.525h-2.1v-8h2.1Z" transform="translate(-414.825 561.264)" fill="#bfdf14"/>
      <path id="path4092" d="M463.82-504.258a3.893,3.893,0,0,1-4.074,4.223,3.888,3.888,0,0,1-4.086-4.2,3.89,3.89,0,0,1,4.086-4.209,3.865,3.865,0,0,1,4.074,4.19m-6,0c0,1.024.311,2.45,1.93,2.45s1.918-1.41,1.918-2.431-.3-2.438-1.918-2.438-1.93,1.395-1.93,2.42" transform="translate(-427.76 561.655)" fill="#bfdf14"/>
      <path id="path4094" d="M486.758-507.852v8h-2.1v-6.314h-2.243v2.466c0,3.058-.921,4.023-2.394,4.023a4.528,4.528,0,0,1-1.275-.175v-1.564a2.081,2.081,0,0,0,.62.06c.63,0,.956-.311.956-2.745v-3.747h6.433Z" transform="translate(-442.821 561.266)" fill="#bfdf14"/>
      <path id="path4096" d="M506.956-504.817l2.641-3.033h2.573l-2.811,3.089,2.886,4.907h-2.514l-1.9-3.434-.874.909v2.525h-2.1v-8h2.1Z" transform="translate(-459.852 561.264)" fill="#bfdf14"/>
      <path id="path4098" d="M532.857-504.258a3.89,3.89,0,0,1-4.07,4.223,3.886,3.886,0,0,1-4.086-4.2,3.888,3.888,0,0,1,4.086-4.209,3.863,3.863,0,0,1,4.07,4.19m-6,0c0,1.024.31,2.45,1.93,2.45s1.921-1.41,1.921-2.431-.308-2.438-1.921-2.438-1.93,1.395-1.93,2.42" transform="translate(-472.793 561.655)" fill="#bfdf14"/>
      <path id="path4100" d="M550.111-507.851h3.61c1.786,0,3.092.731,3.092,2.066a1.782,1.782,0,0,1-1.489,1.723,2,2,0,0,1,1.726,2.025c0,1.481-1.121,2.184-2.932,2.184h-4.007Zm2.093,3.237h1.367c.7,0,1.188-.279,1.188-.906,0-.652-.474-.89-1.172-.89H552.2Zm0,3.318h1.542c.774,0,1.254-.238,1.254-1.028,0-.7-.5-1.022-1.278-1.022H552.2Z" transform="translate(-489.367 561.265)" fill="#bfdf14"/>
      <path id="path4102" d="M578.893-504.258a3.889,3.889,0,0,1-4.07,4.223,3.89,3.89,0,0,1-4.09-4.2,3.892,3.892,0,0,1,4.09-4.209,3.861,3.861,0,0,1,4.07,4.19m-6,0c0,1.024.316,2.45,1.933,2.45s1.915-1.41,1.915-2.431-.295-2.438-1.915-2.438-1.933,1.395-1.933,2.42" transform="translate(-502.818 561.655)" fill="#bfdf14"/>
      <path id="path4104" d="M422.791-589.349c1.786,0,6.186-.313,9.473-2.713v1.821H438.9l.007-8.006,2.77-2.867,6.029,10.873h7.958l-9.134-15.536,8.9-9.792h-8.147l-8.373,9.608v-18.456h-6.64v2.92c-2.022-2.171-5.3-3.813-10.41-3.813-11.062,0-13.139,6.73-13.139,10.5,0,5.176,2.783,8.053,7.63,9.228l6.872,1.692c3.625.9,6.216,1.554,6.216,4.237,0,3.579-3.769,4.424-7.16,4.424-6.214,0-7.248-3.623-7.248-5.552H408.2c0,4.236,2.165,11.437,14.593,11.437m4.522-20.38-8.329-2.028c-1.416-.329-3.629-.9-3.629-3.575,0-3.061,3.25-4.1,5.98-4.1,6.214,0,6.781,3.628,6.966,5.179h3.964v6.371a19.087,19.087,0,0,0-4.951-1.849" transform="translate(-396.803 637.88)" fill="#bfdf14"/>
    </g>
  </g>
</svg>
