<svg xmlns="http://www.w3.org/2000/svg" width="157.474" height="49.03" viewBox="0 0 157.474 49.03">
  <g id="sukhoi-civil-aircraft" transform="translate(-26.382 -233.982)">
    <path id="Path_162" data-name="Path 162" d="M34.155,261.281a14.038,14.038,0,1,1,19.552-3.438,14.022,14.022,0,0,1-19.552,3.438m17.112-24.434a15.81,15.81,0,1,0,3.884,22.019,15.8,15.8,0,0,0-3.884-22.019" transform="translate(0 0)" fill="#a8a8a7"/>
    <path id="Path_163" data-name="Path 163" d="M49.481,269.427l-2.231-6.141H40.715l12.466-8.5ZM34.6,265.176l11.312.026,3.858,10.655L56.278,250.4Z" transform="translate(-6.061 -12.109)" fill="#a8a8a7"/>
    <path id="Path_164" data-name="Path 164" d="M299.96,255.825h-6.482V275.22h6.482Zm-18.66,15.9c-4.173,0-5.249-3.071-5.249-6.141,0-3.333,1.129-6.4,5.275-6.4a4.828,4.828,0,0,1,3.779,1.391,7.286,7.286,0,0,1,1.443,4.908c0,2.7-.761,6.246-5.249,6.246m.236-16.429c-1.653,0-6.01.21-8.871,2.677s-3.123,6.351-3.123,7.637c0,7.217,5.616,10.078,11.653,10.078,5.406,0,11.81-2.362,11.81-10.1.052-4.724-2.415-10.288-11.469-10.288m-84.351,8.5-4.252-.945c-.919-.21-2.283-.577-2.283-1.995,0-1.155,1.155-2.047,2.992-2.047,3.018,0,2.992,2.1,2.992,2.677h6.378c-.026-2.073-.42-6.168-9.264-6.168-6.8,0-9.553,2.939-9.553,6.063,0,4.068,4.042,4.96,5.616,5.328l5.564,1.234c1.522.341,1.942.971,1.942,1.89,0,2.2-2.834,2.2-3.359,2.2-3.753,0-3.805-2.231-3.832-3.018H183.8a5.7,5.7,0,0,0,1.732,4.3c2.073,1.995,5.879,2.31,8.241,2.31,5.7,0,10.026-1.942,10.026-6.272-.026-4.068-3.6-4.882-6.614-5.564m22.807,3.359c0,1.942-.525,4.7-4.514,4.7a4.892,4.892,0,0,1-3.858-1.575,4.7,4.7,0,0,1-.735-2.939V255.825h-6.351l-.026,11.049c0,3.176.026,8.871,10.76,8.871,2.861,0,6.929-.446,9.107-2.756,1.417-1.417,1.758-3.753,1.758-5.905V255.851h-6.141Zm42.91-3.753h-7.585v-7.585h-6.351v19.264l-8.188-8.635,8.057-10.629h-7.454l-7.27,9.5v-9.5h-6.377V275.22h6.377l3.2-4.252,4.33,4.252h13.621v-7.847h7.611v7.847h6.377V255.825h-6.377v7.585Z" transform="translate(-116.104 -15.723)" fill="#004379"/>
    <path id="Path_165" data-name="Path 165" d="M187.715,357.984l1.181.367A2.583,2.583,0,0,1,188,359.8a2.551,2.551,0,0,1-1.575.472,2.6,2.6,0,0,1-1.968-.814,3.074,3.074,0,0,1-.761-2.231,3.309,3.309,0,0,1,.761-2.31,2.631,2.631,0,0,1,2.021-.814,2.417,2.417,0,0,1,1.785.656,2.466,2.466,0,0,1,.6,1.1l-1.207.289a1.228,1.228,0,0,0-1.26-1,1.338,1.338,0,0,0-1.076.472,2.277,2.277,0,0,0-.42,1.548,2.469,2.469,0,0,0,.42,1.627,1.321,1.321,0,0,0,1.05.472,1.238,1.238,0,0,0,.84-.315,1.894,1.894,0,0,0,.5-.971" transform="translate(-116.03 -88.593)" fill="#a8a8a7"/>
    <rect id="Rectangle_55" data-name="Rectangle 55" width="1.207" height="5.984" transform="translate(73.864 265.612)" fill="#a8a8a7"/>
    <path id="Path_166" data-name="Path 166" d="M216.052,360.458,213.9,354.5h1.312l1.522,4.409,1.443-4.409h1.286l-2.126,5.958Z" transform="translate(-138.304 -88.888)" fill="#a8a8a7"/>
    <rect id="Rectangle_56" data-name="Rectangle 56" width="1.207" height="5.984" transform="translate(81.737 265.612)" fill="#a8a8a7"/>
    <path id="Path_167" data-name="Path 167" d="M246.4,360.531V354.6h1.207v4.934h3.018v1Z" transform="translate(-162.275 -88.962)" fill="#a8a8a7"/>
    <path id="Path_168" data-name="Path 168" d="M274.279,358.022l-.814-2.231-.814,2.231Zm2.231,2.362H275.2l-.525-1.365h-2.388l-.5,1.365H270.5l2.336-5.984h1.286Z" transform="translate(-180.05 -88.814)" fill="#a8a8a7"/>
    <rect id="Rectangle_57" data-name="Rectangle 57" width="1.207" height="5.984" transform="translate(97.064 265.612)" fill="#a8a8a7"/>
    <path id="Path_169" data-name="Path 169" d="M305.907,356.946h.892a4.159,4.159,0,0,0,1.076-.079.58.58,0,0,0,.341-.262.813.813,0,0,0,.131-.446.757.757,0,0,0-.157-.5.679.679,0,0,0-.446-.236c-.1,0-.394-.026-.892-.026h-.945Zm-1.207,3.438V354.4h2.546a4.465,4.465,0,0,1,1.391.157,1.372,1.372,0,0,1,.709.577,1.6,1.6,0,0,1,.262.945,1.576,1.576,0,0,1-.394,1.1,1.923,1.923,0,0,1-1.181.551,3.31,3.31,0,0,1,.656.5,7.71,7.71,0,0,1,.682.971l.735,1.155h-1.443l-.866-1.312a7.55,7.55,0,0,0-.63-.866.638.638,0,0,0-.367-.236,1.762,1.762,0,0,0-.6-.079h-.236v2.493H304.7Z" transform="translate(-205.274 -88.814)" fill="#a8a8a7"/>
    <path id="Path_170" data-name="Path 170" d="M330.915,357.984l1.181.367a2.583,2.583,0,0,1-.892,1.443,2.551,2.551,0,0,1-1.575.472,2.6,2.6,0,0,1-1.968-.814,3.191,3.191,0,0,1-.761-2.231,3.309,3.309,0,0,1,.761-2.31,2.631,2.631,0,0,1,2.021-.814,2.417,2.417,0,0,1,1.785.656,2.466,2.466,0,0,1,.6,1.1l-1.207.289a1.228,1.228,0,0,0-1.26-1,1.338,1.338,0,0,0-1.076.472,2.277,2.277,0,0,0-.42,1.548,2.469,2.469,0,0,0,.42,1.627,1.321,1.321,0,0,0,1.05.472,1.238,1.238,0,0,0,.84-.315,1.717,1.717,0,0,0,.5-.971" transform="translate(-221.647 -88.593)" fill="#a8a8a7"/>
    <path id="Path_171" data-name="Path 171" d="M351.907,356.946h.892a4.159,4.159,0,0,0,1.076-.079.672.672,0,0,0,.341-.262.813.813,0,0,0,.131-.446.757.757,0,0,0-.157-.5.679.679,0,0,0-.446-.236c-.1,0-.394-.026-.892-.026h-.945v1.548Zm-1.207,3.438V354.4h2.546a4.466,4.466,0,0,1,1.391.157,1.372,1.372,0,0,1,.709.577,1.6,1.6,0,0,1,.262.945,1.576,1.576,0,0,1-.394,1.1,1.923,1.923,0,0,1-1.181.551,3.31,3.31,0,0,1,.656.5,5.672,5.672,0,0,1,.682.971l.735,1.155h-1.443l-.866-1.312a7.556,7.556,0,0,0-.63-.866.638.638,0,0,0-.367-.236,1.762,1.762,0,0,0-.6-.079h-.236v2.493H350.7Z" transform="translate(-239.201 -88.814)" fill="#a8a8a7"/>
    <path id="Path_172" data-name="Path 172" d="M375.079,358.022l-.814-2.231-.814,2.231Zm2.231,2.362H376l-.525-1.365h-2.388l-.5,1.365H371.3l2.336-5.984h1.286Z" transform="translate(-254.395 -88.814)" fill="#a8a8a7"/>
    <path id="Path_173" data-name="Path 173" d="M396.7,360.458V354.5h4.094v1h-2.887v1.417H400.4v1.024h-2.493v2.52Z" transform="translate(-273.129 -88.888)" fill="#a8a8a7"/>
    <path id="Path_174" data-name="Path 174" d="M416.185,360.458V355.5H414.4v-1h4.75v1h-1.758v4.96Z" transform="translate(-286.183 -88.888)" fill="#a8a8a7"/>
    <path id="Path_175" data-name="Path 175" d="M184.712,401.251h1.548l-.472-1.26a7.905,7.905,0,0,1-.315-.945,5.314,5.314,0,0,1-.236.866Zm-1.312,1.863,1.732-4.514h.656l1.837,4.514h-.656l-.525-1.365h-1.89l-.5,1.365Z" transform="translate(-115.809 -121.414)" fill="#004379"/>
    <path id="Path_176" data-name="Path 176" d="M206,401.349l.577-.052a1.054,1.054,0,0,0,.184.551.973.973,0,0,0,.446.341,1.971,1.971,0,0,0,.682.131,1.459,1.459,0,0,0,.6-.1.776.776,0,0,0,.394-.289.707.707,0,0,0,.131-.394.627.627,0,0,0-.131-.367.889.889,0,0,0-.42-.262,4.718,4.718,0,0,0-.814-.21,3.224,3.224,0,0,1-.866-.289,1.239,1.239,0,0,1-.472-.42,1.033,1.033,0,0,1-.157-.551,1.046,1.046,0,0,1,.184-.63,1.116,1.116,0,0,1,.577-.446,2.085,2.085,0,0,1,.84-.157,2.354,2.354,0,0,1,.892.157,1.356,1.356,0,0,1,.6.472,1.32,1.32,0,0,1,.21.709l-.577.052a.924.924,0,0,0-.315-.656,1.173,1.173,0,0,0-.787-.21,1.09,1.09,0,0,0-.787.21.626.626,0,0,0-.262.472.472.472,0,0,0,.184.394,2.283,2.283,0,0,0,.892.315,5.486,5.486,0,0,1,1,.289,1.516,1.516,0,0,1,.577.472,1.046,1.046,0,0,1,.184.63,1.3,1.3,0,0,1-.21.682,1.44,1.44,0,0,1-.6.5,2.506,2.506,0,0,1-1.89,0,1.358,1.358,0,0,1-.656-.551,1.462,1.462,0,0,1-.21-.787" transform="translate(-132.477 -121.119)" fill="#004379"/>
    <path id="Path_177" data-name="Path 177" d="M224.578,406.581v-.472a1.218,1.218,0,0,1-1.05.551,1.371,1.371,0,0,1-.551-.1.824.824,0,0,1-.367-.289,1.257,1.257,0,0,1-.184-.42,2.72,2.72,0,0,1-.026-.525V403.3h.551v1.811a2.894,2.894,0,0,0,.026.577.513.513,0,0,0,.21.341.726.726,0,0,0,.42.131,1.07,1.07,0,0,0,.472-.131.786.786,0,0,0,.315-.341,2.048,2.048,0,0,0,.079-.63V403.3h.551v3.281Z" transform="translate(-144.573 -124.881)" fill="#004379"/>
    <path id="Path_178" data-name="Path 178" d="M235.9,403.04V398.5h.551v2.6l1.338-1.338h.709l-1.26,1.207,1.391,2.073h-.682l-1.1-1.68-.394.367v1.312Z" transform="translate(-154.53 -121.34)" fill="#004379"/>
    <path id="Path_179" data-name="Path 179" d="M247.9,403.114V398.6h.551v1.627a1.26,1.26,0,0,1,.971-.446,1.586,1.586,0,0,1,.63.131.947.947,0,0,1,.394.394,1.813,1.813,0,0,1,.1.735v2.073h-.525v-2.073a.794.794,0,0,0-.184-.6.677.677,0,0,0-.525-.184,1.07,1.07,0,0,0-.472.131.786.786,0,0,0-.315.341,1.868,1.868,0,0,0-.079.6v1.785Z" transform="translate(-163.381 -121.414)" fill="#004379"/>
    <path id="Path_180" data-name="Path 180" d="M261.151,404.706a1.559,1.559,0,0,0,.262.945.884.884,0,0,0,.682.315.846.846,0,0,0,.682-.315,1.432,1.432,0,0,0,.262-.971,1.249,1.249,0,0,0-.289-.919.884.884,0,0,0-.682-.315.846.846,0,0,0-.682.315,1.777,1.777,0,0,0-.236.945m-.551,0a1.651,1.651,0,0,1,.5-1.338,1.577,1.577,0,0,1,1.024-.367,1.5,1.5,0,0,1,1.1.446,1.677,1.677,0,0,1,.42,1.234,2.114,2.114,0,0,1-.184,1,1.654,1.654,0,0,1-.551.577,1.6,1.6,0,0,1-.787.21,1.462,1.462,0,0,1-1.1-.446,1.879,1.879,0,0,1-.42-1.312" transform="translate(-172.748 -124.659)" fill="#004379"/>
    <path id="Path_181" data-name="Path 181" d="M274.7,403.114h.551v-3.281H274.7Zm0-3.884h.551v-.63H274.7Z" transform="translate(-183.147 -121.414)" fill="#004379"/>
    <path id="Path_182" data-name="Path 182" d="M288.283,404.78a4,4,0,0,1-.919.21,2.163,2.163,0,0,0-.472.1.486.486,0,0,0-.21.184.443.443,0,0,0-.079.262.477.477,0,0,0,.157.367.711.711,0,0,0,.5.157,1.431,1.431,0,0,0,.577-.131.889.889,0,0,0,.367-.394,1.533,1.533,0,0,0,.079-.551v-.21Zm.052,1.234a1.867,1.867,0,0,1-.6.367,1.54,1.54,0,0,1-.6.1,1.2,1.2,0,0,1-.84-.262.91.91,0,0,1-.289-.682.863.863,0,0,1,.1-.446.834.834,0,0,1,.289-.315,1.809,1.809,0,0,1,.394-.184,4,4,0,0,1,.5-.079,4.869,4.869,0,0,0,1-.184V404.2a.566.566,0,0,0-.157-.472.862.862,0,0,0-.63-.184,1.1,1.1,0,0,0-.577.131,1,1,0,0,0-.289.5l-.551-.079a1.343,1.343,0,0,1,.236-.551,1.2,1.2,0,0,1,.5-.341,2.164,2.164,0,0,1,.735-.1,1.7,1.7,0,0,1,.682.1.918.918,0,0,1,.394.236,1.6,1.6,0,0,1,.184.367,2.422,2.422,0,0,1,.026.5v.735a7.755,7.755,0,0,0,.026.971,2.312,2.312,0,0,0,.131.394h-.577q-.039-.157-.079-.394" transform="translate(-191.482 -124.733)" fill="#004379"/>
    <path id="Path_183" data-name="Path 183" d="M300.2,406.359v-3.281h.5v.472a1.158,1.158,0,0,1,1.05-.551,1.291,1.291,0,0,1,.551.1.825.825,0,0,1,.367.289,1.557,1.557,0,0,1,.184.42,2.882,2.882,0,0,1,.026.551v2.021h-.551v-1.995a2.035,2.035,0,0,0-.052-.5.575.575,0,0,0-.236-.262.633.633,0,0,0-.394-.1.831.831,0,0,0-.6.236,1.1,1.1,0,0,0-.262.866v1.785H300.2Z" transform="translate(-201.955 -124.659)" fill="#004379"/>
    <path id="Path_184" data-name="Path 184" d="M313.351,401.461a1.4,1.4,0,0,0,.262.945.82.82,0,0,0,.63.315.882.882,0,0,0,.63-.289,1.473,1.473,0,0,0,.262-.919,1.511,1.511,0,0,0-.262-1,.787.787,0,0,0-1.26,0,1.558,1.558,0,0,0-.262.945m1.758,1.653v-.42a1.067,1.067,0,0,1-.919.5,1.32,1.32,0,0,1-.709-.21,1.272,1.272,0,0,1-.5-.6,1.94,1.94,0,0,1-.184-.892,2.452,2.452,0,0,1,.157-.892,1.14,1.14,0,0,1,.5-.6,1.411,1.411,0,0,1,.735-.21,1.2,1.2,0,0,1,.525.131.873.873,0,0,1,.367.315V398.6h.551v4.514Z" transform="translate(-211.248 -121.414)" fill="#004379"/>
    <path id="Path_185" data-name="Path 185" d="M331.986,401.251h1.548l-.472-1.26a7.905,7.905,0,0,1-.315-.945,5.314,5.314,0,0,1-.236.866Zm-1.286,1.863,1.732-4.514h.656l1.837,4.514h-.682l-.525-1.365h-1.89l-.5,1.365Z" transform="translate(-224.45 -121.414)" fill="#004379"/>
    <rect id="Rectangle_58" data-name="Rectangle 58" width="0.551" height="4.514" transform="translate(110.869 277.16)" fill="#004379"/>
    <path id="Path_186" data-name="Path 186" d="M353.677,404.465h1.837a1.271,1.271,0,0,0-.21-.63.846.846,0,0,0-.682-.315.871.871,0,0,0-.656.262,1.018,1.018,0,0,0-.289.682m1.837.892.577.079a1.371,1.371,0,0,1-.5.787,1.5,1.5,0,0,1-.945.289,1.481,1.481,0,0,1-1.129-.446,1.677,1.677,0,0,1-.42-1.234,1.81,1.81,0,0,1,.42-1.286,1.408,1.408,0,0,1,1.1-.446,1.444,1.444,0,0,1,1.076.446,1.7,1.7,0,0,1,.42,1.26v.157h-2.441a1.353,1.353,0,0,0,.315.84.953.953,0,0,0,.682.289.887.887,0,0,0,.525-.157,3.808,3.808,0,0,0,.315-.577" transform="translate(-240.971 -124.733)" fill="#004379"/>
    <path id="Path_187" data-name="Path 187" d="M367.1,406.359v-3.281h.5v.472a1.158,1.158,0,0,1,1.05-.551,1.291,1.291,0,0,1,.551.1.825.825,0,0,1,.367.289,1.557,1.557,0,0,1,.184.42,2.882,2.882,0,0,1,.026.551v2.021h-.551v-1.995a2.035,2.035,0,0,0-.052-.5.575.575,0,0,0-.236-.262.633.633,0,0,0-.394-.1.831.831,0,0,0-.6.236,1.1,1.1,0,0,0-.262.866v1.785H367.1Z" transform="translate(-251.297 -124.659)" fill="#004379"/>
    <path id="Path_188" data-name="Path 188" d="M380.5,403.114h.551v-3.281H380.5Zm0-3.884h.551v-.63H380.5Z" transform="translate(-261.18 -121.414)" fill="#004379"/>
    <path id="Path_189" data-name="Path 189" d="M387.383,404.78a4,4,0,0,1-.919.21,2.163,2.163,0,0,0-.472.1.486.486,0,0,0-.21.184.443.443,0,0,0-.079.262.477.477,0,0,0,.157.367.711.711,0,0,0,.5.157,1.431,1.431,0,0,0,.577-.131.889.889,0,0,0,.367-.394,1.533,1.533,0,0,0,.079-.551Zm.052,1.234a1.867,1.867,0,0,1-.6.367,1.54,1.54,0,0,1-.6.1,1.2,1.2,0,0,1-.84-.262.91.91,0,0,1-.289-.682.863.863,0,0,1,.1-.446.834.834,0,0,1,.289-.315,2.649,2.649,0,0,1,.394-.184,4,4,0,0,1,.5-.079,4.869,4.869,0,0,0,1-.184V404.2a.566.566,0,0,0-.157-.472.862.862,0,0,0-.63-.184,1.1,1.1,0,0,0-.577.131,1,1,0,0,0-.289.5l-.551-.079a1.343,1.343,0,0,1,.236-.551,1.2,1.2,0,0,1,.5-.341,2.164,2.164,0,0,1,.735-.1,1.777,1.777,0,0,1,.682.1.919.919,0,0,1,.394.236,1.6,1.6,0,0,1,.184.367,2.422,2.422,0,0,1,.026.5v.735a7.755,7.755,0,0,0,.026.971,2.31,2.31,0,0,0,.131.394h-.577a1.488,1.488,0,0,1-.079-.394" transform="translate(-264.573 -124.733)" fill="#004379"/>
    <path id="Path_190" data-name="Path 190" d="M404.286,401.251h1.522l-.472-1.26a4.943,4.943,0,0,1-.315-.945,5.314,5.314,0,0,1-.236.866ZM403,403.114l1.732-4.514h.656l1.837,4.514h-.682l-.525-1.365h-1.89l-.5,1.365Z" transform="translate(-277.775 -121.414)" fill="#004379"/>
    <path id="Path_191" data-name="Path 191" d="M420.577,404.465h1.837a1.271,1.271,0,0,0-.21-.63.884.884,0,0,0-.682-.315.871.871,0,0,0-.656.262,1.159,1.159,0,0,0-.289.682m1.837.892.577.079a1.371,1.371,0,0,1-.5.787,1.5,1.5,0,0,1-.945.289,1.481,1.481,0,0,1-1.129-.446,1.677,1.677,0,0,1-.42-1.234,1.81,1.81,0,0,1,.42-1.286,1.408,1.408,0,0,1,1.1-.446,1.444,1.444,0,0,1,1.076.446,1.7,1.7,0,0,1,.42,1.26v.157h-2.441a1.353,1.353,0,0,0,.315.84.953.953,0,0,0,.682.289.887.887,0,0,0,.525-.157,2.376,2.376,0,0,0,.315-.577" transform="translate(-290.314 -124.733)" fill="#004379"/>
    <path id="Path_192" data-name="Path 192" d="M434,406.433v-3.281h.5v.5a1.124,1.124,0,0,1,.341-.446.6.6,0,0,1,.367-.1,1.061,1.061,0,0,1,.577.184l-.184.525a.781.781,0,0,0-.394-.131.418.418,0,0,0-.315.1.669.669,0,0,0-.21.315,2.638,2.638,0,0,0-.1.656v1.732H434Z" transform="translate(-300.639 -124.733)" fill="#004379"/>
    <path id="Path_193" data-name="Path 193" d="M442.1,406.286V403h.5v.446a1.215,1.215,0,0,1,.42-.394,1.124,1.124,0,0,1,.577-.157,1.087,1.087,0,0,1,.6.157.9.9,0,0,1,.341.42,1.173,1.173,0,0,1,1.024-.577,1.035,1.035,0,0,1,.761.262,1.114,1.114,0,0,1,.262.84v2.257h-.551v-2.073a1.789,1.789,0,0,0-.052-.472.419.419,0,0,0-.184-.236.726.726,0,0,0-.341-.079.772.772,0,0,0-.577.236.989.989,0,0,0-.236.735v1.916h-.551V404.16a1.066,1.066,0,0,0-.131-.551.48.48,0,0,0-.446-.184.793.793,0,0,0-.42.131.679.679,0,0,0-.289.367,2.311,2.311,0,0,0-.079.682v1.706h-.63Z" transform="translate(-306.613 -124.586)" fill="#004379"/>
    <path id="Path_194" data-name="Path 194" d="M463.683,404.78a4.073,4.073,0,0,1-.892.21,2.163,2.163,0,0,0-.472.1.486.486,0,0,0-.21.184.443.443,0,0,0-.079.262.477.477,0,0,0,.157.367.711.711,0,0,0,.5.157,1.431,1.431,0,0,0,.577-.131.889.889,0,0,0,.367-.394,1.533,1.533,0,0,0,.079-.551Zm.052,1.234a1.867,1.867,0,0,1-.6.367,1.54,1.54,0,0,1-.6.1,1.2,1.2,0,0,1-.84-.262.91.91,0,0,1-.289-.682.863.863,0,0,1,.1-.446.834.834,0,0,1,.289-.315,1.809,1.809,0,0,1,.394-.184,4,4,0,0,1,.5-.079,4.869,4.869,0,0,0,1-.184V404.2a.566.566,0,0,0-.157-.472.862.862,0,0,0-.63-.184,1.1,1.1,0,0,0-.577.131,1,1,0,0,0-.289.5l-.551-.079a1.343,1.343,0,0,1,.236-.551,1.2,1.2,0,0,1,.5-.341,2.164,2.164,0,0,1,.735-.1,1.777,1.777,0,0,1,.682.1.919.919,0,0,1,.394.236,1.6,1.6,0,0,1,.184.367,2.422,2.422,0,0,1,.026.5v.735a7.755,7.755,0,0,0,.026.971,2.31,2.31,0,0,0,.131.394h-.577a1.487,1.487,0,0,1-.079-.394" transform="translate(-320.848 -124.733)" fill="#004379"/>
    <path id="Path_195" data-name="Path 195" d="M477.11,405.152l.551.079a1.529,1.529,0,0,1-.446.892,1.346,1.346,0,0,1-.919.315,1.4,1.4,0,0,1-1.076-.446,1.818,1.818,0,0,1-.42-1.26,2.053,2.053,0,0,1,.184-.919,1.187,1.187,0,0,1,.525-.6,1.6,1.6,0,0,1,.787-.21,1.267,1.267,0,0,1,.866.262,1.165,1.165,0,0,1,.42.761l-.551.079a.91.91,0,0,0-.262-.5.733.733,0,0,0-.472-.157.846.846,0,0,0-.682.315,1.4,1.4,0,0,0-.262.945,1.432,1.432,0,0,0,.262.971.774.774,0,0,0,.656.289.73.73,0,0,0,.551-.21.746.746,0,0,0,.289-.6" transform="translate(-330.731 -124.659)" fill="#004379"/>
    <path id="Path_196" data-name="Path 196" d="M489.21,405.152l.551.079a1.422,1.422,0,0,1-.472.892,1.324,1.324,0,0,1-.892.315,1.4,1.4,0,0,1-1.076-.446,1.818,1.818,0,0,1-.42-1.26,2.053,2.053,0,0,1,.184-.919,1.187,1.187,0,0,1,.525-.6,1.6,1.6,0,0,1,.787-.21,1.267,1.267,0,0,1,.866.262,1.32,1.32,0,0,1,.446.761l-.551.079a.91.91,0,0,0-.262-.5.733.733,0,0,0-.472-.157.846.846,0,0,0-.682.315,1.4,1.4,0,0,0-.262.945,1.432,1.432,0,0,0,.262.971.774.774,0,0,0,.656.289.73.73,0,0,0,.551-.21,1.078,1.078,0,0,0,.262-.6" transform="translate(-339.656 -124.659)" fill="#004379"/>
    <path id="Path_197" data-name="Path 197" d="M499.6,403.114V398.6h.551v1.627a1.26,1.26,0,0,1,.971-.446,1.586,1.586,0,0,1,.63.131.947.947,0,0,1,.394.394,1.813,1.813,0,0,1,.1.735v2.073H501.7v-2.073a.794.794,0,0,0-.184-.6.653.653,0,0,0-.5-.184,1.07,1.07,0,0,0-.472.131.786.786,0,0,0-.315.341,1.868,1.868,0,0,0-.079.6v1.785Z" transform="translate(-349.023 -121.414)" fill="#004379"/>
    <path id="Path_198" data-name="Path 198" d="M513,403.114h.551v-3.281H513Zm0-3.884h.551v-.63H513Z" transform="translate(-358.906 -121.414)" fill="#004379"/>
    <path id="Path_199" data-name="Path 199" d="M528.086,401.292l.6.157a1.972,1.972,0,0,1-.682,1.129,1.832,1.832,0,0,1-1.181.394,2.181,2.181,0,0,1-1.181-.289,1.925,1.925,0,0,1-.709-.866,3.094,3.094,0,0,1-.236-1.207,2.593,2.593,0,0,1,.262-1.234,2.072,2.072,0,0,1,.761-.814,2.278,2.278,0,0,1,1.1-.262,1.88,1.88,0,0,1,1.155.341,1.668,1.668,0,0,1,.63.971l-.577.131a1.437,1.437,0,0,0-.446-.709,1.2,1.2,0,0,0-.761-.236,1.36,1.36,0,0,0-.866.262,1.332,1.332,0,0,0-.5.682,2.483,2.483,0,0,0-.131.866,2.841,2.841,0,0,0,.157,1,1.148,1.148,0,0,0,.525.63,1.582,1.582,0,0,0,.761.21,1.252,1.252,0,0,0,.84-.289,1.4,1.4,0,0,0,.472-.866" transform="translate(-367.535 -121.193)" fill="#004379"/>
    <path id="Path_200" data-name="Path 200" d="M542.177,404.706a1.4,1.4,0,0,0,.289.945.884.884,0,0,0,.682.315.846.846,0,0,0,.682-.315,1.429,1.429,0,0,0,.289-.971,1.374,1.374,0,0,0-.289-.919.883.883,0,0,0-.682-.315.846.846,0,0,0-.682.315,1.277,1.277,0,0,0-.289.945m-.577,0a1.651,1.651,0,0,1,.5-1.338,1.577,1.577,0,0,1,1.024-.367,1.5,1.5,0,0,1,1.1.446,1.677,1.677,0,0,1,.42,1.234,2.114,2.114,0,0,1-.184,1,1.654,1.654,0,0,1-.551.577,1.6,1.6,0,0,1-.787.21,1.462,1.462,0,0,1-1.1-.446,2.014,2.014,0,0,1-.42-1.312" transform="translate(-380 -124.659)" fill="#004379"/>
    <path id="Path_201" data-name="Path 201" d="M555.8,406.286V403h.5v.446a1.215,1.215,0,0,1,.42-.394,1.124,1.124,0,0,1,.577-.157,1.087,1.087,0,0,1,.6.157.724.724,0,0,1,.315.42,1.173,1.173,0,0,1,1.024-.577,1.035,1.035,0,0,1,.761.262,1.114,1.114,0,0,1,.262.84v2.257h-.551v-2.073a1.789,1.789,0,0,0-.052-.472.419.419,0,0,0-.184-.236.726.726,0,0,0-.341-.079.772.772,0,0,0-.577.236.989.989,0,0,0-.236.735v1.916h-.551V404.16a1.067,1.067,0,0,0-.131-.551.48.48,0,0,0-.446-.184.793.793,0,0,0-.42.131.679.679,0,0,0-.289.367,2.311,2.311,0,0,0-.079.682v1.706h-.6Z" transform="translate(-390.473 -124.586)" fill="#004379"/>
    <path id="Path_202" data-name="Path 202" d="M576.325,404.732a1.4,1.4,0,0,0,.262.945.757.757,0,0,0,.63.289.82.82,0,0,0,.63-.315,1.432,1.432,0,0,0,.262-.971,1.4,1.4,0,0,0-.262-.945.744.744,0,0,0-1.233.026,1.387,1.387,0,0,0-.289.971m-.525,2.887v-4.54h.5v.42a1.681,1.681,0,0,1,.394-.367,1.22,1.22,0,0,1,.551-.131,1.238,1.238,0,0,1,1.207.814,2.312,2.312,0,0,1,.157.866,1.94,1.94,0,0,1-.184.892,1.543,1.543,0,0,1-.525.63,1.485,1.485,0,0,1-.735.21,1.065,1.065,0,0,1-.5-.1,1.38,1.38,0,0,1-.367-.289v1.6Z" transform="translate(-405.224 -124.659)" fill="#004379"/>
    <path id="Path_203" data-name="Path 203" d="M590.783,404.78a4,4,0,0,1-.919.21,2.161,2.161,0,0,0-.472.1.486.486,0,0,0-.21.184.443.443,0,0,0-.079.262.477.477,0,0,0,.157.367.711.711,0,0,0,.5.157,1.431,1.431,0,0,0,.577-.131.89.89,0,0,0,.367-.394,1.534,1.534,0,0,0,.079-.551Zm.052,1.234a1.867,1.867,0,0,1-.6.367,1.54,1.54,0,0,1-.6.1,1.2,1.2,0,0,1-.84-.262.91.91,0,0,1-.289-.682.863.863,0,0,1,.1-.446.834.834,0,0,1,.289-.315,1.809,1.809,0,0,1,.394-.184,4,4,0,0,1,.5-.079,4.867,4.867,0,0,0,1-.184V404.2a.566.566,0,0,0-.157-.472.862.862,0,0,0-.63-.184,1.1,1.1,0,0,0-.577.131,1,1,0,0,0-.289.5l-.551-.079a1.343,1.343,0,0,1,.236-.551,1.2,1.2,0,0,1,.5-.341,2.164,2.164,0,0,1,.735-.1,1.7,1.7,0,0,1,.682.1.919.919,0,0,1,.394.236,1.6,1.6,0,0,1,.184.367,2.428,2.428,0,0,1,.026.5v.735a7.755,7.755,0,0,0,.026.971,2.31,2.31,0,0,0,.131.394h-.577a1.487,1.487,0,0,1-.079-.394" transform="translate(-414.591 -124.733)" fill="#004379"/>
    <path id="Path_204" data-name="Path 204" d="M602.6,406.359v-3.281h.5v.472a1.158,1.158,0,0,1,1.05-.551,1.291,1.291,0,0,1,.551.1.825.825,0,0,1,.367.289,1.556,1.556,0,0,1,.184.42,2.882,2.882,0,0,1,.026.551v2.021h-.551v-1.995a2.035,2.035,0,0,0-.052-.5.575.575,0,0,0-.236-.262.633.633,0,0,0-.394-.1.831.831,0,0,0-.6.236,1.1,1.1,0,0,0-.262.866v1.785H602.6Z" transform="translate(-424.99 -124.659)" fill="#004379"/>
    <path id="Path_205" data-name="Path 205" d="M615.162,407.84l-.052-.525a1.938,1.938,0,0,0,.315.052.81.81,0,0,0,.289-.052.613.613,0,0,0,.184-.184,2.484,2.484,0,0,0,.184-.42.443.443,0,0,1,.052-.131L614.9,403.3h.6l.682,1.89c.079.236.157.5.236.761a6.02,6.02,0,0,1,.236-.735l.709-1.916h.551l-1.234,3.333a4.528,4.528,0,0,1-.315.735,1.03,1.03,0,0,1-.341.394.885.885,0,0,1-.446.131,2.04,2.04,0,0,1-.42-.052" transform="translate(-434.062 -124.881)" fill="#004379"/>
  </g>
</svg>
