<svg id="Uber" xmlns="http://www.w3.org/2000/svg" width="108.037" height="37.505" viewBox="0 0 108.037 37.505">
  <path id="Path_128" data-name="Path 128" d="M6.216,26.786a9.237,9.237,0,0,0,1.9,3.108,8.16,8.16,0,0,0,2.871,1.975,9.366,9.366,0,0,0,3.608.685,8.929,8.929,0,0,0,3.556-.711,8.747,8.747,0,0,0,2.9-2,9.075,9.075,0,0,0,1.923-3.082,11.133,11.133,0,0,0,.685-4V0h5.531V36.873H23.7V33.449a12.7,12.7,0,0,1-4.346,3,13.772,13.772,0,0,1-5.4,1.053,14.618,14.618,0,0,1-5.5-1.027A12.889,12.889,0,0,1,4.03,33.555,13.791,13.791,0,0,1,1.08,29,15.621,15.621,0,0,1,0,23.072V0H5.531V22.756A11.349,11.349,0,0,0,6.216,26.786Z"/>
  <path id="Path_129" data-name="Path 129" d="M291.843,0V13.432a14.089,14.089,0,0,1,4.267-2.923,12.791,12.791,0,0,1,5.268-1.08,13.891,13.891,0,0,1,5.531,1.106,13.935,13.935,0,0,1,7.48,7.48,13.761,13.761,0,0,1,1.106,5.478,13.572,13.572,0,0,1-1.106,5.452,14,14,0,0,1-7.48,7.454,13.892,13.892,0,0,1-5.531,1.106,12.974,12.974,0,0,1-5.294-1.08,13.993,13.993,0,0,1-4.293-2.923v3.371h-5.268V0Zm.606,27.128a9.165,9.165,0,0,0,1.975,2.95,9.532,9.532,0,0,0,2.95,2,8.968,8.968,0,0,0,3.635.737,8.838,8.838,0,0,0,3.582-.737,9.215,9.215,0,0,0,2.924-2,9.77,9.77,0,0,0,1.975-2.95,8.967,8.967,0,0,0,.737-3.635,9.155,9.155,0,0,0-.737-3.661,9.682,9.682,0,0,0-1.975-2.976,8.869,8.869,0,0,0-2.924-1.975,9.26,9.26,0,0,0-10.114,1.975,9.449,9.449,0,0,0-2,2.976,9.155,9.155,0,0,0-.737,3.661A9.252,9.252,0,0,0,292.449,27.128Z" transform="translate(-253.127)"/>
  <path id="Path_130" data-name="Path 130" d="M552.858,89.936a14.331,14.331,0,0,1,2.9-4.451A13.937,13.937,0,0,1,570.979,82.4a12.744,12.744,0,0,1,4.267,2.924,13.362,13.362,0,0,1,2.792,4.425,15.1,15.1,0,0,1,1,5.557v1.738H557.178a9.008,9.008,0,0,0,1.054,3.029,9.132,9.132,0,0,0,1.975,2.423,9.027,9.027,0,0,0,2.687,1.607,8.773,8.773,0,0,0,3.187.58,9.216,9.216,0,0,0,7.743-3.951l3.845,2.844a14.033,14.033,0,0,1-11.589,5.742,14.834,14.834,0,0,1-5.61-1.054,13.661,13.661,0,0,1-4.53-2.95,14,14,0,0,1-3.029-4.451,14.373,14.373,0,0,1-.053-10.93Zm7.4-2.081a8.978,8.978,0,0,0-2.976,4.978h16.382a8.713,8.713,0,0,0-2.924-4.978,8.28,8.28,0,0,0-10.482,0Z" transform="translate(-487.488 -71.868)"/>
  <path id="Path_131" data-name="Path 131" d="M817.764,90.854a7.133,7.133,0,0,0-1.686,5v15.276h-5.32V84.27h5.268v3.319a7.488,7.488,0,0,1,2.607-2.581,7.379,7.379,0,0,1,3.819-.948H824.3v4.952h-2.212A5.591,5.591,0,0,0,817.764,90.854Z" transform="translate(-716.258 -74.261)"/>
</svg>
