<svg id="VDNH" xmlns="http://www.w3.org/2000/svg" width="140.685" height="65.556" viewBox="0 0 140.685 65.556">
  <g id="Layer_1" data-name="Layer 1">
    <g id="ghVU9R.tif">
      <g id="Group_201" data-name="Group 201" transform="translate(0 -7)">
        <path id="Path_135" data-name="Path 135" d="M1,200.9V185.267c1.946,0,3.787-.126,5.6.043a2.831,2.831,0,0,1,2.67,2.247,3.688,3.688,0,0,1-1.734,4.4c1.972.741,3.228,1.889,3.289,4.007a4.069,4.069,0,0,1-2.885,4.408,7.218,7.218,0,0,0-.927.532Zm2.1-8.274v6.54h2.51c2.1-.029,3.148-.942,3.331-2.882a3.1,3.1,0,0,0-2.8-3.492A26.858,26.858,0,0,0,3.1,192.626Zm-.037-1.477c1.566,0,3.2.458,4.1-1.088a2.745,2.745,0,0,0-.046-2.367c-.93-1.488-2.53-1.07-4.05-1Z" transform="translate(77.286 -152.21)" fill="#ef4344"/>
        <path id="Path_136" data-name="Path 136" d="M123.268,200.8v-8.163H114.31v7.833l-1.365-.029-.395-.487V186.471l.412-1.391h1.414V191h8.933v-5.9h1.677l.212.24q.034,7.27.054,14.536a3.434,3.434,0,0,1-.266.927Z" transform="translate(-2.337 -152.109)" fill="#ef4244"/>
        <path id="Path_137" data-name="Path 137" d="M172,200.647a2.518,2.518,0,0,1,.206-.922c1.769-2.484,3.569-4.946,5.438-7.53l-5.152-7.155a2.3,2.3,0,0,1,3,1.073c.959,1.514,2.106,2.911,3.289,4.513,1.219-1.666,2.39-3.148,3.434-4.734a1.879,1.879,0,0,1,2.467-.859l-4.951,6.886c1.792,2.464,3.6,4.911,5.352,7.4a4.21,4.21,0,0,1,.378,1.331H183.74l-5.115-7.218c-.515.7-.844,1.162-1.185,1.608q-2.144,2.808-4.293,5.61Z" transform="translate(-44.772 -151.957)" fill="#ef4345"/>
        <path id="Path_141" data-name="Path 141" d="M57.462,200.444l-14.282-.114c2.7-4.866,5.389-9.731,8.143-14.568a2.046,2.046,0,0,1,1.431-.821,34.435,34.435,0,0,1,3.54.02l.326.286v13.105c-.083.109-.169.215,0,0-.086.272-.043.14,0,0l1.66.924Zm-2.756-13.9a2.04,2.04,0,0,0-2.813,1.145c-1.737,3.329-3.635,6.583-5.461,9.86-.215.386-.378.8-.6,1.274H54.7Z" transform="translate(47.178 -151.983)" fill="#ef4042"/>
      </g>
      <path id="Path_142" data-name="Path 142" d="M112.54,199.05Z" transform="translate(-80.33 -142.08)" fill="#ee2c2f"/>
      <path id="Path_143" data-name="Path 143" d="M112.972,185.08l-.412,1.391Z" transform="translate(-80.345 -132.109)" fill="#ee2c2f"/>
      <path id="Path_144" data-name="Path 144" d="M135.4,165.76l.452,1.405Z" transform="translate(-96.648 -118.318)" fill="#e33"/>
      <path id="Path_146" data-name="Path 146" d="M89.356,185.336l-.326-.286Z" transform="translate(-63.549 -132.087)" fill="#f02f2d"/>
      <path id="Path_147" data-name="Path 147" d="M156.222,185.4l-.212-.24Z" transform="translate(-111.359 -132.166)" fill="#ef484a"/>
      <path id="Path_148" data-name="Path 148" d="M14.28,169.2c.014-.12.029-.24.046-.361C14.309,168.96,14.294,169.08,14.28,169.2Z" transform="translate(-10.193 -120.517)" fill="#ef2e31"/>
      <path id="Path_149" data-name="Path 149" d="M14.026,86.4l-.166-.223.206-.08C14.055,86.2,14.04,86.3,14.026,86.4Z" transform="translate(-9.893 -61.458)" fill="#ef2e31"/>
      <path id="Path_150" data-name="Path 150" d="M90.16,228.258v0Z" transform="translate(-64.356 -162.702)" fill="#f02f2d"/>
      <g id="Group_202" data-name="Group 202">
        <path id="Path_132" data-name="Path 132" d="M4.154,79.194q.037,9.554.077,19.107c0,1.431-.052,2.862-.077,4.27-.017.12-.031.24-.046.361l-3.2.326c-.031-.673-.077-1.171-.077-1.671V80.053c0-.61.286-1.431-.8-1.477V76H63.846v2.576a4.514,4.514,0,0,0-.6,1.477c-.04,7.1-.026,14.2-.026,21.3v1.683H59.79V78.745H52.629v22.2a13.132,13.132,0,0,1-.177,1.523l-.155.172.238-.1c-.146.206-.286.572-.444.587-.89.06-1.786.029-2.831.029V78.739h-7.1V103.1H39.232l-.452-1.405c-.026-5.386-.017-10.773-.089-16.159a6.7,6.7,0,1,0-13.38.286v17.261H21.85V78.75h-7V103.1H11.412V78.544l-7.218.346-.206.08Z" transform="translate(-0.021 -54.248)" fill="#ef3f41"/>
        <path id="Path_133" data-name="Path 133" d="M0,61H63.824v2.576c-.332.026-.661.077-.993.077H1.279c-.426,0-.859-.049-1.279-.074Z" transform="translate(0 -43.541)" fill="#ef3d3f"/>
        <path id="Path_138" data-name="Path 138" d="M106.724,0l.475,2.8H101V0Z" transform="translate(-72.093)" fill="#ef3d3d"/>
        <path id="Path_151" data-name="Path 151" d="M96.192,46.389l.464,2.5H76.22c.034-.7.066-1.348.1-2l.461-.507H95.545l.59,1.125C96.16,46.915,96.172,46.652,96.192,46.389Z" transform="translate(-54.405 -33.106)" fill="#ef4242"/>
        <path id="Path_152" data-name="Path 152" d="M105.681,31.54v2.533H97.59V31.54Z" transform="translate(-69.659 -22.513)" fill="#f0494b"/>
        <path id="Path_153" data-name="Path 153" d="M210.35,37.34c2.464,2.962,2.4,2.1.117,4.946C208.08,40.371,208.069,40.016,210.35,37.34Z" transform="translate(-148.938 -26.653)" fill="#ef4446"/>
        <path id="Path_154" data-name="Path 154" d="M6.521,39.8,4.646,42.274c-2.43-2-2.444-2.416-.112-5.014Z" transform="translate(-2.001 -26.596)" fill="#ef4345"/>
        <path id="Path_155" data-name="Path 155" d="M172.29,44.857c.255-1.248,1.483-2.2.859-3.595a1.311,1.311,0,0,1,.787-.572,1.062,1.062,0,0,1,.744.673c.235,1.125.355,2.29.529,3.492Z" transform="translate(-122.979 -29.044)" fill="#f04f51"/>
        <path id="Path_156" data-name="Path 156" d="M42.735,44.823H39.79a12.181,12.181,0,0,0,.773-1.717c.137-.489.023-1.05.152-1.543a3.348,3.348,0,0,1,.618-.933c.286.235.778.424.859.71C42.426,42.436,42.543,43.552,42.735,44.823Z" transform="translate(-28.402 -29.001)" fill="#ef4546"/>
        <path id="Path_157" data-name="Path 157" d="M104.64,16.05H108.7L106.672,18.8Z" transform="translate(-74.691 -11.456)" fill="#ef4446"/>
      </g>
      <path id="Path_158" data-name="Path 158" d="M144.4,46.381c0,.263-.026.527-.051,1.113l-.59-1.125Z" transform="translate(-102.615 -33.099)" fill="#ee3433"/>
    </g>
  </g>
</svg>
