<svg id="VTB" xmlns="http://www.w3.org/2000/svg" width="121.831" height="43.443" viewBox="0 0 121.831 43.443">
  <g id="Group-6">
    <g id="Group-Copy">
      <g id="Group-2">
        <path id="Fill-1" d="M8.293,0,6.219,5.683H34.968L37.043,0ZM5.181,8.523,3.106,14.2H31.855L33.93,8.523ZM2.075,17.046,0,22.727H28.749l2.073-5.681Z" fill="#009fdf" fill-rule="evenodd"/>
        <path id="Fill-2" d="M50.5,22.767v.12a12.119,12.119,0,0,1,3.226,1.867,8.244,8.244,0,0,1,2.928,6.805c0,4.759-2.51,8.192-6.633,9.276a17.461,17.461,0,0,1-5.02.482H32.51V6.506H43.564a20.317,20.317,0,0,1,5.2.481c4,1.084,6.633,3.855,6.633,8.251A7.739,7.739,0,0,1,53.185,20.9,8.378,8.378,0,0,1,50.5,22.767ZM39.441,26.44v9.155h4.781a5.114,5.114,0,0,0,3.7-1.024A4.566,4.566,0,0,0,49.3,31.017a4.987,4.987,0,0,0-.9-3.011c-1.016-1.265-2.271-1.567-4.421-1.567Zm-.06-6.023h3.884a8.272,8.272,0,0,0,2.39-.181,3.8,3.8,0,0,0,2.63-3.915c0-2.348-1.076-3.373-2.63-3.854a9.417,9.417,0,0,0-2.629-.241H39.381Zm27.667,20.9V12.347H57.069V6.506H84.8l-1.971,5.841H73.979v28.97Zm19.9,0V6.506h22.469l-1.971,5.841H93.819v7.709h5.557c4.481,0,6.812,1.084,8.426,2.469,1.255,1.084,3.406,3.493,3.406,8.252,0,4.7-2.211,7.286-4.063,8.612-2.151,1.5-4.421,1.928-9.023,1.928Zm6.873-5.842h5.2c1.971,0,3.166-.482,4-1.567a5.065,5.065,0,0,0,1.016-3.312,4.6,4.6,0,0,0-1.792-3.975,5.147,5.147,0,0,0-3.287-.842H93.819Z" transform="translate(10.623 2.126)" fill="#0a2973" fill-rule="evenodd"/>
      </g>
    </g>
  </g>
</svg>
