<svg xmlns="http://www.w3.org/2000/svg" width="94.088" height="50.157" viewBox="0 0 94.088 50.157">
  <g id="Whirlpool" transform="translate(0 0)">
    <g id="Group_210" data-name="Group 210" transform="translate(0 0)">
      <path id="Path_253" data-name="Path 253" d="M132.883,38.182a4.421,4.421,0,0,0-4.576,4.668,4.454,4.454,0,0,0,4.576,4.73c2.708,0,4.42-1.866,4.42-4.7,0-2.8-1.712-4.7-4.42-4.7Zm1.495,6.972a1.5,1.5,0,0,1-1.494,1.494,1.468,1.468,0,0,1-1.462-1.494h0v-4.73h0a1.461,1.461,0,0,1,1.462-1.463,1.488,1.488,0,0,1,1.494,1.463h0v4.73Z" transform="translate(-59.617 -17.741)"/>
      <path id="Path_254" data-name="Path 254" d="M113.483,38.419a2.436,2.436,0,0,0-2.022.778h0v-.84h0a16.207,16.207,0,0,1-4.109.279h0v.934h0c.9,0,1.462.062,1.462,1.058h0v8.777h0c-.032,1.121.156,1.929-1.493,1.929h0v1h5.851v-1h-.187c-1.121,0-1.526-.591-1.526-1.245h0V46.823h0a2.194,2.194,0,0,0,1.9.872c2.521-.033,3.891-1.713,3.891-4.731,0-2.739-1.121-4.545-3.766-4.545Zm.655,7.066a1.223,1.223,0,0,1-1.215,1.245,1.249,1.249,0,0,1-1.245-1.245h0V40.753h0a1.223,1.223,0,0,1,1.245-1.215,1.2,1.2,0,0,1,1.215,1.215h0v4.731Z" transform="translate(-49.866 -17.822)"/>
      <path id="Path_255" data-name="Path 255" d="M80.5,43.894c-.5.5-.965,1-1.432,1.463h0V43.613h0l1.245-1.244a.679.679,0,0,1,.187.56h0v.965Z" transform="translate(-36.737 -19.686)" fill="#fdb727"/>
      <path id="Path_256" data-name="Path 256" d="M91.361,31.609c-.965.809-1.867,1.618-2.77,2.459h0v-.747h0a4.633,4.633,0,0,1-1.618.466q1.821-1.821,3.735-3.455h0v1.245l.653.032Z" transform="translate(-40.411 -14.094)" fill="#fdb727"/>
      <path id="Path_257" data-name="Path 257" d="M77.994,14.62A84.943,84.943,0,0,1,96.7,2.824c4.42-1.805,6.971-2.552,8.778-.56,1.806,1.961-2.086,8.341-2.895,9.151-1-.312-1.369.187-1.369.187.373-.124,1.027.156.591,1.152-.186.373-.933.9-1.245.031a20.376,20.376,0,0,1-2.365,3.984c-3.673,5.01-8.778,9.835-16.215,16.464C69.81,44.064,63.523,46.492,59.29,48.266c-3.05,1.15-10.8,2.833-5.727-6.536,1.058-2.427,3.89-6.474,7.937-11.142H60.255v-.436h0a59.2,59.2,0,0,0-7.843,11.112c-1.556,2.769-4.575,11.515,6.629,8.123,3.673-1.151,13.539-5.914,24.4-15.656a169.892,169.892,0,0,0,19.3-19.95c.4-.467.809-1.215.5-1.774,1.961-2.926,4.669-9.026,2.708-10.893C103.768-.973,99.472.4,97.822,1.019a97.691,97.691,0,0,0-22,13.6h2.177Z" transform="translate(-23.622 0)" fill="#fdb727"/>
      <path id="Path_258" data-name="Path 258" d="M34.579,14.447c-.094.4-.343,1-1.836,1.9-3.8,2.209-10.084,2.428-15,2.3-7.563-.187-10.707-1.929-11.484-2.614-.436-.4-.374-.778.124-1.152,1.4-1.058,6.349-1.432,9.617-1.432s7,.747,6.971,1.618c0,.9-1.805,1.027-2.21,1.058-.28.032-.591-.093-.591-.249.063-.249.5-.249.716-.311.187-.032.28-.187.28-.4,0-.28-.809-.56-1.463-.654a19.149,19.149,0,0,0-5.7-.248c-2.334.156-3.953.871-3.953,1.432,0,.529,1.369,2.116,8.186,2.334,8.777.28,12.886-1.214,14.878-2.645,1.369-1.059.343-1.774-.965-2.428-3.579-1.682-10.365-1.837-13.757-1.867a87.477,87.477,0,0,0-12.917.9c-.591.156-.467.654.374.467a95.536,95.536,0,0,1,11.36-.467c3.393.156,7.532.063,11.36,1.961.653.4.871,1.121-.125,1.681-.965.529-3.455,1.743-9.275,1.774-5.354.062-6.038-.84-6.5-1.214-.187-.155-.218-.623.5-1a3.846,3.846,0,0,1,1.587-.342c.436,0,.592.467.125.5-.467.124-.965.187-.965.529,0,.28.312.312.654.435a14.681,14.681,0,0,0,4.046.5c3.05,0,5.385-.435,6.754-1.245.56-.28.716-1.183-.249-1.494A27.874,27.874,0,0,0,15.375,12.7,78.977,78.977,0,0,0,2.366,13.856C1.65,14.073,0,14.54,0,15.412s1.121,1.276,1.65,1.462A71.32,71.32,0,0,0,16.559,19.24c9.368.093,14.628-.685,17.865-3.455a2.969,2.969,0,0,0,.747-1.245c.062-.622-.467-.653-.592-.093Z" transform="translate(0 -5.148)"/>
      <path id="Path_259" data-name="Path 259" d="M31.446,28.959a13.6,13.6,0,0,0,3.921-.311h0v6.536h0c.841-1.4,1.93-1.4,3.175-1.4,1.058,0,2.428.965,2.428,3.112h0v2.739h0c0,1.743.093,2.428,1.245,2.428h.031v.809H37.361v-.809h0c.871,0,.934-1,.934-1.806h0l.031-.622V36.99h0c0-1.121-.374-1.774-1.089-1.774-1.463,0-1.868,1.183-1.868,2.739h0v1.96h0c.063,1.308,0,2.148,1.089,2.148h0v.809h-5.1v-.809h0c1.089,0,1.369-.622,1.369-1.837h0V30.951h0c0-.9.031-1.121-.623-1-.841.249-1.089.685-1.463,1.836h0L27,43.309h-.809l-2.77-7.782-2.832,7.781h-.809L14.7,31.013h0c-.312-1-1.089-1.089-2.086-1.151h0v-.9h6.412v.9h-.249c-.685,0-.653.218-.653.654a3.784,3.784,0,0,0,.218,1.121h0l2.739,7.47,1.867-5.229-.778-1.93h0c-.467-1.494-.592-2.085-2.023-2.085h0v-.9h5.789v.9l-.311.031h0c-.467.062-.529.28-.529.716a2.6,2.6,0,0,0,.218.9h0l2.179,7.065,2.428-7.687h0c.156-.747-.592-1.027-1-1.059h0V28.96Z" transform="translate(-5.862 -13.311)"/>
      <path id="Path_260" data-name="Path 260" d="M74.961,32.118a1.521,1.521,0,0,1-1.525,1.494,1.494,1.494,0,1,1,1.525-1.494Z" transform="translate(-33.442 -14.229)"/>
      <path id="Path_261" data-name="Path 261" d="M69.749,47.275h5.135V46.4h0c-1.121,0-1.214-.559-1.214-2.334h0V38.124h0a14.1,14.1,0,0,1-4.139.312h0v.9H69.9a1.216,1.216,0,0,1,1.152,1.089h0V44.07h0c0,1.743-.156,2.334-1.307,2.334h0v.872Z" transform="translate(-32.307 -17.714)"/>
      <path id="Path_262" data-name="Path 262" d="M85.181,39.108a2.564,2.564,0,0,1,2.365-.716c.9,0,1.37.965,1.37,1.619a1.464,1.464,0,0,1-1.4,1.587,1.269,1.269,0,0,1-1.37-1.276.837.837,0,0,1,.124-.529c.093-.093.093-.124.093-.156s.032-.248-.032-.248a.531.531,0,0,0-.622.248,2.466,2.466,0,0,0-.529,1.867h0V45.24h0a1.458,1.458,0,0,0,.561,1.12.985.985,0,0,0,.715.188h0v.809H81.323v-.872h0c1.121,0,1.214-.529,1.214-2.272h0V40.478h0c0-1.122-.529-1.059-1.494-1.059h0v-.871h0A19.365,19.365,0,0,0,85.18,38.3h0v.808h0Z" transform="translate(-37.656 -17.795)"/>
      <path id="Path_263" data-name="Path 263" d="M169.337,39.88c0,1.742.373,2.022,1.494,2.177h0v.779h-5.665v-.809h0c1.12-.124,1.494-.4,1.494-2.147h0V31.133h0a1.179,1.179,0,0,0-1.183-1.307h0l-.311.031v-.9h0a16.309,16.309,0,0,0,4.17-.249h0V39.88Z" transform="translate(-76.744 -13.337)"/>
      <path id="Path_264" data-name="Path 264" d="M152.01,38.182a4.42,4.42,0,0,0-4.576,4.668,4.429,4.429,0,0,0,4.544,4.73c2.708,0,4.45-1.866,4.45-4.7,0-2.8-1.743-4.7-4.418-4.7Zm1.463,6.972a1.469,1.469,0,0,1-1.462,1.494,1.5,1.5,0,0,1-1.494-1.494h0v-4.73h0a1.488,1.488,0,0,1,1.494-1.463,1.461,1.461,0,0,1,1.462,1.463h0v4.73Z" transform="translate(-68.504 -17.741)"/>
      <path id="Path_265" data-name="Path 265" d="M100.154,39.88c0,1.742.373,2.022,1.493,2.177h0v.779H95.983v-.809h0c1.121-.124,1.526-.4,1.526-2.147h0V31.133h0a1.219,1.219,0,0,0-1.214-1.307h0l-.312.031v-.9h0a16.189,16.189,0,0,0,4.171-.249h0V39.88Z" transform="translate(-44.598 -13.337)"/>
    </g>
    <g id="Group_211" data-name="Group 211" transform="translate(66.071 31.076)">
      <path id="Path_266" data-name="Path 266" d="M125.689,59.966v.386a1.937,1.937,0,0,1-.919.211,1.457,1.457,0,0,1-.718-.164,1.241,1.241,0,0,1-.467-.455,1.2,1.2,0,0,1-.171-.626,1.179,1.179,0,0,1,.393-.9,1.374,1.374,0,0,1,.971-.365,2.333,2.333,0,0,1,.884.2v.377a1.786,1.786,0,0,0-.866-.245,1.021,1.021,0,0,0-.721.265.872.872,0,0,0-.286.666.862.862,0,0,0,.282.663,1.025,1.025,0,0,0,.722.259A1.658,1.658,0,0,0,125.689,59.966Z" transform="translate(-123.414 -58.05)"/>
      <path id="Path_267" data-name="Path 267" d="M129.637,58.047a1.379,1.379,0,0,1,.974.36,1.176,1.176,0,0,1,.39.9,1.159,1.159,0,0,1-.393.9,1.419,1.419,0,0,1-.991.355,1.339,1.339,0,0,1-.951-.355,1.168,1.168,0,0,1-.381-.89,1.191,1.191,0,0,1,.383-.908A1.355,1.355,0,0,1,129.637,58.047Zm.014.333a1,1,0,0,0-.713.263.881.881,0,0,0-.279.672.868.868,0,0,0,.28.659,1.063,1.063,0,0,0,1.406-.006.879.879,0,0,0,.283-.668.863.863,0,0,0-.283-.655A.979.979,0,0,0,129.651,58.38Z" transform="translate(-125.677 -58.047)"/>
      <path id="Path_268" data-name="Path 268" d="M134.209,60.563v-2.45h.633a.93.93,0,0,1,.608.184.61.61,0,0,1,.225.5.624.624,0,0,1-.11.369.665.665,0,0,1-.317.233,1.129,1.129,0,0,1,.237.21,4.272,4.272,0,0,1,.326.465c.088.139.158.245.211.314l.134.175h-.43l-.11-.161-.022-.03-.071-.1-.112-.179-.121-.191a1.933,1.933,0,0,0-.206-.24.794.794,0,0,0-.168-.129.588.588,0,0,0-.253-.039h-.094v1.066h-.361Zm.471-2.152h-.109v.773h.138a1.044,1.044,0,0,0,.376-.045.347.347,0,0,0,.16-.138.389.389,0,0,0,.057-.21.368.368,0,0,0-.063-.21.333.333,0,0,0-.178-.132A1.364,1.364,0,0,0,134.68,58.411Z" transform="translate(-128.43 -58.078)"/>
      <path id="Path_269" data-name="Path 269" d="M138.33,60.56V58.106h.8a.845.845,0,0,1,.577.19.645.645,0,0,1,.215.509.666.666,0,0,1-.11.378.63.63,0,0,1-.3.239,1.583,1.583,0,0,1-.55.074h-.267v1.063h-.364Zm.738-2.141h-.374v.767h.4a.517.517,0,0,0,.34-.1.359.359,0,0,0,.119-.289Q139.548,58.418,139.068,58.419Z" transform="translate(-130.345 -58.074)"/>
      <path id="Path_270" data-name="Path 270" d="M143.036,58.047a1.382,1.382,0,0,1,.975.36,1.177,1.177,0,0,1,.39.9,1.157,1.157,0,0,1-.393.9,1.422,1.422,0,0,1-.991.355,1.339,1.339,0,0,1-.951-.355,1.168,1.168,0,0,1-.381-.89,1.191,1.191,0,0,1,.383-.908A1.355,1.355,0,0,1,143.036,58.047Zm.014.333a1,1,0,0,0-.713.263.881.881,0,0,0-.279.672.868.868,0,0,0,.28.659,1.063,1.063,0,0,0,1.406-.006.879.879,0,0,0,.283-.668.863.863,0,0,0-.283-.655A.978.978,0,0,0,143.05,58.38Z" transform="translate(-131.903 -58.047)"/>
      <path id="Path_271" data-name="Path 271" d="M147.609,60.563v-2.45h.633a.93.93,0,0,1,.608.184.61.61,0,0,1,.225.5.624.624,0,0,1-.11.369.665.665,0,0,1-.317.233,1.128,1.128,0,0,1,.237.21,4.27,4.27,0,0,1,.326.465c.088.139.158.245.211.314l.134.175h-.43l-.11-.161-.022-.03-.071-.1-.112-.179-.121-.191a1.936,1.936,0,0,0-.206-.24.794.794,0,0,0-.168-.129.585.585,0,0,0-.253-.039h-.094v1.066h-.361Zm.47-2.152h-.109v.773h.138a1.05,1.05,0,0,0,.377-.045.348.348,0,0,0,.159-.138.389.389,0,0,0,.057-.21.368.368,0,0,0-.063-.21.334.334,0,0,0-.178-.132A1.369,1.369,0,0,0,148.079,58.411Z" transform="translate(-134.656 -58.078)"/>
      <path id="Path_272" data-name="Path 272" d="M152.332,58.086h.254l1.133,2.464h-.37l-.337-.726h-1.078l-.316.726h-.371Zm.532,1.426-.408-.887-.378.887Z" transform="translate(-136.346 -58.065)"/>
      <path id="Path_273" data-name="Path 273" d="M155.287,58.106h2.11v.313h-.881V60.56h-.364V58.419h-.866v-.313Z" transform="translate(-138.223 -58.074)"/>
      <path id="Path_274" data-name="Path 274" d="M159.873,58.113h.362v2.45h-.362Z" transform="translate(-140.354 -58.078)"/>
      <path id="Path_275" data-name="Path 275" d="M162.739,58.047a1.38,1.38,0,0,1,.974.36,1.175,1.175,0,0,1,.39.9,1.158,1.158,0,0,1-.393.9,1.419,1.419,0,0,1-.991.355,1.339,1.339,0,0,1-.951-.355,1.167,1.167,0,0,1-.381-.89,1.189,1.189,0,0,1,.383-.908A1.356,1.356,0,0,1,162.739,58.047Zm.014.333a1,1,0,0,0-.713.263.879.879,0,0,0-.279.672.868.868,0,0,0,.279.659,1.064,1.064,0,0,0,1.407-.006.881.881,0,0,0,.283-.668.865.865,0,0,0-.283-.655A.978.978,0,0,0,162.753,58.38Z" transform="translate(-141.058 -58.047)"/>
      <path id="Path_276" data-name="Path 276" d="M169.308,58.113h.344v2.45h-.312l-1.689-1.887v1.887h-.34v-2.45h.293l1.7,1.9v-1.9Z" transform="translate(-143.811 -58.078)"/>
    </g>
  </g>
</svg>
