<svg xmlns="http://www.w3.org/2000/svg" width="213.305" height="30.931" viewBox="0 0 213.305 30.931">
  <g id="X5_retail_group" transform="translate(-1.824 -2.754)">
    <path id="Path_208" data-name="Path 208" d="M11.4,2.754H1.824l11,15.439-11,15.492H11.4L22.41,18.193,11.4,2.754" transform="translate(0)" fill="#f78f1e" fill-rule="evenodd"/>
    <path id="Path_209" data-name="Path 209" d="M29.987,11.761h4.6L38.12,17.52l3.658-5.759h4.34l-5.775,8.6,6.279,9.425H41.9l-3.934-6.239-4.015,6.239H29.507L35.8,20.342l-5.812-8.581" transform="translate(-6.417 -2.088)"/>
    <path id="Path_210" data-name="Path 210" d="M57.031,14.747l-.706,4.019.053.049a4.5,4.5,0,0,1,1.567-1.05,5.216,5.216,0,0,1,1.891-.316,5.359,5.359,0,0,1,2.325.479,5.142,5.142,0,0,1,1.706,1.284,5.567,5.567,0,0,1,1.062,1.9,7.226,7.226,0,0,1,.37,2.329,6.037,6.037,0,0,1-.533,2.531,6.473,6.473,0,0,1-1.427,2.034,6.384,6.384,0,0,1-2.083,1.32,6.482,6.482,0,0,1-2.527.443,8.731,8.731,0,0,1-2.464-.343,6.208,6.208,0,0,1-2.08-1.042,5.272,5.272,0,0,1-1.452-1.755,5.437,5.437,0,0,1-.566-2.436h3.585a2.884,2.884,0,0,0,.91,1.927,2.809,2.809,0,0,0,1.99.723,2.746,2.746,0,0,0,1.271-.287,3.029,3.029,0,0,0,.963-.755,3.479,3.479,0,0,0,.6-1.082,3.756,3.756,0,0,0,.217-1.271,3.988,3.988,0,0,0-.206-1.283,3,3,0,0,0-.6-1.054,2.735,2.735,0,0,0-.964-.705,3.048,3.048,0,0,0-1.284-.247,3.129,3.129,0,0,0-1.563.336,3.583,3.583,0,0,0-1.14,1.075H52.72l1.743-9.779H64.34v2.954H57.031" transform="translate(-11.669 -2.095)"/>
    <path id="Path_211" data-name="Path 211" d="M81.779,11.761a7.708,7.708,0,0,1,2.108.276,4.978,4.978,0,0,1,1.739.848,4.075,4.075,0,0,1,1.185,1.46,4.79,4.79,0,0,1,.443,2.116,5.034,5.034,0,0,1-.886,2.977,4.037,4.037,0,0,1-2.625,1.616v.054a4.074,4.074,0,0,1,1.468.464,3.019,3.019,0,0,1,.952.87,3.7,3.7,0,0,1,.529,1.231,9.065,9.065,0,0,1,.217,1.5c.016.3.033.673.049,1.112s.048.878.1,1.326a7.175,7.175,0,0,0,.242,1.258,2.392,2.392,0,0,0,.439.927h-1.9a2.329,2.329,0,0,1-.242-.619,5.517,5.517,0,0,1-.123-.758c-.025-.259-.049-.517-.065-.771s-.033-.468-.054-.657c-.033-.635-.082-1.271-.16-1.9A5.239,5.239,0,0,0,84.71,23.4a2.936,2.936,0,0,0-1.058-1.2,3.152,3.152,0,0,0-1.9-.406h-6.5v8H73.521V11.762h8.258m-.131,8.556a4.591,4.591,0,0,0,1.489-.238,3.76,3.76,0,0,0,1.238-.694,3.469,3.469,0,0,0,.845-1.1,3.362,3.362,0,0,0,.308-1.476,3.547,3.547,0,0,0-.956-2.625,3.961,3.961,0,0,0-2.925-.956H75.253v7.084h6.395Z" transform="translate(-16.618 -2.088)"/>
    <path id="Path_212" data-name="Path 212" d="M107.225,11.761v1.473H96.5v6.492h10.044V21.2H96.5v7.111h10.852v1.477H94.776V11.761h12.449" transform="translate(-21.545 -2.088)"/>
    <path id="Path_213" data-name="Path 213" d="M126.665,11.761v1.473h-6.287V29.791h-1.719V13.234H112.4V11.761h14.269" transform="translate(-25.629 -2.088)"/>
    <path id="Path_214" data-name="Path 214" d="M136.48,11.761l7.063,18.03h-1.838l-2.2-5.611h-8.2l-2.169,5.611h-1.817l7.243-18.03h1.92M138.929,22.7l-3.485-9.241L131.838,22.7Z" transform="translate(-29.088 -2.088)"/>
    <rect id="Rectangle_59" data-name="Rectangle 59" width="1.723" height="18.038" transform="translate(116.219 9.666)"/>
    <path id="Path_215" data-name="Path 215" d="M159.591,11.761V28.314h10.1v1.477H157.867V11.761h1.724" transform="translate(-36.169 -2.088)"/>
    <g id="Group_203" data-name="Group 203" transform="translate(134.962 8.971)">
      <path id="Path_216" data-name="Path 216" d="M183.869,30.262a8.754,8.754,0,0,1-3.782-.774h0a7.837,7.837,0,0,1-2.748-2.095h0a8.983,8.983,0,0,1-1.652-3.084h0a12.3,12.3,0,0,1-.555-3.742h0a11.853,11.853,0,0,1,.6-3.784h0a9.326,9.326,0,0,1,1.727-3.092h0a7.99,7.99,0,0,1,2.749-2.086h0a8.631,8.631,0,0,1,3.681-.758h0a9.092,9.092,0,0,1,2.884.443h0a7.473,7.473,0,0,1,2.338,1.272h0a6.918,6.918,0,0,1,1.652,1.984h0a7.941,7.941,0,0,1,.886,2.59h0l.058.338h-1.1l-.043-.24a6.712,6.712,0,0,0-.78-2.184h0a5.956,5.956,0,0,0-1.423-1.668h0a6.249,6.249,0,0,0-1.984-1.074h0a7.771,7.771,0,0,0-2.494-.375h0a7.415,7.415,0,0,0-3.245.676h0a7.1,7.1,0,0,0-2.4,1.844h0a8.077,8.077,0,0,0-1.5,2.74h0a10.817,10.817,0,0,0-.514,3.375h0a11.331,11.331,0,0,0,.5,3.391h0a7.744,7.744,0,0,0,1.456,2.737h0a7.024,7.024,0,0,0,2.409,1.841h0a7.876,7.876,0,0,0,3.367.678h0a7.174,7.174,0,0,0,2.689-.5h0a6.725,6.725,0,0,0,2.194-1.38h0a6.344,6.344,0,0,0,1.46-2.1h0a6.6,6.6,0,0,0,.529-2.65h0v-.645h-6.988v-1.08h8.082v9h-1.1l.008-3.44a6.8,6.8,0,0,1-2.225,2.5h0a8.213,8.213,0,0,1-4.723,1.338h-.012Z" transform="translate(-175.132 -10.847)"/>
    </g>
    <g id="Group_204" data-name="Group 204" transform="translate(153.213 9.391)">
      <path id="Path_217" data-name="Path 217" d="M199.18,29.995h-.289v-18.6h7.683a6.572,6.572,0,0,1,4.343,1.193h0a4.793,4.793,0,0,1,1.472,3.711h0c0,.058,0,.114,0,.172h0a4.559,4.559,0,0,1-1.04,3.034h0a4.988,4.988,0,0,1-2.054,1.42h0a4.572,4.572,0,0,1,.9.362h0a3.065,3.065,0,0,1,1.193,1.129h0a4.367,4.367,0,0,1,.545,1.6h0A14.776,14.776,0,0,1,212.06,26h0c0,.234.016.553.029.93h0c.016.375.044.745.074,1.109h0c.038.365.076.692.124.992h0a1.35,1.35,0,0,0,.151.508h0l.335.459h-1.307l-.078-.163a3.08,3.08,0,0,1-.24-.831h0c-.049-.315-.091-.661-.113-1.022h0c-.022-.356-.047-.713-.053-1.08h0c-.008-.368-.015-.69-.015-.983h0a10.241,10.241,0,0,0-.16-1.933h0a2.857,2.857,0,0,0-.6-1.328h0a2.946,2.946,0,0,0-1.309-.824h0a7.869,7.869,0,0,0-2.409-.3h-6.5V30h-.808Zm7.264-9.537a6.842,6.842,0,0,0,1.861-.25h0a4.1,4.1,0,0,0,1.525-.752h0a3.772,3.772,0,0,0,1.061-1.3h0a4.148,4.148,0,0,0,.4-1.9h0a3.715,3.715,0,0,0-1.069-2.785h0a5.051,5.051,0,0,0-3.515-.988h0l-6.714,0v7.977h6.456Z" transform="translate(-198.891 -11.393)"/>
    </g>
    <g id="Group_205" data-name="Group 205" transform="translate(167.576 8.948)">
      <path id="Path_218" data-name="Path 218" d="M222.488,29.48a7.768,7.768,0,0,1-2.7-2.109h0a9.406,9.406,0,0,1-1.642-3.1h0a12.3,12.3,0,0,1-.562-3.717h0a12.309,12.309,0,0,1,.562-3.721h0a9.354,9.354,0,0,1,1.642-3.1h0a7.769,7.769,0,0,1,2.695-2.117h0a8.31,8.31,0,0,1,3.7-.793h0a8.27,8.27,0,0,1,3.7.793h0a7.793,7.793,0,0,1,2.7,2.117h0a9.354,9.354,0,0,1,1.644,3.1h0a12.309,12.309,0,0,1,.555,3.724h0a12.274,12.274,0,0,1-.555,3.717h0a9.366,9.366,0,0,1-1.644,3.1h0a7.782,7.782,0,0,1-2.7,2.109h0a8.376,8.376,0,0,1-3.7.777h0a8.407,8.407,0,0,1-3.7-.777Zm-1.765-2.687a6.753,6.753,0,0,0,2.335,1.785h0a7.319,7.319,0,0,0,3.124.638h0a7.377,7.377,0,0,0,3.133-.635h0a6.816,6.816,0,0,0,2.333-1.785h0a8.311,8.311,0,0,0,1.48-2.726h0a11.6,11.6,0,0,0,.553-3.5h0a11.553,11.553,0,0,0-.553-3.494h0a8.351,8.351,0,0,0-1.48-2.734h0a6.828,6.828,0,0,0-2.333-1.778h0a7.3,7.3,0,0,0-3.133-.641h0a7.251,7.251,0,0,0-3.122.641h0a6.745,6.745,0,0,0-2.337,1.778h0a8.361,8.361,0,0,0-1.486,2.734h0a11.678,11.678,0,0,0-.547,3.487h0a11.747,11.747,0,0,0,.547,3.5h0a8.26,8.26,0,0,0,1.486,2.726Z" transform="translate(-217.587 -10.817)"/>
    </g>
    <g id="Group_206" data-name="Group 206" transform="translate(186.315 9.382)">
      <path id="Path_219" data-name="Path 219" d="M255.506,11.382h.29v11.6c0,2.463-.575,4.338-1.775,5.573h0a6.824,6.824,0,0,1-5.122,1.837h-.012a6.818,6.818,0,0,1-5.132-1.837h0c-1.2-1.235-1.775-3.11-1.775-5.573h0v-11.6h1.095v11.6a7.009,7.009,0,0,0,1.414,4.754h0a5.569,5.569,0,0,0,4.4,1.591h0a5.565,5.565,0,0,0,4.4-1.591h0a7.013,7.013,0,0,0,1.417-4.754h0v-11.6h.806Z" transform="translate(-241.98 -11.382)"/>
    </g>
    <g id="Group_207" data-name="Group 207" transform="translate(201.754 9.398)">
      <path id="Path_220" data-name="Path 220" d="M262.368,30h-.291V11.4h7.6a6.3,6.3,0,0,1,4.23,1.311h0a4.9,4.9,0,0,1,1.543,3.9h0A5.289,5.289,0,0,1,275,18.846h0a4.611,4.611,0,0,1-1.27,1.646h0a5.457,5.457,0,0,1-1.9.983h0a8.179,8.179,0,0,1-2.4.328h-6.253V30h-.805Zm7.3-9.291a6.1,6.1,0,0,0,1.88-.274h0a4.224,4.224,0,0,0,1.481-.8h0A3.773,3.773,0,0,0,274,18.354h0a4.063,4.063,0,0,0,.352-1.746h0a3.954,3.954,0,0,0-1.136-3.069h0a5.076,5.076,0,0,0-3.545-1.053h0l-6.5,0v8.223h6.5Z" transform="translate(-262.077 -11.403)"/>
    </g>
  </g>
</svg>
