<svg version="1.1" id="Capa_1" xmlns="http://www.w3.org/2000/svg" xmlns:xlink="http://www.w3.org/1999/xlink" x="0px" y="0px"
	 viewBox="0 0 512.001 512.001" style="enable-background:new 0 0 512.001 512.001;" xml:space="preserve">
		<polygon points="275.502,70.033 275.502,0.001 24.498,0.001 24.498,70.033 135,70.033 135,120.097 89.964,120.097 89.964,180.145 
			210.036,180.145 210.036,120.097 165,120.097 165,70.033"/>
		<path d="M428.524,285.001h-18.112c-29.487,0-53.477-23.989-53.477-53.476v-61.412h30.036v-30H296.9v30h30.035v61.412
			c0,46.028,37.447,83.476,83.477,83.476h18.112c29.487,0,53.476,23.989,53.476,53.476s-23.989,53.477-53.476,53.477H210.036
			V210.145H89.964v271.856H0v30h299.312v-30h-89.275v-30.048h218.488c46.028,0,83.476-37.447,83.476-83.477
			C512,322.447,474.553,285.001,428.524,285.001z"/>
</svg>
