<svg xmlns="http://www.w3.org/2000/svg" width="47.026" height="36.237" viewBox="0 0 47.026 36.237"><defs><style>.a{fill:#fff;}</style></defs><g transform="translate(0 0)"><path class="a" d="M30.879,29.109c-9.045,0-16.888-1.517-21.8-4.305-1.691.821-7.018,3.476-8.427,5.158A3.836,3.836,0,0,0,0,31.643a5.661,5.661,0,0,0,.382,1.339c11.96,5.056,18.648,3.13,25.334,1.812a40.764,40.764,0,0,0,13.563-5.95c.054-.06.118-.119.175-.176C36.52,28.957,33.642,29.109,30.879,29.109Z" transform="translate(0 -0.041)"/><path class="a" d="M29.351,6.454l-.1,0c-.084-1.125-1.444-2.02-3.124-2.02-1.734,0-3.139.952-3.139,2.128,0,.019.007.036.007.056C7.1,8.272,7.751,19.4,8.075,25.4a18.073,18.073,0,0,1-.089,2.762C14.468,31.855,26.44,33.21,39.5,31.648a51.762,51.762,0,0,1,5.721-3.266s.2-6.169,0-8.212C44.14,9.443,34.966,6.971,29.351,6.454Z" transform="translate(1.719 -4.437)"/></g></svg>