<?xml version="1.0" encoding="iso-8859-1"?>
<!-- Generator: Adobe Illustrator 19.0.0, SVG Export Plug-In . SVG Version: 6.00 Build 0)  -->
<svg xmlns="http://www.w3.org/2000/svg" xmlns:xlink="http://www.w3.org/1999/xlink" version="1.1" id="Layer_1" x="0px" y="0px" viewBox="0 0 512 512" style="enable-background:new 0 0 512 512;" xml:space="preserve" width="512" height="512">
<g>
	<path d="M482,240h-61v-30h30c16.5,0,30-13.5,30-30s-13.5-30-30-30h-75c-8.401,0-15,6.599-15,15s6.599,15,15,15h15v30h-15   c-24.901,0-45-20.099-45-45c0-23.269,18.644-45,45-45h36.899c23.456-39.084,1.199-90-66.899-90c-24.901,0-45,20.099-45,45h-30   c0-24.3,11.7-45.601,29.7-59.399C288.1,6,272.8,0,256,0s-32.1,6-44.7,15.601C229.3,29.399,241,50.7,241,75h-30   c0-24.901-20.099-45-45-45c-36.301,0-66.599,25.8-73.5,60H76c-24.901,0-45,20.099-45,45c0,24,19.501,45,45,45h75   c16.5,0,30-13.5,30-30h30c0,32.999-27.001,60-60,60H45c-24.901,0-45,20.099-45,45s20.099,45,45,45h136v30H76   c-24.901,0-45,20.099-45,45s20.099,45,45,45h75v92h60v-92h30c16.569,0,30-13.431,30-30h30c32.999,0,60-27.001,60-60h-90   c-32.999,0-60-27.001-60-60s27.001-60,60-60h30v30h-30c-16.5,0-30,13.5-30,30s13.5,30,30,30h211c16.5,0,30-13.5,30-30   S498.5,240,482,240z"/>
</g>
</svg>
