<svg xmlns="http://www.w3.org/2000/svg" width="26.078" height="26.077" viewBox="0 0 26.078 26.077"><defs><style>.a{fill:#e3051a;}</style></defs><g transform="translate(-1 -1.018)"><g transform="translate(1 1.018)"><g transform="translate(0 0)"><path class="a" d="M26.394,21.135l-5.278-3.52a1.541,1.541,0,0,0-2.063.335l-1.538,1.977a.657.657,0,0,1-.843.177l-.292-.161a17.675,17.675,0,0,1-4.606-3.618,17.747,17.747,0,0,1-3.618-4.606L8,11.426a.658.658,0,0,1,.174-.846l1.976-1.537a1.541,1.541,0,0,0,.336-2.063L6.96,1.7a1.533,1.533,0,0,0-2.066-.465L2.687,2.563a3.113,3.113,0,0,0-1.42,1.843C.472,7.3,1.07,12.3,8.433,19.663c5.857,5.856,10.217,7.431,13.214,7.431a7.7,7.7,0,0,0,2.043-.267,3.111,3.111,0,0,0,1.843-1.42L26.859,23.2A1.533,1.533,0,0,0,26.394,21.135Zm-.284,1.621-1.324,2.207A2.246,2.246,0,0,1,23.46,25.99c-2.673.734-7.344.126-14.413-6.942S1.372,7.309,2.106,4.636A2.249,2.249,0,0,1,3.134,3.308L5.341,1.984a.665.665,0,0,1,.9.2L8.15,5.057l1.6,2.407a.669.669,0,0,1-.145.9L7.634,9.9a1.521,1.521,0,0,0-.4,1.952l.157.285a18.436,18.436,0,0,0,3.767,4.806,18.455,18.455,0,0,0,4.806,3.766l.285.157a1.521,1.521,0,0,0,1.952-.4l1.537-1.976a.669.669,0,0,1,.9-.145l5.278,3.52A.664.664,0,0,1,26.11,22.756Z" transform="translate(-1 -1.018)"/><path class="a" d="M283.063,70.193a7.4,7.4,0,0,1,7.388,7.388.435.435,0,0,0,.869,0,8.266,8.266,0,0,0-8.257-8.257.435.435,0,0,0,0,.869Z" transform="translate(-268.286 -65.845)"/><path class="a" d="M283.063,121.393a4.786,4.786,0,0,1,4.78,4.78.435.435,0,1,0,.869,0,5.656,5.656,0,0,0-5.649-5.649.435.435,0,0,0,0,.869Z" transform="translate(-268.286 -114.438)"/><path class="a" d="M283.063,172.593a2.176,2.176,0,0,1,2.173,2.173.435.435,0,1,0,.869,0,3.045,3.045,0,0,0-3.042-3.042.435.435,0,0,0,0,.869Z" transform="translate(-268.286 -163.031)"/></g></g></g></svg>