<svg xmlns="http://www.w3.org/2000/svg" width="23.965" height="23.965" viewBox="0 0 23.965 23.965"><defs><style>.a{fill:#7f7f7f;}</style></defs><g transform="translate(-0.001 -0.005)"><g transform="translate(0.001 0.004)"><g transform="translate(0 0)"><path class="a" d="M23.961,9.166a.378.378,0,0,0-.016-.081.4.4,0,0,0-.023-.069.358.358,0,0,0-.04-.061.376.376,0,0,0-.053-.062c-.006-.006-.009-.013-.016-.019L19.972,5.891V2.8a1.2,1.2,0,0,0-1.2-1.2H14.445L12.712.255a1.184,1.184,0,0,0-1.457,0L9.521,1.6H5.192a1.2,1.2,0,0,0-1.2,1.2V5.891L.154,8.874c-.007.006-.01.013-.016.019a.375.375,0,0,0-.053.062.356.356,0,0,0-.04.061.394.394,0,0,0-.023.069.379.379,0,0,0-.016.08c0,.008,0,.016,0,.024V22.771a1.185,1.185,0,0,0,.234.7s0,.008.006.011l.013.011a1.192,1.192,0,0,0,.944.471h21.57a1.193,1.193,0,0,0,.947-.473s.008-.005.011-.009,0-.008.006-.011a1.185,1.185,0,0,0,.234-.7V9.19C23.966,9.182,23.962,9.174,23.961,9.166ZM11.743.885a.383.383,0,0,1,.477,0l.921.715H10.825ZM1.3,23.17l10.445-8.113a.383.383,0,0,1,.477,0L22.667,23.17Zm21.869-.623L12.712,14.427a1.185,1.185,0,0,0-1.457,0L.8,22.548V9.8l6.546,5.083a.4.4,0,0,0,.49-.632L1.184,9.086,3.994,6.9V9.989a.4.4,0,0,0,.8,0V2.8a.4.4,0,0,1,.4-.4H18.773a.4.4,0,0,1,.4.4v7.19a.4.4,0,0,0,.8,0V6.9l2.81,2.184L16.12,14.259a.4.4,0,1,0,.49.631L23.167,9.8V22.548Z" transform="translate(-0.001 -0.004)"/><path class="a" d="M163.161,74.628v-1.6a4.793,4.793,0,1,0-4.793,4.793.4.4,0,1,0,0-.8,3.994,3.994,0,1,1,3.994-3.994v1.6a.8.8,0,1,1-1.6,0v-1.6a.4.4,0,1,0-.8,0,1.6,1.6,0,1,1-1.6-1.6.4.4,0,1,0,0-.8,2.4,2.4,0,1,0,1.615,4.163,1.593,1.593,0,0,0,3.178-.168Z" transform="translate(-146.385 -65.043)"/></g></g></g></svg>