<svg xmlns="http://www.w3.org/2000/svg" width="45.247" height="45.247" viewBox="0 0 45.247 45.247"><defs><style>.a{fill:#fff;}</style></defs><path class="a" d="M43.772,5.9H20.165a1.476,1.476,0,0,0-1.475,1.475V11.8H13.281a7.305,7.305,0,0,0,1.473-4.426A7.377,7.377,0,1,0,0,7.377a7.3,7.3,0,0,0,2.951,5.894v30.5a1.476,1.476,0,0,0,1.475,1.475h5.9A1.476,1.476,0,0,0,11.8,43.772V35.411H31.968a1.477,1.477,0,0,0,1.475-1.475V29.509H43.772a1.476,1.476,0,0,0,1.475-1.475V7.377A1.476,1.476,0,0,0,43.772,5.9ZM8.853,33.935V42.3H5.9V14.605a7.421,7.421,0,0,0,2.951,0v19.33ZM7.377,11.8A4.426,4.426,0,1,1,11.8,7.377,4.436,4.436,0,0,1,7.377,11.8ZM11.8,32.46V14.755h6.885V28.034a1.481,1.481,0,0,0,.816,1.32l6.213,3.107H11.8Zm18.689-.912-4.078-2.039h4.078Zm11.8-4.99H21.64V8.853H42.3Z"/><g transform="translate(24.59 14.755)"><g transform="translate(0 0)"><rect class="a" width="4.174" height="4.174" transform="translate(0 2.951) rotate(-45)"/></g></g><g transform="translate(33.443 14.755)"><g transform="translate(0 0)"><rect class="a" width="4.174" height="4.174" transform="translate(0 2.951) rotate(-45)"/></g></g></svg>