<svg height="512pt" viewBox="0 0 512 512" width="512pt" xmlns="http://www.w3.org/2000/svg"><path d="m61 466.5c0 8.546875-6.953125 15.5-15.5 15.5s-15.5-6.953125-15.5-15.5v-45h-30v45c0 25.089844 20.410156 45.5 45.5 45.5s45.5-20.410156 45.5-45.5v-45h-30zm0 0"/><path d="m0 91.5h122v300h-122zm0 0"/><path d="m407 0h45v61.5h-45zm0 0"/><path d="m287 0h90v61.5h-90zm0 0"/><path d="m212 0h45v61.5h-45zm0 0"/><path d="m152 91.5v360h360v-360zm315 315h-270v-210h60v-60h150v60h60zm0 0"/><path d="m227 376.5h210v-150h-210zm150-120h30v30h-30zm0 60h30v30h-30zm-60-60h30v30h-30zm0 60h30v30h-30zm-60-60h30v30h-30zm0 60h30v30h-30zm0 0"/><path d="m287 166.5h90v30h-90zm0 0"/></svg>