<svg xmlns="http://www.w3.org/2000/svg" id="Layer_1" data-name="Layer 1" viewBox="0 0 128 128" width="512" height="512"><title>GAS STATION</title><path d="M24.646,49H67.374a1.75,1.75,0,0,0,1.75-1.75V18.417a1.75,1.75,0,0,0-1.75-1.75H24.646a1.75,1.75,0,0,0-1.75,1.75V47.25A1.75,1.75,0,0,0,24.646,49ZM26.4,20.167H65.624V45.5H26.4Z"/><path d="M40.99,69.921H29.74a1.75,1.75,0,0,0-1.75,1.75V95.5a1.75,1.75,0,0,0,1.75,1.75h3.875v4.875a1.75,1.75,0,0,0,3.5,0V97.25H40.99a1.75,1.75,0,0,0,1.75-1.75V71.671A1.75,1.75,0,0,0,40.99,69.921ZM39.24,93.75H37.115V83.585a1.75,1.75,0,0,0-3.5,0V93.75H31.49V73.421h7.75Z"/><path d="M40.99,23.021H31.136a1.75,1.75,0,0,0-1.75,1.75V40.9a1.75,1.75,0,0,0,1.75,1.75H40.99a1.75,1.75,0,0,0,1.75-1.75V24.771A1.75,1.75,0,0,0,40.99,23.021ZM39.24,39.146H32.886V26.521H39.24Z"/><path d="M60.886,23.021H51.03a1.75,1.75,0,0,0-1.75,1.75V40.9a1.75,1.75,0,0,0,1.75,1.75h9.855a1.75,1.75,0,0,0,1.75-1.75V24.771A1.75,1.75,0,0,0,60.886,23.021Zm-1.75,16.125H52.78V26.521h6.355Z"/><path d="M114.886,42.75H90.052A1.75,1.75,0,0,0,88.3,44.5v2.6a8.6,8.6,0,0,0-6.833,8.4V76.752a5.089,5.089,0,0,1-5.083,5.083H74.094V57.188a4.893,4.893,0,0,0,3.5-4.674V13.153a4.908,4.908,0,0,0-4.9-4.9H19.33a4.908,4.908,0,0,0-4.9,4.9v39.36a4.9,4.9,0,0,0,3.167,4.57V110.4a7.762,7.762,0,0,0-6.229,7.6,1.75,1.75,0,0,0,1.75,1.75H78.906a1.75,1.75,0,0,0,1.75-1.75,7.755,7.755,0,0,0-6.562-7.649V85.335h2.292a8.593,8.593,0,0,0,8.583-8.583V55.5A5.077,5.077,0,0,1,88.3,50.747v3.92a1.749,1.749,0,0,0,2.3,1.662L103,52.25h11.887a1.75,1.75,0,0,0,1.75-1.75v-6A1.75,1.75,0,0,0,114.886,42.75Zm-93.792,67.5V57.417h49.5v20.23H64.03V71.671a1.75,1.75,0,0,0-1.75-1.75H51.03a1.75,1.75,0,0,0-1.75,1.75V95.5a1.75,1.75,0,0,0,1.75,1.75H62.28a1.75,1.75,0,0,0,1.75-1.75V89.522h6.563V110.25Zm49.5-24.228H60.843a2.438,2.438,0,0,1,0-4.875h9.751ZM60.53,77.663a5.93,5.93,0,0,0,0,11.843V93.75H52.78V73.421h7.75Zm-42.6-64.51a1.405,1.405,0,0,1,1.4-1.4H72.69a1.405,1.405,0,0,1,1.4,1.4v39.36a1.405,1.405,0,0,1-1.4,1.4H19.33a1.405,1.405,0,0,1-1.4-1.4Zm58.853,103.1H15.241a4.257,4.257,0,0,1,3.873-2.5H72.906A4.258,4.258,0,0,1,76.779,116.25Zm15.022-70h9.167v2.983L91.8,52.249Zm21.334,2.5h-8.667v-2.5h8.667Z"/></svg>
