<svg xmlns="http://www.w3.org/2000/svg" width="23.661" height="31.201" viewBox="0 0 23.661 31.201"><defs><style>.a{fill:#7f7f7f;}</style></defs><g transform="translate(-95.691)"><g transform="translate(95.691 0)"><g transform="translate(0 0)"><path class="a" d="M107.522,31.2a1.443,1.443,0,0,1-1.188-.614l-7.723-10.88a16.854,16.854,0,0,1-1.987-3.279,11.708,11.708,0,0,1-.7-2.252,11.92,11.92,0,0,1-.238-2.35,11.831,11.831,0,0,1,23.662,0,11.868,11.868,0,0,1-.933,4.6,16.8,16.8,0,0,1-1.982,3.271c-.081.112-.154.213-.344.481l-7.385,10.406A1.442,1.442,0,0,1,107.522,31.2Zm0-30.175a10.8,10.8,0,0,0-10.8,10.8,10.882,10.882,0,0,0,.218,2.146,10.645,10.645,0,0,0,.634,2.053A15.806,15.806,0,0,0,99.446,19.1l.344.482,7.385,10.405a.423.423,0,0,0,.693,0l7.385-10.406c.193-.272.268-.375.342-.478a15.807,15.807,0,0,0,1.874-3.078,10.845,10.845,0,0,0,.851-4.2,10.805,10.805,0,0,0-10.8-10.8Zm0,17.916a7.116,7.116,0,1,1,7.115-7.116A7.125,7.125,0,0,1,107.522,18.943Zm0-13.2a6.085,6.085,0,1,0,6.084,6.085A6.093,6.093,0,0,0,107.522,5.742Z" transform="translate(-95.691 0)"/></g></g></g></svg>