<svg xmlns="http://www.w3.org/2000/svg" width="100" height="36.694" viewBox="0 0 100 36.694">
  <g id="Group_217" data-name="Group 217" transform="translate(-130.194 -338.704)">
    <path id="Path_319" data-name="Path 319" d="M487.461,344.645l2.7,10.793h-5.406Zm-2.578-4.394-6,22.113a2.317,2.317,0,0,0-.062.352c0,1.125,1.461,1.9,2.548,1.9a1.221,1.221,0,0,0,1.367-.914l1.18-4.675h7.116l1.181,4.675a1.219,1.219,0,0,0,1.367.914c1.087,0,2.548-.807,2.548-1.9a1.768,1.768,0,0,0-.063-.352l-6-22.113a2.949,2.949,0,0,0-5.189,0" transform="translate(-305.974)" fill="#fff"/>
    <path id="Path_320" data-name="Path 320" d="M667.924,342.713h3.481c2.02,0,3.261,1.3,3.261,4.042v.422c0,2.742-1.242,4.043-3.261,4.043h-3.481Zm-2.516-4.008a1.436,1.436,0,0,0-1.523,1.406v22.851c0,.95.994,1.442,2.02,1.442.995,0,2.02-.492,2.02-1.442v-8.156h3.481c4.1,0,7.3-2.215,7.3-7.98v-.211c0-5.765-3.109-7.91-7.053-7.91Z" transform="translate(-468.394 -0.001)" fill="#fff"/>
    <path id="Path_321" data-name="Path 321" d="M322.084,342.713h3.48c2.019,0,3.262,1.3,3.262,4.042v.422c0,2.472-1.243,3.555-3.262,3.555h-3.48Zm-2.517-4.008a1.436,1.436,0,0,0-1.523,1.406v22.851c0,.95.995,1.442,2.02,1.442.995,0,2.02-.492,2.02-1.442v-8.644h3.48a8.971,8.971,0,0,0,1.054-.069l2.332,9.346a1.22,1.22,0,0,0,1.367.913c1.088,0,2.548-.808,2.548-1.9a1.662,1.662,0,0,0-.062-.351l-2.568-9.467a7.865,7.865,0,0,0,2.624-6.322c-.053-5.652-3.135-7.764-7.047-7.764Z" transform="translate(-164.867 -0.001)" fill="#fff"/>
    <path id="Path_322" data-name="Path 322" d="M835.4,340.11v13.863H828.41V340.11c0-.984-1.026-1.406-2.02-1.406-1.025,0-2.02.422-2.02,1.406v22.851c0,.95.995,1.442,2.02,1.442.994,0,2.02-.492,2.02-1.442v-5.4H835.4v5.4c0,.95.994,1.442,2.019,1.442.994,0,2.018-.492,2.018-1.442V340.11c0-.984-1.024-1.406-2.018-1.406-1.025,0-2.019.422-2.019,1.406" transform="translate(-609.245)" fill="#fff"/>
    <path id="Path_323" data-name="Path 323" d="M139.934,356.557v.357a9.134,9.134,0,0,1-.154,1.744,3.6,3.6,0,0,1-.561,1.374,2.8,2.8,0,0,1-1.09.917,4.4,4.4,0,0,1-3.41-.018,2.943,2.943,0,0,1-1.23-1.163,6.476,6.476,0,0,1-.763-2.114,16.613,16.613,0,0,1-.265-3.241v-3.771q0-3.7,1.043-5.32a3.418,3.418,0,0,1,3.068-1.62,4.085,4.085,0,0,1,1.371.21,5.954,5.954,0,0,1,1.059.494,7.229,7.229,0,0,0,.763.44,1.589,1.589,0,0,0,.7.159,1.829,1.829,0,0,0,1.48-.67,2.327,2.327,0,0,0,.482-1.445,2.492,2.492,0,0,0-.934-1.867,5.767,5.767,0,0,0-2.259-1.269,8.916,8.916,0,0,0-2.662-.422,8.2,8.2,0,0,0-3.892.846,7.027,7.027,0,0,0-2.585,2.343,10.341,10.341,0,0,0-1.448,3.542,20.57,20.57,0,0,0-.451,4.44v3.981a21.11,21.11,0,0,0,.451,4.546,10.357,10.357,0,0,0,1.432,3.523,6.733,6.733,0,0,0,2.538,2.29,8.16,8.16,0,0,0,3.8.811,7.883,7.883,0,0,0,3.582-.741,6.524,6.524,0,0,0,2.365-1.973,8.127,8.127,0,0,0,1.309-2.836c.079-.313.122-.637.178-.957a10.087,10.087,0,0,1-3.916-2.589" transform="translate(2 -0.551)" fill="#fff"/>
    <path id="Path_325" data-name="Path 325" d="M195.11,441.5h-2.055a1.811,1.811,0,0,1-1.4-.67,2.418,2.418,0,0,1,0-3.17,1.811,1.811,0,0,1,1.4-.67h4.174a1.8,1.8,0,0,1,1.463.687,2.671,2.671,0,0,1,.561,1.744v2.106" transform="translate(-53.421 -86.256)" fill="#fff"/>
    <path id="Path_326" data-name="Path 326" d="M225.862,463.321l2.022-.381,1.531,1.361v17.878a2.315,2.315,0,0,1-.592,1.586,1.8,1.8,0,0,1-2.8,0,2.315,2.315,0,0,1-.591-1.586v-17.9Z" transform="translate(-83.583 -109.036)" fill="#fff"/>
  </g>
</svg>
